<?xml version="1.0" encoding="utf-8"?>
<!-- Generator: Adobe Illustrator 22.1.0, SVG Export Plug-In . SVG Version: 6.00 Build 0)  -->
<svg version="1.1" id="Layer_1" xmlns="http://www.w3.org/2000/svg" xmlns:xlink="http://www.w3.org/1999/xlink" x="0px" y="0px"
	 viewBox="0 0 1022 560.8" style="enable-background:new 0 0 1022 560.8;" xml:space="preserve">
<style type="text/css">
	.st0{fill:none;stroke:#203F79;stroke-width:12;stroke-linecap:round;stroke-linejoin:round;}
	.st1{font-family:'TwCenMT-Bold';}
	.st2{font-size:103.7px;}
	.st3{letter-spacing:-4;}
	.st4{font-family:'TwCenMT-Regular';}
	.st5{font-size:60.35px;}
	.st6{letter-spacing:-1;}
	.st7{font-size:65.64px;}
	.st8{enable-background:new    ;}
	.st9{fill:#EEEEEE;}
</style>
<title>Award_Indies19</title>
<g id="Layer_2_1_">
	<g id="Layer_2-2">
		<text transform="matrix(1 0 0 1 241.95 251.16)" class="st0 st1 st2">IN</text>
		<text transform="matrix(1 0 0 1 340.23 251.16)" class="st0 st1 st2 st3">D</text>
		<text transform="matrix(1 0 0 1 401.91 251.16)" class="st0 st1 st2">Y INDIES</text>
		<text transform="matrix(1 0 0 1 257.12 393.35)" class="st0 st4 st5">OFFICIAL SELECTION</text>
		<text transform="matrix(1 0 0 1 253.95 322.78)" class="st0 st4 st5">WINTER SH</text>
		<text transform="matrix(1 0 0 1 534.08 322.78)" class="st0 st4 st5 st6">OW</text>
		<text transform="matrix(1 0 0 1 638.54 322.78)" class="st0 st4 st5">CASE</text>
		<text transform="matrix(1 0 0 1 438.57 454.68)" class="st0 st4 st7">2019</text>
		<path class="st0" d="M234.8,481.7c2-20.5-7.1-38.3-7.1-38.3s-19.9,0.5-19.3,34.3c0.2,11.2,2.6,22.3,7.3,32.6
			c-10.6-6.5-20.6-13.8-30-22l-3.8-3.4c3-1.2,15.3-7.6,19-32.9c3-20.4-6.1-37.9-6.1-37.9l0,0c0,0-20.6,3-21.5,31.4
			c-0.7,21.1,4.6,33.6,6.9,38c-12-10.8-23.4-22.3-34-34.5c8.8-6.6,19.7-13.7,25.1-24.2c8.2-15.9,6.4-25.3,7.6-40
			c-10.5,3.1-21.8,6.1-29.8,28c-4.6,12.7-0.7,18.5-4.2,34.8c-8.5-9.8-16.3-20.2-23.3-31c9.8-4.4,21.3-7.2,29.9-20.8
			c9.6-15.2,7.6-15.3,16.3-40.2c-10.9,1-22.6,1.9-34.6,21.9c-6.9,11.6-6.1,21.8-12.7,37.5c-7.5-11.6-13.8-23.9-19-36.8
			c10.8-2.6,25.1-2.1,38.9-16.6c14.2-14.8,19.1-29.6,22.5-40.4c-10.9,1-27.7,0.5-40.9,17.9c-11.6,15.2-10.9,20-21.3,36.9
			c-1.4-3.7-2.7-7.4-3.9-11.2c-2.6-8.3-4.6-16.7-6-25.3c7.3-0.1,24.7-0.6,40.1-14.6c15.2-13.8,22.3-29.7,26.5-40.3
			c-10.9,0.1-26.8-3.2-43.5,15.5c-12.3,13.7-16.7,23.8-23.7,35.7c-2.3-15.1-3-30.4-2-45.7c6.4,0.2,26.4,1,44.5-12.1
			c16.6-12,24.7-28,30.1-38c-10.9-1.1-26.9-6.4-45.7,10.3c-14.3,12.8-19.9,25.6-28.8,37.6c0.4-5.8,1.1-11.6,1.9-17.3
			c1.8-11.5,4.5-22.8,8-33.8c6.5,1.3,21.8,3.7,41.5-3.4c21.2-7.7,33.1-29,36-34.2c-10.5-3.1-23.1-7-46.1,4.7
			c-13.7,7-23.3,17.4-28.7,24.5c4.3-12.7,9.2-25,14-36.9c6.1,1.7,21.4,5.6,42.1-0.3c21.7-6.1,35.1-26.6,38.4-31.5
			c-10.2-3.8-22.4-8.6-46.3,1.4c-14.7,6.2-25.2,16.4-31,23.2c6.9-15.4,15.3-30,25.1-43.7c4.3,2.1,13.6,6.9,35.6,4.8
			c28-2.6,39.6-20.4,39.6-20.4c-9.5-5.5-18.7-9-37.8-5.6c-12.4,2.2-24,7.7-33.7,15.8c8.3-11.5,16.9-22.8,26-33.8
			c4.6,2,16.6,6.8,39,4.7c28-2.6,42.6-21.3,42.6-21.3c-9.5-5.5-24.2-8.6-43.4-5.3c-11.9,2.2-23.1,7.4-32.6,15
			c6-7.1,12.2-14.1,18.6-20.8c3-3.2,6.3-6.3,9.7-9.3c6.6,0.1,30.7-0.2,43.6-7.7c16.8-9.8,33.4-31,34.7-37.2c0,0-26.5-11.6-51.2,9.6
			c-15.1,13-23.7,25.7-27.1,32c-3.3,2.9-6.4,5.9-9.4,9c-3.3,3.5-6.6,7-9.9,10.6c4.6-7.2,9.9-17.5,12-29.4c3.4-19.1,0-40-3.6-45.2
			c0,0-20.7,12.9-22.2,45.4c-1,22.3,3.3,34,5.3,38.6c-10.4,11.8-20.6,24.2-30,36.6c4.2-8,9.9-20.7,12.1-33.8
			c3.4-20.5-4.9-42.8-6.7-44.8c0,0-21.7,9.5-20.9,46.1c0.2,13.9,3.6,27.5,9.9,39.9c-0.8,1-1.5,2-2.2,3
			c-8.4,11.7-16.2,23.8-23.3,36.2c2.5-8,5.9-21.6,5.2-35.6c-1.6-30.6-22.4-43.6-22.9-43.6c0,0-20,18.1-8.5,56.9
			c5.8,19.8,18.5,27.2,22.4,29.1c-2.7,4.9-5.1,9.6-7.1,13.9c-4.8,10.4-8.7,19.4-12.1,28.4c1.1-8.6,1.8-20.2,0.4-31.5
			c-4.2-33.1-29.9-40.1-30.4-40c0,0-8.8,30.6,3.7,56.8c9.8,20.4,18.1,26,21.8,27.6c-2.3,7.4-4.5,15.1-6.5,24
			c-1.3,5.8-2.4,11.6-3.3,17.4c-0.4-9.9-1.9-25-6.3-37.6c-10.1-29.1-37.7-34.9-38.2-34.8c0,0-4.5,31.2,11.5,55.4
			c14,21.2,27.3,26.3,31.6,27.4c-1.6,16.3-1.5,32.7,0.4,49c-5.7-10.3-7.8-28.8-18.5-44.2c-17.5-25.4-46.4-23.6-46.8-23.3
			c0,0,3.1,31.6,25,50.8c17.9,15.7,34.3,19.9,40.8,21c1.2,9,2.9,18,5,26.9c0.4,1.5,0.8,3,1.2,4.5c-5.2-7-19.5-24.5-38.8-33.8
			c-23.9-11.5-41.3-1.7-41.7-1.3c0,0,12.2,22.4,34.8,33.1c26.1,12.4,42.4,7.4,46.7,5.6c3.7,12.1,8.8,23.8,15.1,34.9
			c-6.3-5.7-20.5-17.2-38.3-22.6c-31.5-9.7-46.4,9.3-46.8,9.8c0,0,12.9,16.3,39.9,23.4c30.5,8.1,44.2-2.6,47.8-6.1
			c9.6,15.8,20.7,30.6,33.2,44.1c-7.1-5.5-21.8-15.9-36.2-19.5c-34.6-8.7-46,11.5-46,11.5S69,466.2,96.7,473
			c28.5,7,42.7-6.8,45.5-9.9c10,10.7,20.6,20.8,31.2,30.3c-5.5-2.4-23.4-9.5-40.6-9.4c-35.6,0.3-37.8,19.2-37.8,19.2
			s12.9,9.3,41.4,8.9c29.4-0.4,37.1-14.4,38.4-17.4l2.1,1.9c11.6,10.1,24.3,18.9,37.7,26.4c-8.2-2.2-26.5-6.3-41.9-4.5
			c-32.4,3.8-35.4,24-35.4,24s13,8.1,40.9,5c28.4-3.1,38.2-18.3,40.3-22.3c22.2,12.3,46,21.8,68,29.7l3.8-10
			c-23.5-8.4-47.8-18.6-70.1-31.8C224.4,509.9,232.9,501.3,234.8,481.7z"/>
		<polygon class="st0" points="227.7,443.4 227.7,443.4 227.7,443.4 		"/>
		<path class="st0" d="M957.7,387.7c-17.8,5.5-32,17-38.3,22.7c6.3-11.1,11.3-22.8,15.1-34.9c4.3,1.8,20.7,6.8,46.8-5.6
			c22.5-10.7,34.8-33.1,34.8-33.1c-0.4-0.4-17.8-10.2-41.7,1.3c-19.3,9.3-33.6,26.8-38.8,33.8c0.4-1.5,0.8-3,1.2-4.6
			c2.1-8.9,3.8-17.8,5-26.9c6.5-1.1,22.8-5.4,40.8-21.1c21.9-19.1,25-50.8,25-50.8c-0.4-0.2-29.3-2.1-46.8,23.3
			c-10.6,15.4-12.7,33.9-18.5,44.2c1.8-16.3,2-32.7,0.4-49c4.3-1.1,17.7-6.2,31.7-27.4c16-24.3,11.5-55.4,11.5-55.4
			c-0.5-0.1-28.1,5.6-38.2,34.8c-4.4,12.7-5.8,27.9-6.3,37.8c-0.9-5.9-1.9-11.8-3.3-17.6c-2-8.9-4.1-16.6-6.5-23.9
			c3.7-1.5,12.1-7.2,21.9-27.6c12.5-26.2,3.7-56.8,3.7-56.8c-0.5-0.1-26.2,6.9-30.4,40c-1.5,11.4-0.7,23.1,0.4,31.7
			c-3.4-9.1-7.3-18.1-12.1-28.6c-2-4.3-4.4-9-7.1-13.9c3.9-1.9,16.5-9.4,22.4-29.2c11.5-38.9-8.5-56.9-8.5-56.9
			c-0.5,0-21.3,13-22.8,43.6c-0.7,14.1,2.7,27.7,5.2,35.7c-7.2-12.5-15-24.7-23.5-36.4c-0.7-1-1.5-2-2.2-3c6.3-12.4,9.7-26.1,9.9-40
			c0.8-36.5-20.9-46-20.9-46c-1.8,2-10.1,24.3-6.7,44.8c2.2,13.1,7.9,25.8,12.1,33.8c-9.5-12.4-19.6-24.7-30-36.5
			c2-4.6,6.3-16.3,5.3-38.7C846.8,18.9,826.1,6,826.1,6c-3.6,5.2-7.1,26-3.6,45.2c2.2,12,7.5,22.3,12.1,29.5
			c-3.3-3.6-6.7-7.2-10-10.7c-2.9-3.1-6.1-6-9.3-8.9c-3.4-6.2-12-19-27.2-32c-24.7-21.2-51.2-9.6-51.2-9.6
			c1.3,6.2,17.8,27.4,34.7,37.2c12.9,7.5,36.9,7.8,43.5,7.7c3.4,3,6.7,6.1,9.7,9.3c6.3,6.7,12.5,13.7,18.5,20.7
			c-9.4-7.6-20.6-12.8-32.5-15c-19.2-3.4-33.9-0.3-43.4,5.3c0,0,14.6,18.7,42.6,21.3c22.4,2.1,34.4-2.7,39-4.7
			c9.1,11,17.8,22.3,26,33.8c-9.6-8.2-21.3-13.7-33.7-15.9c-19.2-3.4-28.4,0.1-37.8,5.6c0,0,11.7,17.8,39.6,20.4
			c22.2,2,31.5-2.8,35.7-4.8c9.8,13.7,18.2,28.4,25.1,43.7c-5.8-6.7-16.3-16.9-31-23.1c-23.8-10-36.1-5.2-46.4-1.4
			c3.3,4.9,16.7,25.4,38.4,31.5c20.6,5.8,36,2,42.1,0.3c4.9,11.9,9.8,24.3,14.1,37c-5.4-7.1-15-17.6-28.7-24.6
			c-23.1-11.7-35.6-7.8-46.1-4.7c2.9,5.1,14.8,26.5,36,34.2c19.7,7.1,35,4.6,41.5,3.4c3.5,11.1,6.2,22.4,8,33.8
			c0.9,5.8,1.6,11.5,2,17.3c-8.9-12-14.5-24.9-28.8-37.7c-18.7-16.7-34.8-11.4-45.7-10.3c5.4,10.1,13.4,26,30.1,38
			c18.2,13.1,38.2,12.3,44.5,12.1c1,15.3,0.3,30.6-2,45.7c-6.9-11.9-11.4-22-23.7-35.6c-16.7-18.7-32.6-15.4-43.5-15.5
			c4.2,10.6,11.3,26.5,26.5,40.3c15.4,14,32.8,14.5,40.1,14.6c-1.4,8.5-3.5,17-6,25.3c-1.2,3.8-2.5,7.5-3.9,11.2
			c-10.5-16.8-9.7-21.6-21.4-36.9c-13.2-17.3-30-16.8-40.9-17.8c3.3,10.9,8.3,25.7,22.5,40.5c13.8,14.5,28.1,14,38.9,16.6
			c-5.2,12.8-11.5,25.1-19,36.8c-6.6-15.6-5.8-25.9-12.7-37.5c-11.9-20-23.7-20.9-34.5-21.9c8.7,24.9,6.7,25,16.3,40.2
			c8.6,13.7,20.1,16.4,29.9,20.8c-7.1,10.8-14.9,21.2-23.4,31c-3.5-16.4,0.4-22.1-4.2-34.8c-7.9-21.9-19.3-25-29.8-28
			c1.2,14.7-0.6,24,7.6,40c5.5,10.5,16.4,17.6,25.2,24.2c-10.6,12.2-22,23.7-34,34.5c2.3-4.3,7.6-16.9,6.9-38
			c-1-28.5-21.6-31.5-21.6-31.5l0,0c0,0-9.1,17.6-6.1,37.9c3.8,25.3,16.1,31.7,19,32.9l-3.8,3.4c-9.4,8.2-19.4,15.5-30,22
			c4.6-10.2,7.1-21.3,7.3-32.6c0.6-33.8-19.3-34.3-19.3-34.3l0,0c0,0-9.1,17.8-7.1,38.3c1.9,19.6,10.4,28.2,14.6,31.3
			c-22.3,13.2-46.7,23.4-70.1,31.8l3.8,10c22-7.9,45.8-17.4,68-29.7c2,3.9,11.8,19.2,40.3,22.3c27.9,3.1,41-5,41-5s-3-20.2-35.5-24
			c-15.4-1.8-33.9,2.4-42,4.5c13.4-7.5,26.1-16.4,37.7-26.4l2.1-1.9c1.3,3,9,17,38.4,17.4c28.5,0.4,41.4-8.9,41.4-8.9
			s-2.1-18.9-37.8-19.2c-17.1-0.1-35,7-40.5,9.4c10.7-9.5,21.3-19.6,31.3-30.3c2.7,3,17,16.9,45.5,10c27.7-6.8,40.6-22.2,40.6-22.2
			s-11.5-20.1-46-11.5c-14.5,3.6-29.4,14.2-36.4,19.7c12.6-13.6,23.8-28.4,33.4-44.3c3.5,3.5,17.2,14.2,47.8,6.1
			c27-7.1,39.9-23.4,39.9-23.4C1004.1,397,989.3,378,957.7,387.7z"/>
		<g class="st8">
			<path class="st9" d="M248,184.7h14.3v66.5H248V184.7z"/>
			<path class="st9" d="M319.6,184.7h14v66.5h-14l-30.4-43v43h-14.3v-66.5h14.2l30.5,42.7V184.7z"/>
		</g>
		<g class="st8">
			<path class="st9" d="M346.7,184.7h22.7c9.7,0,17.5,3.1,23.4,9.2c5.9,6.1,8.9,14.2,8.9,24.2c0,10-3,18.1-9.1,24.1
				c-6.1,6-14.2,9.1-24.3,9.1h-21.5V184.7z M361.1,197.2v41.1h5.7c5.9,0,10.7-1.6,14.5-4.8c3.8-3.2,5.7-8.6,5.7-16.1
				c0-4.4-0.9-8.2-2.7-11.6c-1.8-3.4-4.5-5.6-7.9-6.8c-3.5-1.2-6.8-1.8-9.9-1.8H361.1z"/>
		</g>
		<g class="st8">
			<path class="st9" d="M403.6,184.7h15.9l12.3,20.6l12.4-20.6h15.9l-21.2,35.4v31.1h-14.2v-31.1L403.6,184.7z"/>
			<path class="st9" d="M496,184.7h14.3v66.5H496V184.7z"/>
			<path class="st9" d="M567.6,184.7h14v66.5h-14l-30.4-43v43h-14.3v-66.5h14.2l30.5,42.7V184.7z"/>
			<path class="st9" d="M594.7,184.7h22.7c9.7,0,17.5,3.1,23.4,9.2c5.9,6.1,8.9,14.2,8.9,24.2c0,10-3,18.1-9.1,24.1
				c-6.1,6-14.2,9.1-24.3,9.1h-21.5V184.7z M609.1,197.2v41.1h5.7c5.9,0,10.7-1.6,14.5-4.8c3.8-3.2,5.7-8.6,5.7-16.1
				c0-4.4-0.9-8.2-2.7-11.6c-1.8-3.4-4.5-5.6-7.9-6.8c-3.5-1.2-6.8-1.8-9.9-1.8H609.1z"/>
			<path class="st9" d="M660.1,184.7h14.3v66.5h-14.3V184.7z"/>
			<path class="st9" d="M687.8,184.7h37.4v13.2h-23.1v13.4h23.1v13h-23.1V238h23.1v13.2h-37.4V184.7z"/>
			<path class="st9" d="M774.7,190.7l-8.9,9.8c-4.7-2.8-8.1-4.2-10.1-4.2c-1.6,0-3,0.6-4.1,1.8c-1.1,1.2-1.7,2.6-1.7,4.3
				c0,3.3,3,6.1,8.9,8.5c4.4,1.9,7.6,3.5,9.9,5c2.2,1.5,4.1,3.6,5.6,6.3c1.5,2.7,2.3,5.6,2.3,8.7c0,5.7-2.3,10.7-6.9,14.9
				c-4.6,4.2-10.1,6.3-16.3,6.3c-6.9,0-13.7-3.2-20.4-9.7l9.4-11c4.2,4.4,8.2,6.5,11.8,6.5c1.7,0,3.4-0.8,5-2.3
				c1.6-1.5,2.4-3.1,2.4-4.8c0-3.5-3.7-6.5-11-9.2c-4.2-1.5-7.2-3-8.9-4.3c-1.8-1.3-3.2-3.3-4.4-5.8c-1.2-2.5-1.8-5.2-1.8-7.8
				c0-5.9,1.9-10.7,5.8-14.4c3.8-3.7,8.9-5.5,15.1-5.5C763.6,183.8,769.7,186.1,774.7,190.7z"/>
		</g>
		<g class="st8">
			<path class="st9" d="M259.5,374.4c0-5.4,2-10.1,6.1-13.9c4.1-3.9,9-5.8,14.7-5.8c5.6,0,10.4,1.9,14.5,5.8c4,3.9,6.1,8.5,6.1,13.9
				c0,5.7-2,10.5-6,14.4c-4,3.9-8.9,5.9-14.7,5.9c-5.7,0-10.6-2-14.6-5.9C261.5,384.8,259.5,380,259.5,374.4z M295.4,374.6
				c0-4.1-1.5-7.6-4.5-10.5c-3-2.8-6.7-4.3-11-4.3c-4.1,0-7.7,1.4-10.7,4.3c-3,2.9-4.4,6.3-4.4,10.4c0,4.1,1.5,7.6,4.6,10.4
				s6.8,4.3,11.2,4.3c4,0,7.5-1.4,10.5-4.3C294,382,295.4,378.6,295.4,374.6z"/>
			<path class="st9" d="M307.2,355.8H328v5.1h-15.7v9.4H328v5.1h-15.7v18h-5.1V355.8z"/>
			<path class="st9" d="M333.6,355.8h20.8v5.1h-15.7v9.4h15.7v5.1h-15.7v18h-5.1V355.8z"/>
			<path class="st9" d="M360.3,355.8h5.1v37.5h-5.1V355.8z"/>
			<path class="st9" d="M404,357.1v5.8c-4-2-7.8-3-11.2-3c-4.4,0-8,1.4-11,4.2c-3,2.8-4.5,6.3-4.5,10.4c0,4.2,1.5,7.7,4.6,10.5
				c3.1,2.8,6.9,4.2,11.5,4.2c3.3,0,6.9-1.1,10.6-3.2v5.9c-3.4,1.8-7.1,2.7-11.1,2.7c-5.8,0-10.8-2-14.9-5.9s-6.2-8.7-6.2-14.2
				c0-5.5,2-10.1,6.1-14c4.1-3.9,8.9-5.8,14.7-5.8C396.3,354.6,400.1,355.5,404,357.1z"/>
			<path class="st9" d="M410,355.8h5.1v37.5H410V355.8z"/>
			<path class="st9" d="M437.4,354.4l17.7,39h-5.4l-4.4-9.6h-15.9l-4.3,9.6h-5.3L437.4,354.4z M437.3,366.1l-6,13.4h12.1
				L437.3,366.1z"/>
			<path class="st9" d="M460.5,355.8h5.1v32.5h12.2v5.1h-17.3V355.8z"/>
			<path class="st9" d="M522.6,360l-4.2,3.3c-1.1-1.1-2.1-2-3-2.5c-0.9-0.6-2.2-0.8-3.9-0.8c-1.8,0-3.3,0.4-4.5,1.2
				c-1.1,0.8-1.7,1.9-1.7,3.2c0,1.1,0.5,2.1,1.5,3c1,0.9,2.7,1.8,5.1,2.9c2.4,1,4.3,2,5.6,2.9c1.3,0.9,2.4,1.9,3.3,3
				c0.9,1.1,1.5,2.2,1.9,3.4s0.6,2.5,0.6,3.8c0,3.1-1.1,5.8-3.4,8c-2.3,2.2-5,3.3-8.2,3.3c-3.1,0-5.9-0.9-8.3-2.6
				c-2.4-1.7-4.3-4.3-5.6-7.7l5.1-1.4c1.9,4.2,4.7,6.3,8.6,6.3c1.9,0,3.4-0.6,4.7-1.7s1.9-2.5,1.9-4.2c0-1-0.3-2-1-3.1
				c-0.6-1-1.5-1.9-2.4-2.5c-1-0.7-2.5-1.4-4.6-2.3c-2.1-0.9-3.7-1.7-4.9-2.4c-1.1-0.7-2.1-1.6-2.9-2.6c-0.8-1-1.4-2-1.8-3
				c-0.4-1-0.6-2-0.6-3.2c0-2.7,1.1-5,3.2-6.9s4.8-2.8,7.9-2.8c2,0,4.1,0.4,6.2,1.3C519.5,356.8,521.2,358.2,522.6,360z"/>
			<path class="st9" d="M529.4,355.8h20.8v5.1h-15.7v9.4h15.7v5.1h-15.7v12.9h15.7v5.1h-20.8V355.8z"/>
			<path class="st9" d="M557,355.8h5.1v32.5h12.2v5.1H557V355.8z"/>
			<path class="st9" d="M579.1,355.8h20.8v5.1h-15.7v9.4h15.7v5.1h-15.7v12.9h15.7v5.1h-20.8V355.8z"/>
			<path class="st9" d="M636.3,357.1v5.8c-4-2-7.8-3-11.2-3c-4.4,0-8,1.4-11,4.2c-3,2.8-4.5,6.3-4.5,10.4c0,4.2,1.5,7.7,4.6,10.5
				c3.1,2.8,6.9,4.2,11.5,4.2c3.3,0,6.9-1.1,10.6-3.2v5.9c-3.4,1.8-7.1,2.7-11,2.7c-5.8,0-10.8-2-14.9-5.9
				c-4.1-3.9-6.2-8.7-6.2-14.2c0-5.5,2-10.1,6.1-14c4.1-3.9,8.9-5.8,14.7-5.8C628.6,354.6,632.4,355.5,636.3,357.1z"/>
			<path class="st9" d="M640.1,355.8h23v5.1h-9v32.4H649v-32.4h-8.9V355.8z"/>
			<path class="st9" d="M668.7,355.8h5.1v37.5h-5.1V355.8z"/>
			<path class="st9" d="M680.5,374.4c0-5.4,2-10.1,6.1-13.9s9-5.8,14.7-5.8c5.6,0,10.4,1.9,14.5,5.8c4,3.9,6.1,8.5,6.1,13.9
				c0,5.7-2,10.5-6,14.4c-4,3.9-8.9,5.9-14.7,5.9c-5.7,0-10.6-2-14.6-5.9C682.5,384.8,680.5,380,680.5,374.4z M716.4,374.6
				c0-4.1-1.5-7.6-4.5-10.5c-3-2.8-6.7-4.3-11-4.3c-4.1,0-7.7,1.4-10.7,4.3c-3,2.9-4.4,6.3-4.4,10.4c0,4.1,1.5,7.6,4.6,10.4
				s6.8,4.3,11.2,4.3c4,0,7.5-1.4,10.5-4.3C715,382,716.4,378.6,716.4,374.6z"/>
			<path class="st9" d="M728.3,354.3l27.8,28.5v-27h5.1v39.3l-27.8-28.4v26.7h-5.1V354.3z"/>
		</g>
		<g class="st8">
			<path class="st9" d="M284.1,283.8l12.1,27.7l11.3-26.2h5.3L296.2,324l-12.1-27.8L272,324l-16.7-38.7h5.3l11.4,26.5L284.1,283.8z"
				/>
			<path class="st9" d="M318.1,285.2h5.1v37.5h-5.1V285.2z"/>
			<path class="st9" d="M331.2,283.7l27.8,28.5v-27h5.1v39.3l-27.8-28.4v26.7h-5.1V283.7z"/>
			<path class="st9" d="M369.4,285.2h23v5.1h-9v32.4h-5.1v-32.4h-8.9V285.2z"/>
			<path class="st9" d="M397.7,285.2h20.8v5.1h-15.7v9.4h15.7v5.1h-15.7v12.9h15.7v5.1h-20.8V285.2z"/>
			<path class="st9" d="M425.4,285.2h8.1c4,0,7.3,1,9.9,3c2.5,2,3.8,4.6,3.8,7.7c0,2.5-0.8,4.7-2.5,6.7c-1.6,1.9-4.2,3.3-7.7,4.1
				l10.9,16.1h-5.9l-10.4-15.4h-1.1v15.4h-5.1V285.2z M430.5,289.8v13.1c7.6,0.2,11.3-2,11.3-6.6c0-1.6-0.4-2.9-1.3-3.9
				c-0.9-1-2.1-1.7-3.5-2.1C435.5,290,433.3,289.8,430.5,289.8z"/>
			<path class="st9" d="M494.3,289.4l-4.2,3.3c-1.1-1.1-2.1-2-3-2.5c-0.9-0.6-2.2-0.8-3.9-0.8c-1.8,0-3.3,0.4-4.5,1.2
				c-1.1,0.8-1.7,1.9-1.7,3.2c0,1.1,0.5,2.1,1.5,3c1,0.9,2.7,1.8,5.1,2.9c2.4,1,4.3,2,5.6,2.9c1.3,0.9,2.4,1.9,3.3,3
				c0.9,1.1,1.5,2.2,1.9,3.4s0.6,2.5,0.6,3.8c0,3.1-1.1,5.8-3.4,8c-2.3,2.2-5,3.3-8.2,3.3c-3.1,0-5.9-0.9-8.3-2.6
				c-2.4-1.7-4.3-4.3-5.6-7.7l5.1-1.4c1.9,4.2,4.7,6.3,8.6,6.3c1.9,0,3.4-0.6,4.7-1.7c1.2-1.1,1.9-2.5,1.9-4.2c0-1-0.3-2-1-3.1
				s-1.5-1.9-2.4-2.5c-1-0.7-2.5-1.4-4.6-2.3c-2.1-0.9-3.7-1.7-4.9-2.4c-1.1-0.7-2.1-1.6-2.9-2.6c-0.8-1-1.4-2-1.8-3
				c-0.4-1-0.6-2-0.6-3.2c0-2.7,1.1-5,3.2-6.9s4.8-2.8,7.9-2.8c2,0,4.1,0.4,6.2,1.3C491.2,286.3,492.9,287.6,494.3,289.4z"/>
			<path class="st9" d="M501.7,285.2h5.1v14.4h17.9v-14.4h5.1v37.5h-5.1v-18h-17.9v18h-5.1V285.2z"/>
		</g>
		<g class="st8">
			<path class="st9" d="M536.4,303.8c0-5.4,2-10.1,6.1-13.9s9-5.8,14.7-5.8c5.6,0,10.4,1.9,14.5,5.8c4,3.9,6.1,8.5,6.1,13.9
				c0,5.7-2,10.5-6,14.4c-4,3.9-8.9,5.9-14.7,5.9c-5.7,0-10.6-2-14.6-5.9C538.5,314.2,536.4,309.4,536.4,303.8z M572.4,304
				c0-4.1-1.5-7.6-4.5-10.5c-3-2.8-6.7-4.3-11-4.3c-4.1,0-7.7,1.4-10.7,4.3c-3,2.9-4.4,6.3-4.4,10.4c0,4.1,1.5,7.6,4.6,10.4
				s6.8,4.3,11.2,4.3c4,0,7.5-1.4,10.5-4.3C570.9,311.4,572.4,308,572.4,304z"/>
			<path class="st9" d="M608.4,283.8l12.1,27.7l11.3-26.2h5.3L620.5,324l-12.1-27.8L596.3,324l-16.7-38.7h5.3l11.4,26.5L608.4,283.8
				z"/>
		</g>
		<g class="st8">
			<path class="st9" d="M672.8,286.5v5.8c-4-2-7.8-3-11.2-3c-4.4,0-8,1.4-11,4.2c-3,2.8-4.5,6.3-4.5,10.4c0,4.2,1.5,7.7,4.6,10.5
				c3.1,2.8,6.9,4.2,11.5,4.2c3.3,0,6.9-1.1,10.6-3.2v5.9c-3.4,1.8-7.1,2.7-11,2.7c-5.8,0-10.8-2-14.9-5.9
				c-4.1-3.9-6.2-8.7-6.2-14.2c0-5.5,2-10.1,6.1-14c4.1-3.9,8.9-5.8,14.7-5.8C665.1,284.1,668.9,284.9,672.8,286.5z"/>
			<path class="st9" d="M692.9,283.8l17.7,39h-5.4l-4.4-9.6H685l-4.3,9.6h-5.3L692.9,283.8z M692.9,295.5l-6,13.4H699L692.9,295.5z"
				/>
			<path class="st9" d="M738.3,289.4l-4.2,3.3c-1.1-1.1-2.1-2-3-2.5c-0.9-0.6-2.2-0.8-3.9-0.8c-1.8,0-3.3,0.4-4.5,1.2
				c-1.1,0.8-1.7,1.9-1.7,3.2c0,1.1,0.5,2.1,1.5,3c1,0.9,2.7,1.8,5.1,2.9c2.4,1,4.3,2,5.6,2.9c1.3,0.9,2.4,1.9,3.3,3
				c0.9,1.1,1.5,2.2,1.9,3.4s0.6,2.5,0.6,3.8c0,3.1-1.1,5.8-3.4,8c-2.3,2.2-5,3.3-8.2,3.3c-3.1,0-5.9-0.9-8.3-2.6s-4.3-4.3-5.6-7.7
				l5.1-1.4c1.9,4.2,4.7,6.3,8.6,6.3c1.9,0,3.4-0.6,4.7-1.7s1.9-2.5,1.9-4.2c0-1-0.3-2-1-3.1c-0.6-1-1.5-1.9-2.4-2.5
				c-1-0.7-2.5-1.4-4.6-2.3c-2.1-0.9-3.7-1.7-4.9-2.4c-1.1-0.7-2.1-1.6-2.9-2.6s-1.4-2-1.8-3c-0.4-1-0.6-2-0.6-3.2
				c0-2.7,1.1-5,3.2-6.9s4.8-2.8,7.9-2.8c2,0,4.1,0.4,6.2,1.3C735.1,286.3,736.9,287.6,738.3,289.4z"/>
			<path class="st9" d="M745.1,285.2h20.8v5.1h-15.7v9.4h15.7v5.1h-15.7v12.9h15.7v5.1h-20.8V285.2z"/>
		</g>
		<g class="st8">
			<path class="st9" d="M454.4,449.2h15.5v5.4h-27.9l20.8-22.1c1.6-1.7,2.3-3.6,2.3-5.6c0-2.4-0.8-4.5-2.5-6.3
				c-1.6-1.8-3.6-2.7-5.8-2.7c-1.8,0-3.6,0.6-5.2,1.8c-1.6,1.2-2.7,3-3.2,5.4h-5.4c0.5-4,2.1-7.1,4.8-9.4c2.6-2.2,5.7-3.3,9.3-3.3
				c3.6,0,6.7,1.4,9.3,4.2c2.6,2.8,4,6.1,4,10c0,1.9-0.3,3.6-1,5.1c-0.7,1.5-1.9,3.2-3.6,5.1L454.4,449.2z"/>
			<path class="st9" d="M493.1,412.5c4.5,0,8.1,2,10.9,6s4.2,9.3,4.2,15.7c0,6.7-1.5,12-4.5,15.9c-3,4-6.7,5.9-10.9,5.9
				c-4.4,0-8.1-2-11-6.1c-2.9-4-4.4-9.2-4.4-15.5c0-6.9,1.5-12.4,4.5-16.2s6.6-5.8,10.8-5.8H493.1z M502.4,434.1
				c0-4.6-0.9-8.4-2.7-11.4c-1.8-3-4.1-4.5-6.9-4.5c-2.8,0-5.2,1.5-7,4.4c-1.8,2.9-2.7,6.8-2.7,11.6c0,4.8,0.9,8.6,2.7,11.5
				c1.8,2.9,4.2,4.3,7.1,4.3c2.8,0,5-1.5,6.8-4.4C501.5,442.8,502.4,438.9,502.4,434.1z"/>
			<path class="st9" d="M521.4,414H532v40.7h-5.5v-35.3h-7L521.4,414z"/>
			<path class="st9" d="M563,456.8l-4.4-3l9-13c-1.3,0.2-2.2,0.3-2.9,0.3c-4,0-7.4-1.4-10.2-4.1c-2.7-2.7-4.1-6.1-4.1-10.1
				c0-3.9,1.5-7.2,4.5-10.1c3-2.9,6.5-4.3,10.4-4.3c3.9,0,7.4,1.5,10.3,4.4c3,2.9,4.4,6.4,4.4,10.2c0,3.1-1,6.2-3,9.1L563,456.8z
				 M574.4,427.4c0-2.5-0.9-4.7-2.7-6.5c-1.8-1.8-3.9-2.7-6.3-2.7c-2.6,0-4.8,0.9-6.5,2.7c-1.8,1.8-2.6,4-2.6,6.7
				c0,2.4,0.9,4.5,2.8,6.3c1.9,1.7,4.1,2.6,6.7,2.6c2.4,0,4.5-0.9,6.1-2.6C573.6,432,574.4,429.9,574.4,427.4z"/>
		</g>
		<path class="st9" d="M234.8,481.7c2-20.5-7.1-38.3-7.1-38.3s-19.9,0.5-19.3,34.3c0.2,11.2,2.6,22.3,7.3,32.6
			c-10.6-6.5-20.6-13.8-30-22l-3.8-3.4c3-1.2,15.3-7.6,19-32.9c3-20.4-6.1-37.9-6.1-37.9l0,0c0,0-20.6,3-21.5,31.4
			c-0.7,21.1,4.6,33.6,6.9,38c-12-10.8-23.4-22.3-34-34.5c8.8-6.6,19.7-13.7,25.1-24.2c8.2-15.9,6.4-25.3,7.6-40
			c-10.5,3.1-21.8,6.1-29.8,28c-4.6,12.7-0.7,18.5-4.2,34.8c-8.5-9.8-16.3-20.2-23.3-31c9.8-4.4,21.3-7.2,29.9-20.8
			c9.6-15.2,7.6-15.3,16.3-40.2c-10.9,1-22.6,1.9-34.6,21.9c-6.9,11.6-6.1,21.8-12.7,37.5c-7.5-11.6-13.8-23.9-19-36.8
			c10.8-2.6,25.1-2.1,38.9-16.6c14.2-14.8,19.1-29.6,22.5-40.4c-10.9,1-27.7,0.5-40.9,17.9c-11.6,15.2-10.9,20-21.3,36.9
			c-1.4-3.7-2.7-7.4-3.9-11.2c-2.6-8.3-4.6-16.7-6-25.3c7.3-0.1,24.7-0.6,40.1-14.6c15.2-13.8,22.3-29.7,26.5-40.3
			c-10.9,0.1-26.8-3.2-43.5,15.5c-12.3,13.7-16.7,23.8-23.7,35.7c-2.3-15.1-3-30.4-2-45.7c6.4,0.2,26.4,1,44.5-12.1
			c16.6-12,24.7-28,30.1-38c-10.9-1.1-26.9-6.4-45.7,10.3c-14.3,12.8-19.9,25.6-28.8,37.6c0.4-5.8,1.1-11.6,1.9-17.3
			c1.8-11.5,4.5-22.8,8-33.8c6.5,1.3,21.8,3.7,41.5-3.4c21.2-7.7,33.1-29,36-34.2c-10.5-3.1-23.1-7-46.1,4.7
			c-13.7,7-23.3,17.4-28.7,24.5c4.3-12.7,9.2-25,14-36.9c6.1,1.7,21.4,5.6,42.1-0.3c21.7-6.1,35.1-26.6,38.4-31.5
			c-10.2-3.8-22.4-8.6-46.3,1.4c-14.7,6.2-25.2,16.4-31,23.2c6.9-15.4,15.3-30,25.1-43.7c4.3,2.1,13.6,6.9,35.6,4.8
			c28-2.6,39.6-20.4,39.6-20.4c-9.5-5.5-18.7-9-37.8-5.6c-12.4,2.2-24,7.7-33.7,15.8c8.3-11.5,16.9-22.8,26-33.8
			c4.6,2,16.6,6.8,39,4.7c28-2.6,42.6-21.3,42.6-21.3c-9.5-5.5-24.2-8.6-43.4-5.3c-11.9,2.2-23.1,7.4-32.6,15
			c6-7.1,12.2-14.1,18.6-20.8c3-3.2,6.3-6.3,9.7-9.3c6.6,0.1,30.7-0.2,43.6-7.7c16.8-9.8,33.4-31,34.7-37.2c0,0-26.5-11.6-51.2,9.6
			c-15.1,13-23.7,25.7-27.1,32c-3.3,2.9-6.4,5.9-9.4,9c-3.3,3.5-6.6,7-9.9,10.6c4.6-7.2,9.9-17.5,12-29.4c3.4-19.1,0-40-3.6-45.2
			c0,0-20.7,12.9-22.2,45.4c-1,22.3,3.3,34,5.3,38.6c-10.4,11.8-20.6,24.2-30,36.6c4.2-8,9.9-20.7,12.1-33.8
			c3.4-20.5-4.9-42.8-6.7-44.8c0,0-21.7,9.5-20.9,46.1c0.2,13.9,3.6,27.5,9.9,39.9c-0.8,1-1.5,2-2.2,3
			c-8.4,11.7-16.2,23.8-23.3,36.2c2.5-8,5.9-21.6,5.2-35.6c-1.6-30.6-22.4-43.6-22.9-43.6c0,0-20,18.1-8.5,56.9
			c5.8,19.8,18.5,27.2,22.4,29.1c-2.7,4.9-5.1,9.6-7.1,13.9c-4.8,10.4-8.7,19.4-12.1,28.4c1.1-8.6,1.8-20.2,0.4-31.5
			c-4.2-33.1-29.9-40.1-30.4-40c0,0-8.8,30.6,3.7,56.8c9.8,20.4,18.1,26,21.8,27.6c-2.3,7.4-4.5,15.1-6.5,24
			c-1.3,5.8-2.4,11.6-3.3,17.4c-0.4-9.9-1.9-25-6.3-37.6c-10.1-29.1-37.7-34.9-38.2-34.8c0,0-4.5,31.2,11.5,55.4
			c14,21.2,27.3,26.3,31.6,27.4c-1.6,16.3-1.5,32.7,0.4,49c-5.7-10.3-7.8-28.8-18.5-44.2c-17.5-25.4-46.4-23.6-46.8-23.3
			c0,0,3.1,31.6,25,50.8c17.9,15.7,34.3,19.9,40.8,21c1.2,9,2.9,18,5,26.9c0.4,1.5,0.8,3,1.2,4.5c-5.2-7-19.5-24.5-38.8-33.8
			c-23.9-11.5-41.3-1.7-41.7-1.3c0,0,12.2,22.4,34.8,33.1c26.1,12.4,42.4,7.4,46.7,5.6c3.7,12.1,8.8,23.8,15.1,34.9
			c-6.3-5.7-20.5-17.2-38.3-22.6c-31.5-9.7-46.4,9.3-46.8,9.8c0,0,12.9,16.3,39.9,23.4c30.5,8.1,44.2-2.6,47.8-6.1
			c9.6,15.8,20.7,30.6,33.2,44.1c-7.1-5.5-21.8-15.9-36.2-19.5c-34.6-8.7-46,11.5-46,11.5S69,466.2,96.7,473
			c28.5,7,42.7-6.8,45.5-9.9c10,10.7,20.6,20.8,31.2,30.3c-5.5-2.4-23.4-9.5-40.6-9.4c-35.6,0.3-37.8,19.2-37.8,19.2
			s12.9,9.3,41.4,8.9c29.4-0.4,37.1-14.4,38.4-17.4l2.1,1.9c11.6,10.1,24.3,18.9,37.7,26.4c-8.2-2.2-26.5-6.3-41.9-4.5
			c-32.4,3.8-35.4,24-35.4,24s13,8.1,40.9,5c28.4-3.1,38.2-18.3,40.3-22.3c22.2,12.3,46,21.8,68,29.7l3.8-10
			c-23.5-8.4-47.8-18.6-70.1-31.8C224.4,509.9,232.9,501.3,234.8,481.7z"/>
		<polygon class="st9" points="227.7,443.4 227.7,443.4 227.7,443.4 		"/>
		<path class="st9" d="M957.7,387.7c-17.8,5.5-32,17-38.3,22.7c6.3-11.1,11.3-22.8,15.1-34.9c4.3,1.8,20.7,6.8,46.8-5.6
			c22.5-10.7,34.8-33.1,34.8-33.1c-0.4-0.4-17.8-10.2-41.7,1.3c-19.3,9.3-33.6,26.8-38.8,33.8c0.4-1.5,0.8-3,1.2-4.6
			c2.1-8.9,3.8-17.8,5-26.9c6.5-1.1,22.8-5.4,40.8-21.1c21.9-19.1,25-50.8,25-50.8c-0.4-0.2-29.3-2.1-46.8,23.3
			c-10.6,15.4-12.7,33.9-18.5,44.2c1.8-16.3,2-32.7,0.4-49c4.3-1.1,17.7-6.2,31.7-27.4c16-24.3,11.5-55.4,11.5-55.4
			c-0.5-0.1-28.1,5.6-38.2,34.8c-4.4,12.7-5.8,27.9-6.3,37.8c-0.9-5.9-1.9-11.8-3.3-17.6c-2-8.9-4.1-16.6-6.5-23.9
			c3.7-1.5,12.1-7.2,21.9-27.6c12.5-26.2,3.7-56.8,3.7-56.8c-0.5-0.1-26.2,6.9-30.4,40c-1.5,11.4-0.7,23.1,0.4,31.7
			c-3.4-9.1-7.3-18.1-12.1-28.6c-2-4.3-4.4-9-7.1-13.9c3.9-1.9,16.5-9.4,22.4-29.2c11.5-38.9-8.5-56.9-8.5-56.9
			c-0.5,0-21.3,13-22.8,43.6c-0.7,14.1,2.7,27.7,5.2,35.7c-7.2-12.5-15-24.7-23.5-36.4c-0.7-1-1.5-2-2.2-3c6.3-12.4,9.7-26.1,9.9-40
			c0.8-36.5-20.9-46-20.9-46c-1.8,2-10.1,24.3-6.7,44.8c2.2,13.1,7.9,25.8,12.1,33.8c-9.5-12.4-19.6-24.7-30-36.5
			c2-4.6,6.3-16.3,5.3-38.7C846.8,18.9,826.1,6,826.1,6c-3.6,5.2-7.1,26-3.6,45.2c2.2,12,7.5,22.3,12.1,29.5
			c-3.3-3.6-6.7-7.2-10-10.7c-2.9-3.1-6.1-6-9.3-8.9c-3.4-6.2-12-19-27.2-32c-24.7-21.2-51.2-9.6-51.2-9.6
			c1.3,6.2,17.8,27.4,34.7,37.2c12.9,7.5,36.9,7.8,43.5,7.7c3.4,3,6.7,6.1,9.7,9.3c6.3,6.7,12.5,13.7,18.5,20.7
			c-9.4-7.6-20.6-12.8-32.5-15c-19.2-3.4-33.9-0.3-43.4,5.3c0,0,14.6,18.7,42.6,21.3c22.4,2.1,34.4-2.7,39-4.7
			c9.1,11,17.8,22.3,26,33.8c-9.6-8.2-21.3-13.7-33.7-15.9c-19.2-3.4-28.4,0.1-37.8,5.6c0,0,11.7,17.8,39.6,20.4
			c22.2,2,31.5-2.8,35.7-4.8c9.8,13.7,18.2,28.4,25.1,43.7c-5.8-6.7-16.3-16.9-31-23.1c-23.8-10-36.1-5.2-46.4-1.4
			c3.3,4.9,16.7,25.4,38.4,31.5c20.6,5.8,36,2,42.1,0.3c4.9,11.9,9.8,24.3,14.1,37c-5.4-7.1-15-17.6-28.7-24.6
			c-23.1-11.7-35.6-7.8-46.1-4.7c2.9,5.1,14.8,26.5,36,34.2c19.7,7.1,35,4.6,41.5,3.4c3.5,11.1,6.2,22.4,8,33.8
			c0.9,5.8,1.6,11.5,2,17.3c-8.9-12-14.5-24.9-28.8-37.7c-18.7-16.7-34.8-11.4-45.7-10.3c5.4,10.1,13.4,26,30.1,38
			c18.2,13.1,38.2,12.3,44.5,12.1c1,15.3,0.3,30.6-2,45.7c-6.9-11.9-11.4-22-23.7-35.6c-16.7-18.7-32.6-15.4-43.5-15.5
			c4.2,10.6,11.3,26.5,26.5,40.3c15.4,14,32.8,14.5,40.1,14.6c-1.4,8.5-3.5,17-6,25.3c-1.2,3.8-2.5,7.5-3.9,11.2
			c-10.5-16.8-9.7-21.6-21.4-36.9c-13.2-17.3-30-16.8-40.9-17.8c3.3,10.9,8.3,25.7,22.5,40.5c13.8,14.5,28.1,14,38.9,16.6
			c-5.2,12.8-11.5,25.1-19,36.8c-6.6-15.6-5.8-25.9-12.7-37.5c-11.9-20-23.7-20.9-34.5-21.9c8.7,24.9,6.7,25,16.3,40.2
			c8.6,13.7,20.1,16.4,29.9,20.8c-7.1,10.8-14.9,21.2-23.4,31c-3.5-16.4,0.4-22.1-4.2-34.8c-7.9-21.9-19.3-25-29.8-28
			c1.2,14.7-0.6,24,7.6,40c5.5,10.5,16.4,17.6,25.2,24.2c-10.6,12.2-22,23.7-34,34.5c2.3-4.3,7.6-16.9,6.9-38
			c-1-28.5-21.6-31.5-21.6-31.5l0,0c0,0-9.1,17.6-6.1,37.9c3.8,25.3,16.1,31.7,19,32.9l-3.8,3.4c-9.4,8.2-19.4,15.5-30,22
			c4.6-10.2,7.1-21.3,7.3-32.6c0.6-33.8-19.3-34.3-19.3-34.3l0,0c0,0-9.1,17.8-7.1,38.3c1.9,19.6,10.4,28.2,14.6,31.3
			c-22.3,13.2-46.7,23.4-70.1,31.8l3.8,10c22-7.9,45.8-17.4,68-29.7c2,3.9,11.8,19.2,40.3,22.3c27.9,3.1,41-5,41-5s-3-20.2-35.5-24
			c-15.4-1.8-33.9,2.4-42,4.5c13.4-7.5,26.1-16.4,37.7-26.4l2.1-1.9c1.3,3,9,17,38.4,17.4c28.5,0.4,41.4-8.9,41.4-8.9
			s-2.1-18.9-37.8-19.2c-17.1-0.1-35,7-40.5,9.4c10.7-9.5,21.3-19.6,31.3-30.3c2.7,3,17,16.9,45.5,10c27.7-6.8,40.6-22.2,40.6-22.2
			s-11.5-20.1-46-11.5c-14.5,3.6-29.4,14.2-36.4,19.7c12.6-13.6,23.8-28.4,33.4-44.3c3.5,3.5,17.2,14.2,47.8,6.1
			c27-7.1,39.9-23.4,39.9-23.4C1004.1,397,989.3,378,957.7,387.7z"/>
	</g>
</g>
</svg>
