<?xml version="1.0" encoding="utf-8"?>
<!-- Generator: Adobe Illustrator 22.1.0, SVG Export Plug-In . SVG Version: 6.00 Build 0)  -->
<svg version="1.1" id="Layer_1" xmlns="http://www.w3.org/2000/svg" xmlns:xlink="http://www.w3.org/1999/xlink" x="0px" y="0px"
	 viewBox="0 0 1022 560.8" style="enable-background:new 0 0 1022 560.8;" xml:space="preserve">
<style type="text/css">
	.st0{enable-background:new    ;}
	.st1{fill:#203F79;}
	.st2{fill:#EEEEEE;}
</style>
<title>Award_Indies19</title>
<g id="Layer_2_1_">
	<g id="Layer_2-2">
		<g class="st0">
			<g>
				<path class="st1" d="M262.3,257.2H248c-3.3,0-6-2.7-6-6v-66.5c0-3.3,2.7-6,6-6h14.3c3.3,0,6,2.7,6,6v66.5
					C268.3,254.5,265.6,257.2,262.3,257.2z M254,245.2h2.3v-54.5H254V245.2z"/>
			</g>
			<g>
				<path class="st1" d="M333.6,257.2h-14c-1.9,0-3.8-0.9-4.9-2.5L295.2,227v24.1c0,3.3-2.7,6-6,6h-14.3c-3.3,0-6-2.7-6-6v-66.5
					c0-3.3,2.7-6,6-6h14.2c1.9,0,3.8,0.9,4.9,2.5l19.6,27.5v-24c0-3.3,2.7-6,6-6h14c3.3,0,6,2.7,6,6v66.5
					C339.6,254.5,336.9,257.2,333.6,257.2z M322.7,245.2h4.9v-54.5h-2v36.7c0,2.6-1.7,4.9-4.2,5.7c-2.5,0.8-5.2-0.1-6.7-2.2
					L286,190.7h-5.1v54.5h2.3v-37c0-2.6,1.7-4.9,4.2-5.7c2.5-0.8,5.2,0.1,6.7,2.3L322.7,245.2z"/>
			</g>
		</g>
		<g class="st0">
			<g>
				<path class="st1" d="M368.1,257.2h-21.5c-3.3,0-6-2.7-6-6v-66.5c0-3.3,2.7-6,6-6h22.7c11.3,0,20.7,3.7,27.7,11
					c7,7.2,10.5,16.8,10.5,28.3c0,11.6-3.7,21.2-10.9,28.4C389.5,253.5,379.8,257.2,368.1,257.2z M352.7,245.2h15.5
					c8.6,0,15.1-2.4,20.1-7.3c5-4.9,7.4-11.4,7.4-19.8c0-8.5-2.3-15-7.2-20c-4.8-4.9-11-7.3-19.1-7.3h-16.7V245.2z M366.8,244.3
					h-5.7c-3.3,0-6-2.7-6-6v-41.1c0-3.3,2.7-6,6-6h5.3c3.8,0,7.8,0.7,11.9,2.1c4.9,1.7,8.7,4.9,11.2,9.6c2.3,4.2,3.5,9.1,3.5,14.4
					c0,9.3-2.6,16.2-7.8,20.6C380.2,242.2,374.1,244.3,366.8,244.3z M367.1,203.2v29c4.3-0.1,7.7-1.2,10.3-3.4
					c2.4-2,3.6-5.9,3.6-11.5c0-3.4-0.7-6.2-2-8.7c-1.1-2-2.6-3.3-4.6-4C371.8,203.8,369.3,203.3,367.1,203.2z"/>
			</g>
		</g>
		<g class="st0">
			<g>
				<path class="st1" d="M438.9,257.2h-14.2c-3.3,0-6-2.7-6-6v-29.4l-20.3-34c-1.1-1.9-1.1-4.2-0.1-6c1.1-1.9,3.1-3,5.2-3h15.9
					c2.1,0,4.1,1.1,5.2,2.9l7.1,12l7.3-12c1.1-1.8,3-2.9,5.1-2.9h15.9c2.2,0,4.2,1.2,5.2,3c1.1,1.9,1,4.2-0.1,6l-20.3,34v29.4
					C444.9,254.5,442.2,257.2,438.9,257.2z M430.7,245.2h2.2v-25.1c0-1.1,0.3-2.1,0.9-3.1l15.7-26.3h-2l-10.7,17.7
					c-1.1,1.8-3,2.9-5.2,2.9c-2.1,0-4.1-1.1-5.1-2.9L416,190.7h-1.9l15.7,26.3c0.6,0.9,0.9,2,0.9,3.1V245.2z"/>
			</g>
			<g>
				<path class="st1" d="M510.3,257.2H496c-3.3,0-6-2.7-6-6v-66.5c0-3.3,2.7-6,6-6h14.3c3.3,0,6,2.7,6,6v66.5
					C516.3,254.5,513.6,257.2,510.3,257.2z M502,245.2h2.3v-54.5H502V245.2z"/>
			</g>
			<g>
				<path class="st1" d="M581.6,257.2h-14c-1.9,0-3.8-0.9-4.9-2.5L543.3,227v24.1c0,3.3-2.7,6-6,6h-14.3c-3.3,0-6-2.7-6-6v-66.5
					c0-3.3,2.7-6,6-6h14.2c1.9,0,3.8,0.9,4.9,2.5l19.6,27.5v-24c0-3.3,2.7-6,6-6h14c3.3,0,6,2.7,6,6v66.5
					C587.6,254.5,584.9,257.2,581.6,257.2z M570.8,245.2h4.9v-54.5h-2v36.7c0,2.6-1.7,4.9-4.2,5.7c-2.5,0.8-5.2-0.1-6.7-2.2
					L534,190.7h-5.1v54.5h2.3v-37c0-2.6,1.7-4.9,4.2-5.7c2.5-0.8,5.2,0.1,6.7,2.3L570.8,245.2z"/>
			</g>
			<g>
				<path class="st1" d="M616.1,257.2h-21.5c-3.3,0-6-2.7-6-6v-66.5c0-3.3,2.7-6,6-6h22.7c11.3,0,20.7,3.7,27.7,11
					c7,7.2,10.5,16.8,10.5,28.3c0,11.6-3.7,21.2-10.9,28.4C637.5,253.5,627.9,257.2,616.1,257.2z M600.7,245.2h15.5
					c8.6,0,15.1-2.4,20.1-7.3c5-4.9,7.4-11.4,7.4-19.8c0-8.5-2.3-15-7.2-20c-4.8-4.9-11-7.3-19.1-7.3h-16.7V245.2z M614.8,244.3
					h-5.7c-3.3,0-6-2.7-6-6v-41.1c0-3.3,2.7-6,6-6h5.3c3.8,0,7.8,0.7,11.9,2.1c4.9,1.7,8.7,4.9,11.2,9.6c2.3,4.2,3.5,9.1,3.5,14.4
					c0,9.3-2.6,16.2-7.8,20.6C628.3,242.2,622.1,244.3,614.8,244.3z M615.1,203.2v29c4.3-0.1,7.7-1.2,10.3-3.4
					c2.4-2,3.6-5.9,3.6-11.5c0-3.4-0.7-6.2-2-8.7c-1.1-2-2.6-3.3-4.6-4C619.8,203.8,617.4,203.3,615.1,203.2z"/>
			</g>
			<g>
				<path class="st1" d="M674.4,257.2h-14.3c-3.3,0-6-2.7-6-6v-66.5c0-3.3,2.7-6,6-6h14.3c3.3,0,6,2.7,6,6v66.5
					C680.4,254.5,677.7,257.2,674.4,257.2z M666.1,245.2h2.3v-54.5h-2.3V245.2z"/>
			</g>
			<g>
				<path class="st1" d="M725.3,257.2h-37.4c-3.3,0-6-2.7-6-6v-66.5c0-3.3,2.7-6,6-6h37.4c3.3,0,6,2.7,6,6v13.2c0,3.3-2.7,6-6,6
					h-17.1v1.4h17.1c3.3,0,6,2.7,6,6v13c0,3.3-2.7,6-6,6h-17.1v1.8h17.1c3.3,0,6,2.7,6,6v13.2C731.3,254.5,728.6,257.2,725.3,257.2z
					 M693.8,245.2h25.4V244h-17.1c-3.3,0-6-2.7-6-6v-13.8c0-3.3,2.7-6,6-6h17.1v-1h-17.1c-3.3,0-6-2.7-6-6v-13.4c0-3.3,2.7-6,6-6
					h17.1v-1.2h-25.4V245.2z"/>
			</g>
			<g>
				<path class="st1" d="M753.3,258.1c-8.5,0-16.7-3.8-24.6-11.4c-2.3-2.2-2.5-5.8-0.4-8.2l9.4-11c1.1-1.3,2.7-2,4.4-2.1
					c1.7,0,3.3,0.6,4.5,1.8c2.9,3,5.6,4.7,7.5,4.7c0,0,0.3-0.1,0.8-0.6c0.2-0.2,0.3-0.3,0.4-0.4c-0.6-0.6-2.3-2-6.9-3.6
					c-4.8-1.8-8.3-3.4-10.5-5.2c-2.5-1.9-4.6-4.6-6.2-8c-1.6-3.3-2.4-6.8-2.4-10.4c0-7.6,2.6-13.9,7.6-18.7c5-4.8,11.5-7.2,19.2-7.2
					c8.9,0,16.5,2.9,22.6,8.5c2.4,2.2,2.6,6,0.4,8.4l-8.9,9.8c-1.9,2.1-5,2.6-7.5,1.1c-4-2.4-6-3-6.8-3.2c0.4,0.5,1.7,1.6,5,2.9
					c0,0,0.1,0,0.1,0c4.7,2,8.3,3.9,10.9,5.6c3,2,5.5,4.8,7.5,8.3c2,3.6,3,7.5,3,11.6c0,7.4-3,13.9-8.9,19.3
					C767.9,255.4,761.1,258.1,753.3,258.1z M741.3,241.7c4.1,2.9,8,4.4,11.9,4.4c4.8,0,8.8-1.6,12.3-4.8c3.4-3.1,5-6.4,5-10.5
					c0-2.1-0.5-3.9-1.5-5.7c-1-1.9-2.3-3.2-3.7-4.2c-1.9-1.3-4.9-2.8-8.8-4.5c-8.4-3.4-12.6-8.1-12.6-14c0-3.2,1.2-6.1,3.4-8.4
					c2.3-2.4,5.2-3.6,8.4-3.6c2.4,0,5.2,0.8,8.9,2.6l1.1-1.2c-2.8-1.3-5.9-2-9.5-2c-4.6,0-8.2,1.3-10.9,3.9c-2.7,2.6-3.9,5.7-3.9,10
					c0,1.8,0.4,3.5,1.2,5.3c0.8,1.7,1.7,2.9,2.6,3.6c0.7,0.5,2.6,1.7,7.3,3.4c3.7,1.3,14.9,5.4,14.9,14.8c0,2.3-0.7,5.8-4.2,9.1
					c-3.4,3.3-6.8,4-9.1,4c-3.7,0-7.5-1.4-11.2-4L741.3,241.7z"/>
			</g>
		</g>
		<g class="st0">
			<g>
				<path class="st1" d="M280.2,400.6c-7.3,0-13.7-2.6-18.8-7.6c-5.2-5.1-7.8-11.4-7.8-18.6c0-7.1,2.7-13.3,8-18.3
					c5.2-4.9,11.6-7.4,18.9-7.4c7.2,0,13.4,2.5,18.6,7.5c5.2,5.1,7.9,11.2,7.9,18.2c0,7.3-2.6,13.6-7.8,18.7
					C293.9,398.1,287.6,400.6,280.2,400.6z M279.9,365.9c-2.6,0-4.6,0.8-6.5,2.6c-1.8,1.7-2.6,3.7-2.6,6.1c0,2.5,0.8,4.3,2.6,6
					c1.9,1.8,4.2,2.6,7.1,2.6c2.5,0,4.5-0.8,6.3-2.6c1.8-1.8,2.6-3.7,2.6-6c0-2.5-0.8-4.4-2.6-6.1
					C284.9,366.7,282.8,365.9,279.9,365.9z"/>
			</g>
			<g>
				<path class="st1" d="M312.3,399.3h-5.1c-3.3,0-6-2.7-6-6v-37.5c0-3.3,2.7-6,6-6H328c3.3,0,6,2.7,6,6v5.1c0,1.9-0.9,3.6-2.3,4.7
					c1.4,1.1,2.3,2.8,2.3,4.7v5.1c0,3.3-2.7,6-6,6h-9.7v12C318.3,396.7,315.6,399.3,312.3,399.3z"/>
			</g>
			<g>
				<path class="st1" d="M338.7,399.3h-5.1c-3.3,0-6-2.7-6-6v-37.5c0-3.3,2.7-6,6-6h20.8c3.3,0,6,2.7,6,6v5.1c0,1.9-0.9,3.6-2.3,4.7
					c1.4,1.1,2.3,2.8,2.3,4.7v5.1c0,3.3-2.7,6-6,6h-9.7v12C344.7,396.7,342,399.3,338.7,399.3z"/>
			</g>
			<g>
				<path class="st1" d="M365.4,399.3h-5.1c-3.3,0-6-2.7-6-6v-37.5c0-3.3,2.7-6,6-6h5.1c3.3,0,6,2.7,6,6v37.5
					C371.4,396.7,368.7,399.3,365.4,399.3z"/>
			</g>
			<g>
				<path class="st1" d="M393,400.6c-7.4,0-13.8-2.5-19.1-7.6c-5.3-5.1-8-11.3-8-18.6c0-7.1,2.7-13.3,7.9-18.3
					c5.2-5,11.5-7.5,18.8-7.5c4.5,0,9.1,1,13.7,2.9c2.2,0.9,3.7,3.1,3.7,5.5v5.8c0,2.1-1.1,4-2.8,5.1c-1.8,1.1-4,1.2-5.8,0.3
					c-3.2-1.6-6.1-2.4-8.5-2.4c-2.8,0-5,0.8-6.9,2.6c-1.8,1.7-2.6,3.5-2.6,6c0,2.5,0.8,4.4,2.6,6c2,1.8,4.3,2.6,7.4,2.6
					c2.3,0,4.9-0.8,7.7-2.4c1.9-1,4.1-1,6,0c1.8,1.1,3,3,3,5.2v5.9c0,2.2-1.2,4.3-3.2,5.3C402.6,399.5,397.9,400.6,393,400.6z"/>
			</g>
			<g>
				<path class="st1" d="M415.1,399.3H410c-3.3,0-6-2.7-6-6v-37.5c0-3.3,2.7-6,6-6h5.1c3.3,0,6,2.7,6,6v37.5
					C421.1,396.7,418.4,399.3,415.1,399.3z"/>
			</g>
			<g>
				<path class="st1" d="M455.1,399.3h-5.4c-2.4,0-4.5-1.4-5.5-3.5l-2.8-6.1h-8.2l-2.7,6.1c-1,2.2-3.1,3.5-5.5,3.5h-5.3
					c-2,0-3.9-1-5-2.7c-1.1-1.7-1.3-3.9-0.4-5.7l17.6-39c1-2.1,3.1-3.5,5.5-3.5c0,0,0,0,0,0c2.4,0,4.5,1.4,5.5,3.5l17.7,39
					c0.8,1.9,0.7,4-0.4,5.7C459,398.3,457.1,399.3,455.1,399.3z"/>
			</g>
			<g>
				<path class="st1" d="M477.8,399.3h-17.3c-3.3,0-6-2.7-6-6v-37.5c0-3.3,2.7-6,6-6h5.1c3.3,0,6,2.7,6,6v26.5h6.2c3.3,0,6,2.7,6,6
					v5.1C483.8,396.7,481.1,399.3,477.8,399.3z"/>
			</g>
			<g>
				<path class="st1" d="M511.9,400.6c-4.4,0-8.4-1.2-11.8-3.7c-3.4-2.4-6-5.9-7.7-10.5c-0.6-1.6-0.5-3.3,0.3-4.8
					c0.8-1.5,2.1-2.6,3.7-3.1l4.6-1.3c-1.2-0.9-2.2-1.8-3.1-2.9c-1.2-1.5-2.2-3-2.8-4.6c-0.7-1.7-1-3.5-1-5.3
					c0-4.4,1.8-8.4,5.3-11.4c3.3-2.9,7.3-4.3,11.8-4.3c2.8,0,5.7,0.6,8.5,1.8c3.1,1.3,5.6,3.3,7.7,5.9c2,2.6,1.6,6.3-1,8.3l-4.2,3.3
					c-0.2,0.2-0.5,0.4-0.7,0.5c1.6,1.2,3,2.5,4.2,3.9c1.3,1.6,2.3,3.3,2.9,5.2c0.6,1.8,1,3.8,1,5.8c0,4.7-1.8,9-5.2,12.3
					C520.9,398.9,516.6,400.6,511.9,400.6z M509.1,381.4c1,1.8,1.9,1.8,2.6,1.8c0.1,0,0.2,0,0.3,0c-0.2-0.2-0.4-0.4-0.6-0.6
					C511.2,382.5,510.6,382.1,509.1,381.4z"/>
			</g>
			<g>
				<path class="st1" d="M550.2,399.3h-20.8c-3.3,0-6-2.7-6-6v-37.5c0-3.3,2.7-6,6-6h20.8c3.3,0,6,2.7,6,6v5.1
					c0,1.9-0.9,3.6-2.3,4.7c1.4,1.1,2.3,2.8,2.3,4.7v5.1c0,3.3-2.7,6-6,6h-9.7v0.9h9.7c3.3,0,6,2.7,6,6v5.1
					C556.2,396.7,553.5,399.3,550.2,399.3z"/>
			</g>
			<g>
				<path class="st1" d="M574.3,399.3H557c-3.3,0-6-2.7-6-6v-37.5c0-3.3,2.7-6,6-6h5.1c3.3,0,6,2.7,6,6v26.5h6.2c3.3,0,6,2.7,6,6
					v5.1C580.3,396.7,577.6,399.3,574.3,399.3z"/>
			</g>
			<g>
				<path class="st1" d="M599.9,399.3h-20.8c-3.3,0-6-2.7-6-6v-37.5c0-3.3,2.7-6,6-6h20.8c3.3,0,6,2.7,6,6v5.1
					c0,1.9-0.9,3.6-2.3,4.7c1.4,1.1,2.3,2.8,2.3,4.7v5.1c0,3.3-2.7,6-6,6h-9.7v0.9h9.7c3.3,0,6,2.7,6,6v5.1
					C605.9,396.7,603.2,399.3,599.9,399.3z"/>
			</g>
			<g>
				<path class="st1" d="M625.2,400.6c-7.4,0-13.8-2.5-19.1-7.6c-5.3-5.1-8-11.3-8-18.6c0-7.1,2.7-13.3,7.9-18.3
					c5.2-5,11.5-7.5,18.8-7.5c4.5,0,9.1,1,13.7,2.9c2.2,0.9,3.7,3.1,3.7,5.5v5.8c0,2.1-1.1,4-2.8,5.1s-4,1.2-5.8,0.3
					c-3.2-1.6-6.1-2.4-8.5-2.4c-2.8,0-5,0.8-6.9,2.6c-1.8,1.7-2.6,3.5-2.6,6c0,2.5,0.8,4.4,2.6,6c2,1.8,4.3,2.6,7.4,2.6
					c2.3,0,4.9-0.8,7.7-2.4c1.9-1,4.1-1,6,0c1.8,1.1,3,3,3,5.2v5.9c0,2.2-1.2,4.3-3.2,5.3C634.8,399.5,630.2,400.6,625.2,400.6z"/>
			</g>
			<g>
				<path class="st1" d="M654.1,399.3H649c-3.3,0-6-2.7-6-6v-26.4h-2.9c-3.3,0-6-2.7-6-6v-5.1c0-3.3,2.7-6,6-6h23c3.3,0,6,2.7,6,6
					v5.1c0,3.3-2.7,6-6,6h-3v26.4C660.1,396.7,657.4,399.3,654.1,399.3z"/>
			</g>
			<g>
				<path class="st1" d="M673.8,399.3h-5.1c-3.3,0-6-2.7-6-6v-37.5c0-3.3,2.7-6,6-6h5.1c3.3,0,6,2.7,6,6v37.5
					C679.8,396.7,677.1,399.3,673.8,399.3z"/>
			</g>
			<g>
				<path class="st1" d="M701.2,400.6c-7.3,0-13.7-2.6-18.8-7.6c-5.2-5.1-7.8-11.4-7.8-18.6c0-7.1,2.7-13.3,8-18.3
					c5.2-4.9,11.6-7.4,18.9-7.4c7.2,0,13.4,2.5,18.6,7.5c5.2,5.1,7.9,11.2,7.9,18.2c0,7.3-2.6,13.6-7.8,18.7
					C714.9,398.1,708.6,400.6,701.2,400.6z M700.9,365.9c-2.6,0-4.6,0.8-6.5,2.6c-1.8,1.7-2.6,3.7-2.6,6.1c0,2.5,0.8,4.3,2.6,6
					c1.9,1.8,4.2,2.6,7.1,2.6c2.5,0,4.5-0.8,6.3-2.6c1.8-1.8,2.6-3.7,2.6-6c0-2.5-0.8-4.4-2.6-6.1
					C706,366.7,703.8,365.9,700.9,365.9z"/>
			</g>
			<g>
				<path class="st1" d="M761.2,401.1c-1.6,0-3.1-0.6-4.3-1.8l-17.5-17.9v11.9c0,3.3-2.7,6-6,6h-5.1c-3.3,0-6-2.7-6-6v-39
					c0-2.4,1.5-4.6,3.7-5.6c2.3-0.9,4.9-0.4,6.6,1.4l17.5,17.9v-12.3c0-3.3,2.7-6,6-6h5.1c3.3,0,6,2.7,6,6v39.3
					c0,2.4-1.5,4.6-3.7,5.6C762.7,400.9,761.9,401.1,761.2,401.1z"/>
			</g>
		</g>
		<g class="st0">
			<g>
				<path class="st1" d="M296.2,330c-2.4,0-4.5-1.4-5.5-3.6l-6.6-15.1l-6.6,15.1c-1,2.2-3.1,3.6-5.5,3.6c0,0,0,0,0,0
					c-2.4,0-4.6-1.4-5.5-3.6l-16.7-38.7c-0.8-1.9-0.6-4,0.5-5.7c1.1-1.7,3-2.7,5-2.7h5.3c2.4,0,4.6,1.4,5.5,3.6l5.9,13.7l6.5-15.2
					c0.9-2.2,3.1-3.6,5.5-3.6c0,0,0,0,0,0c2.4,0,4.5,1.4,5.5,3.6l6.6,15l5.9-13.5c1-2.2,3.1-3.6,5.5-3.6h5.3c2,0,3.9,1,5,2.7
					c1.1,1.7,1.3,3.8,0.5,5.7l-16.6,38.7C300.7,328.5,298.6,330,296.2,330C296.2,330,296.2,330,296.2,330z"/>
			</g>
			<g>
				<path class="st1" d="M323.2,328.8h-5.1c-3.3,0-6-2.7-6-6v-37.5c0-3.3,2.7-6,6-6h5.1c3.3,0,6,2.7,6,6v37.5
					C329.2,326.1,326.5,328.8,323.2,328.8z"/>
			</g>
			<g>
				<path class="st1" d="M364,330.5c-1.6,0-3.1-0.6-4.3-1.8l-17.5-17.9v11.9c0,3.3-2.7,6-6,6h-5.1c-3.3,0-6-2.7-6-6v-39
					c0-2.4,1.5-4.6,3.7-5.6c2.3-0.9,4.9-0.4,6.6,1.4l17.5,17.9v-12.3c0-3.3,2.7-6,6-6h5.1c3.3,0,6,2.7,6,6v39.3
					c0,2.4-1.5,4.6-3.7,5.6C365.6,330.4,364.8,330.5,364,330.5z"/>
			</g>
			<g>
				<path class="st1" d="M383.4,328.8h-5.1c-3.3,0-6-2.7-6-6v-26.4h-2.9c-3.3,0-6-2.7-6-6v-5.1c0-3.3,2.7-6,6-6h23c3.3,0,6,2.7,6,6
					v5.1c0,3.3-2.7,6-6,6h-3v26.4C389.4,326.1,386.7,328.8,383.4,328.8z"/>
			</g>
			<g>
				<path class="st1" d="M418.5,328.8h-20.8c-3.3,0-6-2.7-6-6v-37.5c0-3.3,2.7-6,6-6h20.8c3.3,0,6,2.7,6,6v5.1
					c0,1.9-0.9,3.6-2.3,4.7c1.4,1.1,2.3,2.8,2.3,4.7v5.1c0,3.3-2.7,6-6,6h-9.7v0.9h9.7c3.3,0,6,2.7,6,6v5.1
					C424.5,326.1,421.8,328.8,418.5,328.8z"/>
			</g>
			<g>
				<path class="st1" d="M447.9,328.8h-5.9c-2,0-3.9-1-5-2.6l-0.9-1.4c-0.8,2.3-3,4-5.7,4h-5.1c-3.3,0-6-2.7-6-6v-37.5
					c0-3.3,2.7-6,6-6h8.1c5.4,0,10,1.5,13.6,4.3c4,3.2,6.1,7.5,6.1,12.4c0,3.9-1.4,7.6-3.9,10.6c-0.9,1.1-2,2-3.2,2.8l6.8,10
					c1.2,1.8,1.4,4.2,0.3,6.2C452.2,327.6,450.2,328.8,447.9,328.8z"/>
			</g>
			<g>
				<path class="st1" d="M483.6,330c-4.4,0-8.4-1.2-11.8-3.7c-3.4-2.4-6-5.9-7.7-10.5c-0.6-1.6-0.5-3.3,0.3-4.8
					c0.8-1.5,2.1-2.6,3.7-3.1l4.6-1.3c-1.2-0.9-2.2-1.8-3.1-2.9c-1.2-1.5-2.2-3-2.8-4.6c-0.7-1.7-1-3.5-1-5.3
					c0-4.4,1.8-8.4,5.3-11.4c3.3-2.9,7.3-4.3,11.8-4.3c2.8,0,5.7,0.6,8.5,1.8c3.1,1.3,5.6,3.3,7.7,5.9c2,2.6,1.6,6.3-1,8.3l-4.2,3.3
					c-0.2,0.2-0.5,0.4-0.7,0.5c1.6,1.2,3,2.5,4.2,3.9c1.3,1.6,2.3,3.3,2.9,5.2c0.6,1.8,1,3.8,1,5.8c0,4.7-1.8,9-5.2,12.3
					C492.6,328.3,488.3,330,483.6,330z M480.8,310.9c1,1.8,1.9,1.8,2.6,1.8c0.1,0,0.2,0,0.3,0c-0.2-0.2-0.4-0.4-0.6-0.6
					C482.9,311.9,482.3,311.5,480.8,310.9z"/>
			</g>
			<g>
				<path class="st1" d="M529.9,328.8h-5.1c-3.3,0-6-2.7-6-6v-12h-5.9v12c0,3.3-2.7,6-6,6h-5.1c-3.3,0-6-2.7-6-6v-37.5
					c0-3.3,2.7-6,6-6h5.1c3.3,0,6,2.7,6,6v8.4h5.9v-8.4c0-3.3,2.7-6,6-6h5.1c3.3,0,6,2.7,6,6v37.5
					C535.9,326.1,533.2,328.8,529.9,328.8z"/>
			</g>
		</g>
		<g class="st0">
			<g>
				<path class="st1" d="M557.1,330c-7.3,0-13.7-2.6-18.8-7.6c-5.2-5.1-7.8-11.4-7.8-18.6c0-7.1,2.7-13.3,8-18.3
					c5.2-4.9,11.6-7.4,18.9-7.4c7.2,0,13.4,2.5,18.6,7.5c5.2,5.1,7.9,11.2,7.9,18.2c0,7.3-2.6,13.6-7.8,18.7
					C570.9,327.5,564.5,330,557.1,330z M556.9,295.3c-2.6,0-4.6,0.8-6.5,2.6c-1.8,1.7-2.6,3.7-2.6,6.1c0,2.5,0.8,4.3,2.6,6
					c1.9,1.8,4.2,2.6,7.1,2.6c2.5,0,4.5-0.8,6.3-2.6c1.8-1.8,2.6-3.7,2.6-6c0-2.5-0.8-4.4-2.6-6.1
					C561.9,296.1,559.7,295.3,556.9,295.3z"/>
			</g>
			<g>
				<path class="st1" d="M620.6,330c-2.4,0-4.5-1.4-5.5-3.6l-6.6-15.1l-6.6,15.1c-1,2.2-3.1,3.6-5.5,3.6c0,0,0,0,0,0
					c-2.4,0-4.6-1.4-5.5-3.6l-16.7-38.7c-0.8-1.9-0.6-4,0.5-5.7c1.1-1.7,3-2.7,5-2.7h5.3c2.4,0,4.6,1.4,5.5,3.6l5.9,13.7l6.5-15.2
					c0.9-2.2,3.1-3.6,5.5-3.6c0,0,0,0,0,0c2.4,0,4.5,1.4,5.5,3.6l6.6,15l5.9-13.5c1-2.2,3.1-3.6,5.5-3.6h5.3c2,0,3.9,1,5,2.7
					c1.1,1.7,1.3,3.8,0.5,5.7l-16.6,38.7C625.2,328.5,623.1,330,620.6,330C620.7,330,620.7,330,620.6,330z"/>
			</g>
		</g>
		<g class="st0">
			<g>
				<path class="st1" d="M661.8,330c-7.4,0-13.8-2.5-19.1-7.6c-5.3-5.1-8-11.3-8-18.6c0-7.1,2.7-13.3,7.9-18.3
					c5.2-5,11.5-7.5,18.8-7.5c4.5,0,9.1,1,13.7,2.9c2.2,0.9,3.7,3.1,3.7,5.5v5.8c0,2.1-1.1,4-2.8,5.1s-4,1.2-5.8,0.3
					c-3.2-1.6-6.1-2.4-8.5-2.4c-2.8,0-5,0.8-6.9,2.6c-1.8,1.7-2.6,3.5-2.6,6c0,2.5,0.8,4.4,2.6,6c2,1.8,4.3,2.6,7.4,2.6
					c2.3,0,4.9-0.8,7.7-2.4c1.9-1,4.1-1,6,0c1.8,1.1,3,3,3,5.2v5.9c0,2.2-1.2,4.3-3.2,5.3C671.4,328.9,666.7,330,661.8,330z"/>
			</g>
			<g>
				<path class="st1" d="M710.6,328.8h-5.4c-2.4,0-4.5-1.4-5.5-3.5l-2.8-6.1h-8.2l-2.7,6.1c-1,2.2-3.1,3.5-5.5,3.5h-5.3
					c-2,0-3.9-1-5-2.7c-1.1-1.7-1.3-3.9-0.4-5.7l17.6-39c1-2.1,3.1-3.5,5.5-3.5c0,0,0,0,0,0c2.4,0,4.5,1.4,5.5,3.5l17.7,39
					c0.8,1.9,0.7,4-0.4,5.7C714.6,327.7,712.7,328.8,710.6,328.8z"/>
			</g>
			<g>
				<path class="st1" d="M727.6,330c-4.4,0-8.4-1.2-11.8-3.7c-3.4-2.4-6-5.9-7.7-10.5c-0.6-1.6-0.5-3.3,0.3-4.8
					c0.8-1.5,2.1-2.6,3.7-3.1l4.6-1.3c-1.2-0.9-2.2-1.8-3.1-2.9c-1.2-1.5-2.2-3-2.8-4.6c-0.7-1.7-1-3.5-1-5.3
					c0-4.4,1.8-8.4,5.3-11.4c3.3-2.9,7.3-4.3,11.8-4.3c2.8,0,5.7,0.6,8.5,1.8c3.1,1.3,5.6,3.3,7.7,5.9c2,2.6,1.6,6.3-1,8.3l-4.2,3.3
					c-0.2,0.2-0.5,0.4-0.7,0.5c1.6,1.2,3,2.5,4.2,3.9c1.3,1.6,2.3,3.3,2.9,5.2c0.6,1.8,1,3.8,1,5.8c0,4.7-1.8,9-5.2,12.3
					C736.6,328.3,732.3,330,727.6,330z M724.8,310.9c1,1.8,1.9,1.8,2.6,1.8c0.1,0,0.2,0,0.3,0c-0.2-0.2-0.4-0.4-0.6-0.6
					C726.9,311.9,726.3,311.5,724.8,310.9z"/>
			</g>
			<g>
				<path class="st1" d="M765.9,328.8h-20.8c-3.3,0-6-2.7-6-6v-37.5c0-3.3,2.7-6,6-6h20.8c3.3,0,6,2.7,6,6v5.1
					c0,1.9-0.9,3.6-2.3,4.7c1.4,1.1,2.3,2.8,2.3,4.7v5.1c0,3.3-2.7,6-6,6h-9.7v0.9h9.7c3.3,0,6,2.7,6,6v5.1
					C771.9,326.1,769.2,328.8,765.9,328.8z"/>
			</g>
		</g>
		<g class="st0">
			<g>
				<path class="st1" d="M469.9,460.7h-27.9c-2.4,0-4.6-1.4-5.5-3.6c-0.9-2.2-0.5-4.7,1.1-6.5l20.8-22.1c0.7-0.8,0.7-1.3,0.7-1.5
					c0-0.9-0.3-1.5-0.9-2.2c-0.7-0.7-1.1-0.7-1.4-0.7c-0.4,0-0.9,0.1-1.6,0.6c-0.5,0.3-0.7,1.3-0.8,1.8c-0.6,2.8-3,4.8-5.9,4.8h-5.4
					c-1.7,0-3.4-0.7-4.5-2c-1.1-1.3-1.7-3-1.4-4.7c0.7-5.5,3-10,6.8-13.2c3.7-3.2,8.2-4.8,13.2-4.8c5.2,0,9.9,2.1,13.7,6.1
					c3.7,4,5.6,8.7,5.6,14.1c0,2.7-0.5,5.2-1.5,7.5c-1,2.2-2.5,4.4-4.7,6.8l-2.1,2.3h1.7c3.3,0,6,2.7,6,6v5.4
					C475.9,458,473.3,460.7,469.9,460.7z"/>
			</g>
			<g>
				<path class="st1" d="M492.8,462.1c-6.3,0-11.8-3-15.8-8.6c-3.7-5.1-5.5-11.5-5.5-19c0-8.3,1.9-15,5.8-19.9
					c5.2-6.7,11.3-8.1,15.5-8.1h0.3c6.5,0,11.9,3,15.9,8.6c3.5,5,5.3,11.5,5.3,19.1c0,8-1.9,14.6-5.8,19.6
					C503.2,460.6,497.1,462.1,492.8,462.1z M492.8,424.3c-0.3,0-0.9,0-1.8,1.5c-1.2,2-1.8,4.8-1.8,8.5c0,3.6,0.6,6.4,1.8,8.3
					c1,1.5,1.6,1.5,2,1.5c0.2,0,0.8,0,1.7-1.5c1.2-2,1.8-4.9,1.8-8.5c0-3.5-0.6-6.2-1.8-8.2C493.6,424.3,493,424.3,492.8,424.3z"/>
			</g>
			<g>
				<path class="st1" d="M532,460.7h-5.5c-3.3,0-6-2.7-6-6v-29.3h-1c-1.9,0-3.8-0.9-4.9-2.5s-1.4-3.6-0.8-5.4l1.9-5.4
					c0.8-2.4,3.1-4,5.7-4H532c3.3,0,6,2.7,6,6v40.7C538,458,535.3,460.7,532,460.7z"/>
			</g>
			<g>
				<path class="st1" d="M563,462.8c-1.2,0-2.4-0.4-3.4-1.1l-4.4-3c-2.7-1.9-3.4-5.6-1.5-8.3l3.3-4.8c-2.5-1-4.7-2.5-6.6-4.4
					c-3.8-3.8-5.9-8.8-5.9-14.3c0-5.5,2.2-10.5,6.3-14.4c4.1-4,9-6,14.6-6c5.6,0,10.5,2.1,14.6,6.1c4.1,4.1,6.2,9,6.2,14.5
					c0,4.4-1.4,8.6-4.1,12.5l-14.2,20.7c-0.9,1.3-2.3,2.2-3.9,2.5C563.7,462.8,563.3,462.8,563,462.8z M565.4,424.2
					c-1.2,0-1.7,0.4-2.3,0.9c-0.5,0.5-0.9,1.1-0.9,2.4c0,0.6,0.1,1.2,0.9,1.9c0.7,0.7,1.5,1,2.6,1c0.8,0,1.3-0.2,1.8-0.8
					c0.6-0.6,0.8-1.3,0.8-2.2c0-0.9-0.3-1.6-0.9-2.3C566.7,424.3,566.1,424.2,565.4,424.2z"/>
			</g>
		</g>
		<g>
			<g>
				<path class="st1" d="M286.5,560.9c-0.7,0-1.4-0.1-2-0.4c-16.6-6-40.8-15.1-64-27.5c-5.5,7.1-17.7,17.8-41.6,20.4
					c-29.6,3.3-44.1-5.5-44.7-5.9c-2-1.3-3.1-3.6-2.8-6c0.2-1,4.1-24.8,40.6-29.1c4.8-0.6,9.9-0.6,14.8-0.3
					c-3.8-2.8-7.4-5.6-10.9-8.6c-5.5,6.2-16.9,14.1-39.5,14.4c-30.1,0.4-44.4-9.6-45-10c-1.8-1.3-2.7-3.4-2.5-5.6
					c0.1-0.8,2.1-15.2,22.3-21.5c-4.8-0.1-10.2-0.7-16.1-2.1c-29.2-7.2-43.3-23.4-43.8-24c-1.6-1.9-1.9-4.6-0.7-6.8
					c0.6-1,14.1-24.1,52.7-14.4c2.9,0.7,5.8,1.7,8.7,2.8c-3-4.2-5.9-8.5-8.8-12.9c-8.2,4.9-23.2,9.7-47.7,3.2
					c-28.6-7.5-42.5-24.7-43.1-25.5c-1.7-2.2-1.7-5.3,0-7.5c1.5-1.8,12.6-14.8,34.2-14.8c-2.8-1-5.7-2.3-8.8-3.7
					c-24.1-11.4-37-34.7-37.5-35.6c-1.3-2.3-0.9-5.2,1-7.1c1.7-1.7,18.2-10.4,40.5-3.1c-2.2-1.6-4.4-3.5-6.7-5.4
					c-23.4-20.5-26.9-53.3-27-54.7c-0.2-2.1,0.7-4.1,2.4-5.4c2.7-2.1,9.7-1.4,15-0.6c5.8,1,14.8,3.3,23.7,9.1
					c-2.3-2.7-4.5-5.8-6.8-9.3c-17.1-25.8-12.6-58.2-12.4-59.6c0.4-2.5,2.3-4.5,4.8-5c3.2-0.6,12.7,2.8,19.8,7.2
					c3.1,1.9,6.5,4.4,9.9,7.6c-0.5-1-1-1.9-1.5-3c-13.3-27.9-4.4-59.7-4.1-61.1c0.6-2.2,2.4-3.8,4.6-4.2c3.7-0.7,11.5,3.4,16,6.6
					c2.8,2,5.8,4.6,8.7,8c-0.9-2.1-1.7-4.4-2.4-6.9c-12.4-41.9,9.3-62.2,10.2-63c1.1-1,2.5-1.6,4-1.6c4.9,0,13.3,9.4,15.8,12.7
					c5.5,7.1,12.2,19.2,13.1,36.6c0.1,2.2,0.1,4.4,0.1,6.5c2.3-3.5,4.7-6.9,7.2-10.3c0,0,0.1-0.1,0.1-0.1
					c-5.7-12.4-8.7-25.5-8.9-39.2C126.6,54.2,151,43.1,152,42.6c2.4-1,5.1-0.4,6.9,1.5c3.3,3.7,11.8,28,8.2,49.8
					c-0.1,0.4-0.1,0.7-0.2,1.1c1.7-2,3.5-4.1,5.3-6.1c-3.6-10.1-5-22.7-4.4-37.7c1.6-35.3,24.1-49.6,25-50.2c2.7-1.7,6.3-1,8.1,1.7
					c5,7.2,8,29.6,4.7,49c4.4-6.6,12.2-16.6,24.5-27.2c27.3-23.4,56.3-11.1,57.5-10.5c2.6,1.1,4,3.9,3.5,6.7
					c-1.8,8.5-19.7,30.7-37.5,41.2c-13.1,7.6-35,8.5-44.4,8.5c-1.7,1.6-3.3,3-4.7,4.5c1.9-0.5,3.8-0.9,5.7-1.3
					c18.5-3.2,35.3-1,47.5,6c1.5,0.9,2.6,2.3,2.9,4c0.3,1.7-0.1,3.5-1.2,4.8c-0.7,0.8-16.5,20.8-46.8,23.6c-3.6,0.3-7,0.5-10.1,0.5
					c7.1,1.1,13,3.6,19.1,7.2c1.4,0.8,2.4,2.2,2.8,3.8c0.4,1.6,0.1,3.3-0.8,4.7c-0.5,0.8-11.6,17.4-37.3,22.2c4.2,1,7.8,2.3,11,3.5
					l0.4,0.1c1.7,0.6,3.1,2,3.6,3.8c0.6,1.8,0.3,3.7-0.7,5.2l-0.2,0.3c-8.7,12.9-18.4,22.4-28.9,28.4c2.1,0.5,4,1.1,5.9,1.6l0.3,0.1
					c1.7,0.5,3.2,1.8,3.9,3.5c0.7,1.7,0.6,3.6-0.3,5.2c-8.6,15.5-18.3,24.9-26.9,30.7c1.8,0.2,3.4,0.4,5,0.7
					c1.6,0.2,3.1,0.4,4.4,0.6c2,0.2,3.8,1.4,4.7,3.2c0.9,1.8,0.9,3.9,0,5.7l-0.8,1.4c-5,9.3-12.3,23-25.9,34.5
					c4.3-0.5,8.3-0.3,11.7-0.2c1.5,0,2.9,0.1,4.2,0.1c2,0,3.9,1,5,2.6c1.1,1.6,1.4,3.7,0.6,5.6c-3.5,8.9-8.4,19.7-16.7,30.2
					c4.7-1,9.1-1.3,12.8-1.6c1.1-0.1,2.2-0.2,3.2-0.3c2-0.2,4,0.6,5.2,2.2c1.3,1.6,1.7,3.7,1.1,5.6c-2.2,6.9-5.4,17.2-12.4,28.2
					c3.8-0.9,7.4-1.2,10.8-1.5l0.3,0c2-0.2,4,0.7,5.3,2.3s1.6,3.7,0.9,5.7c-2.6,7.3-4.2,12.4-5.4,16.5c-1.2,3.8-2.1,6.7-3.2,9.5
					c4.1-2.1,8.1-3.3,11.9-4.4l0.5-0.2c1.9-0.6,3.9-0.1,5.5,1.1c1.5,1.2,2.4,3.2,2.2,5.1c-0.3,3.1-0.4,6.1-0.5,8.9
					c-0.2,6.2-0.5,12.2-2.2,19.1c4.2-3.1,8.5-4.6,11.8-5.1c2.5-0.4,5,0.9,6.2,3.2c0.4,0.8,10,19.5,6.7,41.5c1.8-3.8,4.1-6.9,7-9.5
					c6.4-5.6,13-6,13.7-6c2.3,0,4.4,1.2,5.5,3.3c0.4,0.8,9.9,19.6,7.7,41.6l0,0c-1.4,14.4-6.2,23.7-10.8,29.5
					c17.6,9.8,38,18.8,62.3,27.5c1.5,0.5,2.8,1.7,3.4,3.1c0.7,1.5,0.7,3.1,0.2,4.6l-3.8,10C291.2,559.4,288.9,560.9,286.5,560.9z
					 M144.9,539.2c5.5,1.8,16.3,4.1,32.6,2.3c17.4-1.9,26.9-8.7,31.6-13.7c-8.5-2-23.2-4.8-35.8-3.4
					C155.1,526.6,147.8,534.3,144.9,539.2z M214.8,516.2c0.1,0.1,0.3,0.1,0.4,0.2c0-0.1-0.1-0.1-0.1-0.2
					C215,516.3,214.9,516.3,214.8,516.2z M102.6,500.4c5.5,2.4,16.5,5.9,33.7,5.7c17-0.2,25.5-5.3,29.6-9.3
					c-7.5-2.8-20.5-7-33.1-6.8C113,490.2,105.4,496.3,102.6,500.4z M224.3,450.6c-4.1,2.3-10.2,8.8-9.9,27c0.2,9.6,2,18.9,5.6,27.5
					c3.6-4.2,7.6-11.5,8.8-24c0,0,0,0,0,0C230.1,468.5,226.6,456.8,224.3,450.6z M180.9,492.1c1.4,1.2,2.9,2.5,4.4,3.7
					c-1.2-1-2.3-2-3.5-3l-3.9-3.4c-0.2-0.2-0.4-0.4-0.6-0.6c-0.1-0.1-0.2-0.1-0.3-0.2c0.1,0.1,0.3,0.2,0.4,0.3
					c0.3,0.2,0.5,0.5,0.7,0.8c0.2,0.2,0.5,0.3,0.7,0.5L180.9,492.1z M191.7,485.6c4.1,3.5,8.3,6.8,12.8,10c-1.3-5.8-2-11.7-2.1-17.8
					c-0.1-3.1,0-6,0.3-8.8C199.5,477.1,195.4,482.3,191.7,485.6z M133.1,478c5.8,0,11.6,0.7,17,1.8c-2.9-2.8-5.6-5.6-8.2-8.3
					c-2.9,2.2-7,4.7-12.2,6.6c1,0,2-0.1,3.1-0.1C132.9,478,133,478,133.1,478z M144,457.4c1,0.3,1.9,0.9,2.6,1.6
					c5.4,5.8,11.3,11.7,17.7,17.8c-8-7.8-15.6-15.8-22.6-23.9c-0.2-0.2-0.3-0.4-0.5-0.6c-0.3-0.2-0.6-0.5-0.8-0.8
					c-8.6-9.9-16.6-20.6-23.8-31.7c-0.1-0.2-0.3-0.5-0.4-0.7c-0.3-0.3-0.5-0.6-0.7-0.9c-7.5-11.7-14.1-24.4-19.5-37.8
					c-0.2-0.4-0.3-0.9-0.4-1.3c-0.2-0.3-0.3-0.6-0.5-1c-1.4-3.7-2.6-7.2-3.7-10.6l0.7,2.8c0.2,0.6,0.2,1.2,0.2,1.8
					c0.3,0.5,0.6,1,0.7,1.6c3.5,11.5,8.4,22.9,14.6,33.7c0.4,0.8,0.7,1.6,0.8,2.5c0.7,0.5,1.3,1.1,1.7,1.8
					c9.5,15.6,20.4,30.1,32.5,43.1C143.3,455.6,143.8,456.5,144,457.4z M191.4,421.5c-4.7,2.4-11.6,8.7-12.1,24.1
					c-0.5,15,2.2,25.2,4.4,30.9c3.8-3.4,9.1-10.7,11.3-25.5C196.8,438.9,193.7,427.6,191.4,421.5z M64.2,450.4
					c5.3,4.5,16.5,12.5,33.9,16.7c18,4.4,29.5-0.4,35.3-4.4c-7.3-5.6-20.4-14.5-32.9-17.6C79.8,440,68.9,446.2,64.2,450.4z
					 M155,449.9c4.2,4.7,8.6,9.3,13.2,13.9c-0.8-5.3-1.2-11.5-0.9-18.6c0.1-2.1,0.2-4.1,0.5-6C163.8,443.3,159.3,446.8,155,449.9z
					 M172.4,393.3c-6.7,2.9-12.7,7.9-17.7,21.6c-2.1,5.8-2.1,9.9-2.2,15.1c0,2.1,0,4.4-0.2,6.9c5.5-4.3,10.6-9,13.6-14.8
					c5.8-11.2,6.1-18.4,6.4-28.3C172.4,393.6,172.4,393.4,172.4,393.3z M130.6,419.3c3.2,4.6,6.5,9.1,9.9,13.6c0-1,0-2,0-3
					c0-5.2,0.1-10.2,2.1-16.7C138.5,415.9,134.4,417.7,130.6,419.3z M25.8,397.7c5.3,4.9,16.2,13,32.9,17.4
					c20.5,5.4,32.3,1.7,38.2-1.7c-6.9-6-19.4-15.4-34.5-20C43.4,387.6,31.5,393.4,25.8,397.7z M159,362.9
					c-6.9,1.7-13.4,5.7-20.7,17.7c-3.3,5.6-4.6,10.8-6.2,17.3c-0.7,2.7-1.4,5.6-2.3,8.7c6.1-2.8,11.8-6.5,16.6-14
					c6.3-10,7.1-12.6,10.1-22.1C157.3,368.3,158,365.8,159,362.9z M109.9,382.7c2.8,6.3,5.8,12.3,9.1,18.2c0.5-2,1-3.9,1.5-5.8
					c1.4-5.5,2.7-10.8,5.3-16.4C120.1,380.9,114.8,381.8,109.9,382.7z M71.5,383.9c5.4,2.1,10.5,4.6,15,7.3
					c-1.1-2.8-2.2-5.6-3.1-8.4C80.3,383.5,76.3,384,71.5,383.9z M14.8,339.6c4.9,6.9,14.6,18.3,28.3,24.8
					c16.4,7.8,28.4,8.1,35.3,7.1c-6.4-7.9-18.4-20.8-33.6-28.1C31.8,337.1,21,338,14.8,339.6z M154.3,327.9c-9,1-19.1,3.6-27.5,14.8
					c-6.4,8.4-8.8,13.2-11.7,19.4c-1.2,2.5-2.5,5.1-4.1,8.2c8.2-1.6,16.7-4,25.2-12.9C146,347.1,151.1,336.6,154.3,327.9z
					 M97.9,345.2c1.1,5.4,2.5,10.9,4.1,16.2c0.8-1.6,1.5-3,2.2-4.5c2.2-4.5,4.3-8.9,8.1-14.5C106.9,344,101.9,344.8,97.9,345.2z
					 M66.4,342.8c3.3,2.6,6.4,5.3,9.2,7.9c-0.3-1.8-0.6-3.6-0.9-5.3C72.4,344.8,69.6,344,66.4,342.8z M148.2,290.4
					c-9,0-19,1.5-29.9,13.7c-9.2,10.3-13.8,18.5-18.7,27.2c-0.3,0.6-0.6,1.1-1,1.7c7.7-0.9,18.4-3.7,28.2-12.6
					c10.6-9.6,17.1-20.4,21.5-30C148.3,290.4,148.3,290.4,148.2,290.4z M21.5,274.8c2.1,9.7,7.8,27.9,21.8,40.1
					c10.6,9.3,20.5,14.2,27.9,16.9c-1.1-2.9-2-6-3-9.1c-2.8-8.8-5.9-18.7-11.9-27.3C45.4,279.7,29.9,275.7,21.5,274.8z M93.9,296.2
					c-0.3,6.8-0.2,13.7,0.3,20.6c3.8-6.3,8.4-13,15.3-20.7c0.6-0.7,1.2-1.4,1.9-2C104.5,295.7,98.4,296.1,93.9,296.2z M64.7,286.7
					c0.4,0.6,0.9,1.2,1.3,1.8c2.5,3.6,4.5,7.3,6.3,11c0.1-2.8,0.3-5.5,0.5-8.3C70.5,290.2,67.8,288.8,64.7,286.7z M146.5,244.3
					c-7.6,0-15.9,2.1-25.4,10.5c-9.3,8.3-14.8,16.9-20.2,25.2c-0.8,1.3-1.7,2.6-2.6,4c8.4-0.7,20.1-3,30.9-10.8
					c11.8-8.5,19.1-19.4,24.2-28.3C151.1,244.5,148.8,244.3,146.5,244.3z M41.6,212.3c-0.2,10,0.9,28.8,11,44.1
					c8.8,13.3,17.1,19.6,22.4,22.5c-0.2-0.6-0.4-1.3-0.4-2c-0.3-7.9-1.5-23.1-6-35.9C62.6,223.6,49.4,215.7,41.6,212.3z
					 M102.4,243.6c-1.9,6.5-3.5,13.2-4.8,19.8c4.1-5.8,8.9-11.6,15.5-17.5c0.6-0.6,1.3-1.1,1.9-1.6
					C110.8,244.3,106.6,244.1,102.4,243.6z M78.9,234.2c0.4,1,0.8,1.9,1.1,2.9c0.7,2,1.3,4,1.9,6c0.5-1.7,1-3.3,1.5-5.1
					C81.9,237,80.4,235.8,78.9,234.2z M105.8,231.9c10.5,1.1,21.2-0.3,31.9-4.1c7.7-2.8,18.5-9.4,28.8-24.8
					c-8.4-1.8-18.2-1.7-34.1,6.3C119.8,215.6,111,225.1,105.8,231.9z M69.3,159.2c-1.7,9.9-3.3,29.1,4.7,45.9
					c9.3,19.4,16.7,23.8,18.8,24.7c1,0.4,1.8,1.1,2.4,1.8c0.2-0.1,0.3-0.2,0.5-0.3c-0.5-0.9-0.8-1.9-0.8-3c-0.5,0-1-0.1-1.4-0.2
					c-3-0.7-4.9-3.6-4.5-6.6c1-7.5,1.8-18.7,0.4-30C86.9,172,76,162.9,69.3,159.2z M118.5,198.6c-0.9,2.3-1.8,4.5-2.7,6.8
					c2.7-2,5.7-3.9,8.9-5.7C122.4,199.4,120.3,199,118.5,198.6z M97.1,174.1c1.9,4.6,3.3,9.9,4.1,16.1c0.1,0.5,0.1,1.1,0.2,1.6
					c0-0.1,0.1-0.2,0.1-0.3c1.4-2.9,2.9-6,4.6-9.2C103.4,180.4,100.2,177.7,97.1,174.1z M123.4,187.3c7.1,1.3,18.2,2,31.9-1.9
					c11-3.1,21.2-10.7,30.5-22.7c-8.2-2.3-18-3-34.4,3.9C138.6,172,129.2,180.7,123.4,187.3z M101.2,102.3
					c-4.4,6.6-11.2,21.8-3.7,47c3.6,12.1,10,19,14.6,22.5c0-0.1,0.1-0.2,0.1-0.3c2.6-8.3,5.6-20.9,4.9-33.5
					C116.1,118.6,106.5,107.2,101.2,102.3z M145.3,148.1c-2.7,4-5.3,8-7.8,12.1c2.9-1.7,6-3.3,9.3-4.7c4.3-1.8,8.4-3.2,12.1-4.2
					C152.8,150.7,148.5,149.4,145.3,148.1z M153,138c5.1,1.5,13,2.6,25.3,1.4c15.5-1.4,25.3-7.9,30.5-12.6c-6.3-2.7-14-3.8-27.1-1.5
					C171.3,127.1,161.4,131.5,153,138z M151.8,57.3c-5.3,5-12.7,15.8-12.3,36.8c0.1,9.6,1.9,19,5.2,28c3.4-6.8,8.5-18.4,10.5-30.1
					C157.3,79,154.3,65,151.8,57.3z M174.8,108.6c-2,2.5-4.1,5.1-6.1,7.7c3.6-1.2,7.2-2.1,10.9-2.8c4.2-0.7,8-1.2,11.5-1.4
					C183.7,111.4,178.3,109.9,174.8,108.6z M183,98.6c6,1.5,15.1,2.8,28.3,1.6c15.4-1.4,26.4-8.3,32.6-13.4
					c-7-2.3-17.4-3.8-31.9-1.3C201.7,87.3,191.6,91.9,183,98.6z M193.2,16.4c-5.4,5.9-12.7,17.2-13.5,35.4
					c-0.5,10.4,0.2,19.7,2,27.3c0.2-0.6,0.4-1.1,0.7-1.6c5.8-9.1,9.6-18.3,11.1-27.2C195.9,37.5,194.9,24.3,193.2,16.4z M267.5,22.3
					c-8.4,0-19.2,2.3-29.7,11.4c-10,8.6-17.5,17.6-22.2,24.6c11.5-0.5,24.5-2.5,31.8-6.7c12.5-7.3,24.1-20.7,29.2-28.3
					C274.1,22.7,271,22.3,267.5,22.3z"/>
			</g>
		</g>
		<g>
			<g>
				<path class="st1" d="M227.7,449.4c-3.3,0-6-2.7-6-6s2.7-6,6-6h0c3.3,0,6,2.7,6,6S231,449.4,227.7,449.4z"/>
			</g>
		</g>
		<g>
			<g>
				<path class="st1" d="M735.5,560.8c-2.4,0-4.7-1.5-5.6-3.9l-3.8-10c-0.6-1.5-0.5-3.2,0.2-4.6s1.9-2.6,3.4-3.1
					c24.4-8.8,44.9-17.8,62.3-27.4c-4.6-5.7-9.3-15-10.7-29.4c-2.1-22,7.3-40.8,7.7-41.6c1.1-2.1,3.2-3.3,5.5-3.3
					c0.7,0,7.4,0.3,13.7,6c2.9,2.5,5.2,5.7,7,9.5c-3.2-22,6.3-40.7,6.7-41.5c1.2-2.3,3.7-3.5,6.2-3.2c3.2,0.5,7.5,2,11.8,5.1
					c-1.7-6.8-2-12.8-2.2-19c-0.1-2.8-0.2-5.7-0.5-8.9c-0.2-2,0.7-3.9,2.2-5.1c1.5-1.3,3.6-1.7,5.5-1.1l0.2,0.1
					c3.9,1.1,8.1,2.3,12.3,4.5c-1.1-2.8-2-5.7-3.2-9.5c-1.3-4.1-2.9-9.2-5.4-16.5c-0.7-1.9-0.3-4.1,0.9-5.7c1.3-1.6,3.3-2.5,5.3-2.3
					l0.3,0c3.3,0.3,6.9,0.6,10.6,1.5c-7.3-11.4-10.5-21.8-12.4-28.3c-0.6-1.9-0.2-4,1.1-5.5c1.3-1.5,3.2-2.4,5.2-2.2
					c1,0.1,2.1,0.2,3.2,0.3c3.8,0.3,8.3,0.6,13,1.6c-8.3-10.6-13.2-21.4-16.8-30.4c-0.7-1.9-0.5-4,0.6-5.6c1.1-1.6,3-2.6,4.9-2.6
					c0.2,0,0.3,0,0.5,0c1.2,0,2.4,0,3.8-0.1c3.4-0.1,7.4-0.2,11.8,0.3c-13.7-11.6-21-25.3-26-34.7l-0.7-1.3c-0.9-1.8-0.9-3.9,0-5.7
					c0.9-1.8,2.7-2.9,4.7-3.1c1.3-0.1,2.8-0.3,4.4-0.6c1.5-0.2,3.1-0.4,4.7-0.6c-10.1-6.7-19-16.9-26.6-30.3l-0.1-0.2
					c-0.9-1.6-1-3.5-0.3-5.2c0.7-1.7,2.1-3,3.9-3.5l0.3-0.1c1.8-0.5,3.7-1.1,5.8-1.6c-10.6-5.9-20.3-15.4-29-28.4l-0.2-0.3
					c-1-1.5-1.3-3.4-0.7-5.2c0.6-1.8,1.9-3.1,3.6-3.8l0.4-0.2c3.3-1.2,7-2.6,11.3-3.5c-25.9-4.7-37.1-21.4-37.6-22.2
					c-0.9-1.4-1.2-3.1-0.8-4.7s1.4-3,2.8-3.8c5.9-3.4,11.7-6,18.7-7.1c-3,0-6.3-0.2-9.8-0.5c-30.2-2.8-46.1-22.7-46.8-23.6
					c-1.1-1.4-1.5-3.1-1.2-4.8s1.4-3.2,2.8-4c12.2-7.2,29-9.3,47.5-6c1.9,0.3,3.7,0.8,5.6,1.2c-1.4-1.4-2.9-2.8-4.6-4.3
					c-9.3,0-31.2-0.9-44.2-8.5c-17.9-10.4-35.8-32.6-37.6-41.2c-0.6-2.8,0.9-5.6,3.5-6.7c1.2-0.5,30.3-12.8,57.5,10.5
					c12.1,10.4,20,20.4,24.5,27.1c-3.4-19.4-0.3-41.7,4.7-49c1.8-2.6,5.4-3.4,8.1-1.7c1,0.6,23.4,15,25,50.1
					c0.7,15-0.8,27.7-4.4,37.8c1.8,2,3.5,4.1,5.3,6.1c-0.1-0.4-0.1-0.8-0.2-1.2c-3.6-21.8,4.8-46.1,8.2-49.8
					c1.7-1.9,4.5-2.5,6.9-1.5c1,0.5,25.4,11.6,24.5,51.6c-0.2,13.4-3.3,26.9-8.9,39.2c0,0.1,0.1,0.1,0.1,0.2
					c2.5,3.4,4.9,6.9,7.4,10.5c-0.1-2.2,0-4.4,0.1-6.6c0.9-17.4,7.5-29.5,13-36.6C908.7,97.4,917,88,921.9,88c1.5,0,2.9,0.5,4,1.5
					c0.9,0.8,22.7,21,10.2,63.1c-0.8,2.6-1.6,5-2.6,7.2c2.9-3.5,6-6.1,8.8-8.2c4.4-3.2,12.3-7.3,16-6.6c2.2,0.4,4,2.1,4.6,4.2
					c0.4,1.3,9.3,33.1-4.1,61c-0.4,0.9-0.8,1.7-1.2,2.5c3.3-3.1,6.6-5.5,9.6-7.3c7.2-4.4,16.6-7.8,19.8-7.2c2.5,0.5,4.4,2.5,4.8,5
					c0.2,1.4,4.6,33.7-12.4,59.6c-2.3,3.4-4.5,6.5-6.7,9.2c5.8-3.7,11.6-6,16.3-7.3c8.2-2.3,18.4-3.1,21.3-1.6
					c2.2,1.1,3.5,3.5,3.3,5.9c-0.1,1.4-3.6,34.3-27,54.7c-2.4,2.1-4.8,4-7.2,5.8c22.6-7.6,39.2,1.2,41,3c1.9,1.9,2.3,4.8,1,7.1
					c-0.5,1-13.5,24.2-37.5,35.6c-2.9,1.4-5.8,2.6-8.5,3.6c18,0.1,28.9,9.2,33.4,14l0.1,0.1c1,0.9,1.6,2.1,1.8,3.4
					c0.3,1.7-0.2,3.3-1.2,4.7c-0.6,0.7-14.5,18-43.1,25.5c-24.7,6.5-39.8,1.6-47.7-3.2c-2.8,4.4-5.7,8.6-8.7,12.9
					c2.8-1.1,5.7-2.1,8.6-2.8c38.5-9.6,52.1,13.4,52.7,14.3c1.2,2.2,1,4.9-0.6,6.8c-0.6,0.7-14.5,17-43.8,24.2
					c-5.9,1.4-11.4,2-16.3,2.1c20.3,6.4,22.2,20.8,22.3,21.6c0.2,2.2-0.7,4.3-2.5,5.5c-0.6,0.4-14.9,10.5-45,10
					c-22.5-0.3-34-8.3-39.5-14.4c-3.6,3-7.2,5.9-11,8.6c5.1-0.3,10.2-0.3,15,0.3c36.6,4.3,40.6,28.1,40.7,29.1
					c0.4,2.4-0.7,4.7-2.8,6c-0.6,0.4-15.2,9.2-44.8,5.9c-24-2.6-36.2-13.5-41.6-20.4c-23.2,12.3-47.4,21.5-64,27.5
					C736.9,560.7,736.2,560.8,735.5,560.8z M812.8,527.7c4.7,5,14.2,11.8,31.7,13.7c16.4,1.8,27.2-0.5,32.7-2.3
					c-2.8-4.9-10.1-12.6-28.6-14.8C836.6,523,822.2,525.5,812.8,527.7z M856,496.8c4.1,3.9,12.6,9,29.6,9.2
					c17.2,0.2,28.3-3.3,33.7-5.7c-2.8-4.1-10.4-10.3-30.3-10.4c-0.1,0-0.2,0-0.3,0C876.3,489.9,863.4,494,856,496.8z M797.7,450.6
					c-2.3,6.1-5.8,17.8-4.6,30.5c1.2,12.7,5.4,20,8.9,23.9c3.5-8.7,5.4-17.9,5.6-27.4C807.9,459.4,801.9,452.9,797.7,450.6z
					 M819.3,468.8c0.3,2.8,0.4,5.8,0.3,9c-0.1,6-0.8,12-2.1,17.8c4.4-3.2,8.7-6.6,12.8-10.1C826.6,482.2,822.5,477,819.3,468.8z
					 M880.3,471.3c-2.7,2.8-5.4,5.5-8.3,8.3c5.5-1.1,11.4-1.8,17.1-1.8c1.2,0,2.5,0,3.6,0.1C887.3,476.1,883.2,473.6,880.3,471.3z
					 M830.6,421.6c-2.2,6.1-5.3,17.4-3.5,29.5c2.3,15,7.6,22.2,11.4,25.6c2.1-5.5,4.9-15.8,4.4-30.9
					C842.3,430.4,835.3,424.1,830.6,421.6z M881,452.3c-0.2,0.3-0.4,0.5-0.6,0.8c-4.7,5.4-9.6,10.7-14.6,15.9
					c3.4-3.4,6.6-6.7,9.7-10.1c0.6-0.7,1.4-1.2,2.3-1.5c0.3-0.9,0.7-1.7,1.4-2.4c12.4-13.4,23.4-28,32.7-43.3
					c0.4-0.7,0.9-1.3,1.6-1.7c0.1-0.8,0.3-1.7,0.8-2.4c5.9-10.5,10.9-21.8,14.6-33.7c0.2-0.6,0.5-1.2,0.8-1.7c0-0.6,0.1-1.1,0.2-1.7
					c0-0.2,0.1-0.4,0.2-0.6c-0.9,2.7-1.9,5.4-2.9,8.2c-0.2,0.4-0.3,0.8-0.6,1.1c-0.1,0.5-0.2,0.9-0.4,1.4c-5.4,13.3-12,26-19.5,37.8
					c-0.2,0.2-0.3,0.5-0.5,0.7c-0.1,0.3-0.3,0.7-0.5,1c-7.4,11.2-15.4,21.9-23.9,31.6C881.4,451.9,881.2,452.1,881,452.3z
					 M888.7,462.7c5.8,4,17.2,8.9,35.3,4.5c17.4-4.3,28.5-12.2,33.8-16.8c-4.8-4.3-15.7-10.4-36.4-5.3
					C908.6,448.3,895.1,457.8,888.7,462.7z M854.3,439.4c0.3,1.9,0.4,3.9,0.5,5.9c0.2,7.1-0.2,13.2-0.9,18.5
					c4.6-4.6,8.9-9.2,13.2-13.9C862.8,446.9,858.3,443.4,854.3,439.4z M849.6,393.3c0,0.2,0,0.3,0,0.5c0.4,9.9,0.7,17.1,6.4,28.4
					c3,5.7,8,10.4,13.5,14.7c-0.1-2.5-0.2-4.7-0.2-6.9c0-5.4-0.1-9.3-2.2-15.1C862.3,401.2,856.3,396.2,849.6,393.3z M879.4,413.3
					c2,6.5,2,11.5,2.1,16.7c0,1,0,2,0,3c3.4-4.4,6.8-8.9,10-13.6C887.6,417.8,883.5,416,879.4,413.3z M925.1,413.3
					c5.7,3.3,17.5,7.1,38.1,1.7c16.7-4.4,27.5-12.5,32.8-17.3c-6.3-4.7-18.2-9.9-36.6-4.3C944.4,398.1,932,407.3,925.1,413.3z
					 M863.1,363c1,2.9,1.7,5.4,2.4,7.6c3,9.5,3.8,12.1,10.1,22.1c4.7,7.5,10.4,11.2,16.5,13.9c-0.9-3.1-1.6-5.9-2.3-8.6
					c-1.6-6.3-2.9-11.8-6.2-17.3C876.5,368.6,869.9,364.6,863.1,363z M896.2,378.8c2.6,5.5,3.9,10.8,5.3,16.4
					c0.5,1.9,0.9,3.8,1.5,5.8c3.3-5.9,6.3-11.9,9.1-18.2C907.2,381.9,901.8,381,896.2,378.8z M1008,392.4
					C1008,392.4,1008.1,392.4,1008,392.4C1008.1,392.4,1008,392.4,1008,392.4z M1008,392.4C1008,392.4,1008,392.4,1008,392.4
					C1008,392.4,1008,392.4,1008,392.4z M938.4,382.9c-1,2.8-2,5.6-3.1,8.4c4.5-2.7,9.5-5.2,14.9-7.3
					C945.3,384.1,941.4,383.6,938.4,382.9z M943.4,371.6c7,1,18.9,0.6,35.3-7.1c13.7-6.5,23.4-17.9,28.3-24.8
					c-6.2-1.6-16.9-2.5-30.1,3.8C961.8,350.8,949.8,363.7,943.4,371.6z M867.6,327.9c3.4,9.3,8.5,19.4,18.3,29.6
					c8.5,9,17,11.4,25.3,12.9c-1.8-3.2-3.1-6-4.4-8.6c-3-6.1-5.3-10.9-11.7-19.2C886.8,331.6,876.7,328.9,867.6,327.9z M909.7,342.3
					c3.7,5.6,5.8,9.9,8,14.4c0.7,1.5,1.5,3.1,2.3,4.7c1.6-5.6,3-11,4.1-16.3C920.1,344.7,915.1,344,909.7,342.3z M947.2,345.4
					c-0.3,1.8-0.6,3.6-0.9,5.5c2.9-2.7,6.1-5.5,9.6-8.2C952.5,343.9,949.6,344.8,947.2,345.4z M873.7,290.3
					c4.5,9.6,10.9,20.4,21.5,30c9.8,8.9,20.6,11.7,28.3,12.6c-0.2-0.4-0.4-0.8-0.6-1.1c-5-8.9-9.6-17.3-19.1-27.8
					c-10.9-12.2-20.9-13.7-29.9-13.7C873.8,290.3,873.8,290.3,873.7,290.3z M1000.4,274.7c-8.6,1-24.1,5.1-34.7,20.5
					c-5.9,8.5-9,18.4-11.8,27.1c-1.1,3.3-2.1,6.5-3.2,9.5c7.3-2.7,17.2-7.7,27.9-17C992.6,302.6,998.3,284.5,1000.4,274.7z
					 M910.7,293.9c0.7,0.7,1.3,1.4,2,2.2c6.9,7.6,11.4,14.2,15.3,20.5c0.4-6.9,0.5-13.7,0.3-20.5
					C923.7,295.9,917.5,295.5,910.7,293.9z M949.1,291.1c0.2,2.8,0.4,5.6,0.5,8.4c1.7-3.7,3.8-7.5,6.3-11.1c0.4-0.6,0.8-1.2,1.3-1.8
					C954.1,288.7,951.4,290.1,949.1,291.1z M868.7,244.6c5.1,9.1,12.2,19.7,24.2,28.3c10.8,7.8,22.4,10.2,30.8,10.8
					c-0.9-1.3-1.7-2.7-2.6-4c-5.3-8.3-10.8-16.9-20.1-25.2C888.6,243.5,878.1,243.5,868.7,244.6z M980.4,212.2
					c-7.8,3.3-21,11.2-27.1,28.7c-3.2,9.3-5.2,21.5-6,36.1c0,0.6-0.1,1.1-0.3,1.6c5.4-3,13.7-9.3,22.3-22.4
					C979.5,240.9,980.7,222.2,980.4,212.2z M907.2,244.1c0.6,0.5,1.2,1,1.8,1.5c6.5,5.8,11.3,11.6,15.4,17.3
					c-1.3-6.5-2.9-13-4.8-19.5C916.4,243.9,912.2,244.2,907.2,244.1z M938.8,238.1c0.5,1.6,1,3.2,1.4,4.9c0.6-2.1,1.2-4.1,1.8-5.9
					c0.3-0.9,0.6-1.7,1-2.6C941.5,235.9,940.1,237.1,938.8,238.1z M855.6,202.8c8.4,12.6,18,20.9,28.7,24.8
					c13.5,4.8,24.6,4.9,31.8,4.1c-5.3-6.9-14.1-16.3-26.5-22.6C873.8,201.1,863.9,201,855.6,202.8z M926.4,231.3
					c0.2,0.1,0.4,0.2,0.5,0.3c0.6-0.8,1.5-1.4,2.4-1.8c1.4-0.6,9.1-4.5,18.7-24.6c8-16.8,6.4-36,4.7-45.9
					c-6.7,3.8-17.6,12.8-20.1,32.5c-1.5,11-0.6,22.5,0.4,30.2c0.4,3-1.6,5.9-4.5,6.6c-0.5,0.1-1,0.2-1.5,0.2
					C927.1,229.5,926.8,230.5,926.4,231.3z M897.1,199.5c3.2,1.8,6.2,3.7,9,5.7c-0.9-2.4-1.9-4.6-2.7-6.8
					C901.3,198.9,899.2,199.2,897.1,199.5z M916,182.3c1.7,3.2,3.2,6.3,4.6,9.2c0,0.1,0.1,0.2,0.1,0.2c0.1-0.5,0.1-1.1,0.2-1.6
					c0.8-6.3,2.3-11.7,4.2-16.4C921.9,177.6,918.7,180.3,916,182.3z M836.1,162.7c9.3,12,19.5,19.6,30.4,22.7
					c10.8,3,21.6,3.7,32.1,1.8c-5.9-6.6-15.3-15.3-28-20.6C854.2,159.6,844.3,160.3,836.1,162.7z M920.9,102.2
					c-5.4,4.9-14.9,16.2-15.8,35.7c-0.6,12.7,2.3,25.3,4.9,33.6c0,0.1,0,0.1,0.1,0.2c4.6-3.6,10.9-10.4,14.6-22.5
					C932.1,124,925.4,108.8,920.9,102.2z M862.7,151.2c3.8,1,8,2.4,12.5,4.3c3.3,1.4,6.5,3,9.4,4.7c-2.5-4.2-5.2-8.3-7.9-12.3
					C873.5,149.2,869,150.5,862.7,151.2z M813.1,126.6c5.2,4.7,15,11.2,30.5,12.7c12.2,1.1,20.1,0,25.2-1.4
					c-8.3-6.5-18.2-10.9-28.6-12.7C827,122.8,819.4,123.9,813.1,126.6z M870.2,57c-2.5,7.7-5.5,21.7-3.4,34.7
					c2,11.7,7.1,23.3,10.5,30.1c3.3-9,5-18.5,5.2-28C883,72.8,875.5,62,870.2,57z M831.4,112c3.3,0.2,7,0.6,11,1.3
					c3.7,0.7,7.3,1.6,10.8,2.7c-2-2.5-4-5-6-7.5C843.6,109.7,838.4,111.2,831.4,112z M777.9,86.6c6.2,5.1,17.2,12,32.7,13.5
					c13.1,1.2,22.3,0,28.3-1.5c-8.5-6.7-18.5-11.2-29.1-13.2C795.3,82.7,784.8,84.3,777.9,86.6z M828.8,16.3
					c-1.7,7.9-2.7,21.1-0.4,33.8c1.7,9.1,5.4,18.3,11.3,27.3c0.3,0.4,0.5,0.9,0.7,1.4c1.8-7.6,2.5-16.9,2-27.3
					C841.5,33.4,834.2,22.2,828.8,16.3z M745.5,23.2c5.1,7.6,16.7,21,29.2,28.3c7.4,4.3,20.4,6.2,31.9,6.8
					c-4-5.9-11.1-15.1-22.3-24.6C769.3,20.9,753.8,21.6,745.5,23.2z"/>
			</g>
		</g>
		<g class="st0">
			<g>
				<g>
					<path class="st2" d="M248,184.7h14.3v66.5H248V184.7z"/>
				</g>
			</g>
			<g>
				<g>
					<path class="st2" d="M319.6,184.7h14v66.5h-14l-30.4-43v43h-14.3v-66.5h14.2l30.5,42.7L319.6,184.7L319.6,184.7z"/>
				</g>
			</g>
		</g>
		<g class="st0">
			<g>
				<g>
					<path class="st2" d="M346.7,184.7h22.7c9.7,0,17.5,3.1,23.4,9.2c5.9,6.1,8.9,14.2,8.9,24.2s-3,18.1-9.1,24.1
						s-14.2,9.1-24.3,9.1h-21.5v-66.6H346.7z M361.1,197.2v41.1h5.7c5.9,0,10.7-1.6,14.5-4.8s5.7-8.6,5.7-16.1
						c0-4.4-0.9-8.2-2.7-11.6c-1.8-3.4-4.5-5.6-7.9-6.8c-3.5-1.2-6.8-1.8-9.9-1.8L361.1,197.2L361.1,197.2z"/>
				</g>
			</g>
		</g>
		<g class="st0">
			<g>
				<g>
					<path class="st2" d="M403.6,184.7h15.9l12.3,20.6l12.4-20.6h15.9l-21.2,35.4v31.1h-14.2v-31.1L403.6,184.7z"/>
				</g>
			</g>
			<g>
				<g>
					<path class="st2" d="M496,184.7h14.3v66.5H496V184.7z"/>
				</g>
			</g>
			<g>
				<g>
					<path class="st2" d="M567.6,184.7h14v66.5h-14l-30.4-43v43h-14.3v-66.5h14.2l30.5,42.7V184.7z"/>
				</g>
			</g>
			<g>
				<g>
					<path class="st2" d="M594.7,184.7h22.7c9.7,0,17.5,3.1,23.4,9.2c5.9,6.1,8.9,14.2,8.9,24.2s-3,18.1-9.1,24.1
						s-14.2,9.1-24.3,9.1h-21.5v-66.6H594.7z M609.1,197.2v41.1h5.7c5.9,0,10.7-1.6,14.5-4.8s5.7-8.6,5.7-16.1
						c0-4.4-0.9-8.2-2.7-11.6c-1.8-3.4-4.5-5.6-7.9-6.8c-3.5-1.2-6.8-1.8-9.9-1.8L609.1,197.2L609.1,197.2z"/>
				</g>
			</g>
			<g>
				<g>
					<path class="st2" d="M660.1,184.7h14.3v66.5h-14.3V184.7z"/>
				</g>
			</g>
			<g>
				<g>
					<path class="st2" d="M687.8,184.7h37.4v13.2h-23.1v13.4h23.1v13h-23.1V238h23.1v13.2h-37.4V184.7z"/>
				</g>
			</g>
			<g>
				<g>
					<path class="st2" d="M774.7,190.7l-8.9,9.8c-4.7-2.8-8.1-4.2-10.1-4.2c-1.6,0-3,0.6-4.1,1.8s-1.7,2.6-1.7,4.3
						c0,3.3,3,6.1,8.9,8.5c4.4,1.9,7.6,3.5,9.9,5c2.2,1.5,4.1,3.6,5.6,6.3s2.3,5.6,2.3,8.7c0,5.7-2.3,10.7-6.9,14.9
						c-4.6,4.2-10.1,6.3-16.3,6.3c-6.9,0-13.7-3.2-20.4-9.7l9.4-11c4.2,4.4,8.2,6.5,11.8,6.5c1.7,0,3.4-0.8,5-2.3s2.4-3.1,2.4-4.8
						c0-3.5-3.7-6.5-11-9.2c-4.2-1.5-7.2-3-8.9-4.3c-1.8-1.3-3.2-3.3-4.4-5.8s-1.8-5.2-1.8-7.8c0-5.9,1.9-10.7,5.8-14.4
						c3.8-3.7,8.9-5.5,15.1-5.5C763.6,183.8,769.7,186.1,774.7,190.7z"/>
				</g>
			</g>
		</g>
		<g class="st0">
			<g>
				<g>
					<path class="st2" d="M259.5,374.4c0-5.4,2-10.1,6.1-13.9c4.1-3.9,9-5.8,14.7-5.8c5.6,0,10.4,1.9,14.5,5.8
						c4,3.9,6.1,8.5,6.1,13.9c0,5.7-2,10.5-6,14.4s-8.9,5.9-14.7,5.9c-5.7,0-10.6-2-14.6-5.9C261.5,384.8,259.5,380,259.5,374.4z
						 M295.4,374.6c0-4.1-1.5-7.6-4.5-10.5c-3-2.8-6.7-4.3-11-4.3c-4.1,0-7.7,1.4-10.7,4.3s-4.4,6.3-4.4,10.4s1.5,7.6,4.6,10.4
						s6.8,4.3,11.2,4.3c4,0,7.5-1.4,10.5-4.3C294,382,295.4,378.6,295.4,374.6z"/>
				</g>
			</g>
			<g>
				<g>
					<path class="st2" d="M307.2,355.8H328v5.1h-15.7v9.4H328v5.1h-15.7v18h-5.1L307.2,355.8L307.2,355.8z"/>
				</g>
			</g>
			<g>
				<g>
					<path class="st2" d="M333.6,355.8h20.8v5.1h-15.7v9.4h15.7v5.1h-15.7v18h-5.1L333.6,355.8L333.6,355.8z"/>
				</g>
			</g>
			<g>
				<g>
					<path class="st2" d="M360.3,355.8h5.1v37.5h-5.1V355.8z"/>
				</g>
			</g>
			<g>
				<g>
					<path class="st2" d="M404,357.1v5.8c-4-2-7.8-3-11.2-3c-4.4,0-8,1.4-11,4.2c-3,2.8-4.5,6.3-4.5,10.4c0,4.2,1.5,7.7,4.6,10.5
						s6.9,4.2,11.5,4.2c3.3,0,6.9-1.1,10.6-3.2v5.9c-3.4,1.8-7.1,2.7-11.1,2.7c-5.8,0-10.8-2-14.9-5.9s-6.2-8.7-6.2-14.2
						s2-10.1,6.1-14s8.9-5.8,14.7-5.8C396.3,354.6,400.1,355.5,404,357.1z"/>
				</g>
			</g>
			<g>
				<g>
					<path class="st2" d="M410,355.8h5.1v37.5H410V355.8z"/>
				</g>
			</g>
			<g>
				<g>
					<path class="st2" d="M437.4,354.4l17.7,39h-5.4l-4.4-9.6h-15.9l-4.3,9.6h-5.3L437.4,354.4z M437.3,366.1l-6,13.4h12.1
						L437.3,366.1z"/>
				</g>
			</g>
			<g>
				<g>
					<path class="st2" d="M460.5,355.8h5.1v32.5h12.2v5.1h-17.3L460.5,355.8L460.5,355.8z"/>
				</g>
			</g>
			<g>
				<g>
					<path class="st2" d="M522.6,360l-4.2,3.3c-1.1-1.1-2.1-2-3-2.5c-0.9-0.6-2.2-0.8-3.9-0.8c-1.8,0-3.3,0.4-4.5,1.2
						c-1.1,0.8-1.7,1.9-1.7,3.2c0,1.1,0.5,2.1,1.5,3s2.7,1.8,5.1,2.9c2.4,1,4.3,2,5.6,2.9s2.4,1.9,3.3,3c0.9,1.1,1.5,2.2,1.9,3.4
						s0.6,2.5,0.6,3.8c0,3.1-1.1,5.8-3.4,8c-2.3,2.2-5,3.3-8.2,3.3c-3.1,0-5.9-0.9-8.3-2.6s-4.3-4.3-5.6-7.7l5.1-1.4
						c1.9,4.2,4.7,6.3,8.6,6.3c1.9,0,3.4-0.6,4.7-1.7s1.9-2.5,1.9-4.2c0-1-0.3-2-1-3.1c-0.6-1-1.5-1.9-2.4-2.5
						c-1-0.7-2.5-1.4-4.6-2.3s-3.7-1.7-4.9-2.4c-1.1-0.7-2.1-1.6-2.9-2.6s-1.4-2-1.8-3s-0.6-2-0.6-3.2c0-2.7,1.1-5,3.2-6.9
						s4.8-2.8,7.9-2.8c2,0,4.1,0.4,6.2,1.3C519.5,356.8,521.2,358.2,522.6,360z"/>
				</g>
			</g>
			<g>
				<g>
					<path class="st2" d="M529.4,355.8h20.8v5.1h-15.7v9.4h15.7v5.1h-15.7v12.9h15.7v5.1h-20.8V355.8z"/>
				</g>
			</g>
			<g>
				<g>
					<path class="st2" d="M557,355.8h5.1v32.5h12.2v5.1H557V355.8z"/>
				</g>
			</g>
			<g>
				<g>
					<path class="st2" d="M579.1,355.8h20.8v5.1h-15.7v9.4h15.7v5.1h-15.7v12.9h15.7v5.1h-20.8V355.8z"/>
				</g>
			</g>
			<g>
				<g>
					<path class="st2" d="M636.3,357.1v5.8c-4-2-7.8-3-11.2-3c-4.4,0-8,1.4-11,4.2c-3,2.8-4.5,6.3-4.5,10.4c0,4.2,1.5,7.7,4.6,10.5
						s6.9,4.2,11.5,4.2c3.3,0,6.9-1.1,10.6-3.2v5.9c-3.4,1.8-7.1,2.7-11,2.7c-5.8,0-10.8-2-14.9-5.9c-4.1-3.9-6.2-8.7-6.2-14.2
						s2-10.1,6.1-14s8.9-5.8,14.7-5.8C628.6,354.6,632.4,355.5,636.3,357.1z"/>
				</g>
			</g>
			<g>
				<g>
					<path class="st2" d="M640.1,355.8h23v5.1h-9v32.4H649v-32.4h-8.9V355.8z"/>
				</g>
			</g>
			<g>
				<g>
					<path class="st2" d="M668.7,355.8h5.1v37.5h-5.1V355.8z"/>
				</g>
			</g>
			<g>
				<g>
					<path class="st2" d="M680.5,374.4c0-5.4,2-10.1,6.1-13.9s9-5.8,14.7-5.8c5.6,0,10.4,1.9,14.5,5.8c4,3.9,6.1,8.5,6.1,13.9
						c0,5.7-2,10.5-6,14.4s-8.9,5.9-14.7,5.9c-5.7,0-10.6-2-14.6-5.9C682.5,384.8,680.5,380,680.5,374.4z M716.4,374.6
						c0-4.1-1.5-7.6-4.5-10.5c-3-2.8-6.7-4.3-11-4.3c-4.1,0-7.7,1.4-10.7,4.3s-4.4,6.3-4.4,10.4s1.5,7.6,4.6,10.4s6.8,4.3,11.2,4.3
						c4,0,7.5-1.4,10.5-4.3C715,382,716.4,378.6,716.4,374.6z"/>
				</g>
			</g>
			<g>
				<g>
					<path class="st2" d="M728.3,354.3l27.8,28.5v-27h5.1v39.3l-27.8-28.4v26.7h-5.1V354.3z"/>
				</g>
			</g>
		</g>
		<g class="st0">
			<g>
				<g>
					<path class="st2" d="M284.1,283.8l12.1,27.7l11.3-26.2h5.3L296.2,324l-12.1-27.8L272,324l-16.7-38.7h5.3l11.4,26.5L284.1,283.8
						z"/>
				</g>
			</g>
			<g>
				<g>
					<path class="st2" d="M318.1,285.2h5.1v37.5h-5.1V285.2z"/>
				</g>
			</g>
			<g>
				<g>
					<path class="st2" d="M331.2,283.7l27.8,28.5v-27h5.1v39.3l-27.8-28.4v26.7h-5.1V283.7z"/>
				</g>
			</g>
			<g>
				<g>
					<path class="st2" d="M369.4,285.2h23v5.1h-9v32.4h-5.1v-32.4h-8.9V285.2z"/>
				</g>
			</g>
			<g>
				<g>
					<path class="st2" d="M397.7,285.2h20.8v5.1h-15.7v9.4h15.7v5.1h-15.7v12.9h15.7v5.1h-20.8V285.2z"/>
				</g>
			</g>
			<g>
				<g>
					<path class="st2" d="M425.4,285.2h8.1c4,0,7.3,1,9.9,3c2.5,2,3.8,4.6,3.8,7.7c0,2.5-0.8,4.7-2.5,6.7c-1.6,1.9-4.2,3.3-7.7,4.1
						l10.9,16.1H442l-10.4-15.4h-1.1v15.4h-5.1L425.4,285.2L425.4,285.2z M430.5,289.8v13.1c7.6,0.2,11.3-2,11.3-6.6
						c0-1.6-0.4-2.9-1.3-3.9s-2.1-1.7-3.5-2.1C435.5,290,433.3,289.8,430.5,289.8z"/>
				</g>
			</g>
			<g>
				<g>
					<path class="st2" d="M494.3,289.4l-4.2,3.3c-1.1-1.1-2.1-2-3-2.5c-0.9-0.6-2.2-0.8-3.9-0.8c-1.8,0-3.3,0.4-4.5,1.2
						c-1.1,0.8-1.7,1.9-1.7,3.2c0,1.1,0.5,2.1,1.5,3s2.7,1.8,5.1,2.9c2.4,1,4.3,2,5.6,2.9c1.3,0.9,2.4,1.9,3.3,3s1.5,2.2,1.9,3.4
						s0.6,2.5,0.6,3.8c0,3.1-1.1,5.8-3.4,8s-5,3.3-8.2,3.3c-3.1,0-5.9-0.9-8.3-2.6s-4.3-4.3-5.6-7.7l5.1-1.4
						c1.9,4.2,4.7,6.3,8.6,6.3c1.9,0,3.4-0.6,4.7-1.7c1.2-1.1,1.9-2.5,1.9-4.2c0-1-0.3-2-1-3.1s-1.5-1.9-2.4-2.5
						c-1-0.7-2.5-1.4-4.6-2.3s-3.7-1.7-4.9-2.4c-1.1-0.7-2.1-1.6-2.9-2.6s-1.4-2-1.8-3s-0.6-2-0.6-3.2c0-2.7,1.1-5,3.2-6.9
						s4.8-2.8,7.9-2.8c2,0,4.1,0.4,6.2,1.3C491.2,286.3,492.9,287.6,494.3,289.4z"/>
				</g>
			</g>
			<g>
				<g>
					<path class="st2" d="M501.7,285.2h5.1v14.4h17.9v-14.4h5.1v37.5h-5.1v-18h-17.9v18h-5.1V285.2z"/>
				</g>
			</g>
		</g>
		<g class="st0">
			<g>
				<g>
					<path class="st2" d="M536.4,303.8c0-5.4,2-10.1,6.1-13.9s9-5.8,14.7-5.8c5.6,0,10.4,1.9,14.5,5.8c4,3.9,6.1,8.5,6.1,13.9
						c0,5.7-2,10.5-6,14.4s-8.9,5.9-14.7,5.9c-5.7,0-10.6-2-14.6-5.9C538.5,314.2,536.4,309.4,536.4,303.8z M572.4,304
						c0-4.1-1.5-7.6-4.5-10.5c-3-2.8-6.7-4.3-11-4.3c-4.1,0-7.7,1.4-10.7,4.3s-4.4,6.3-4.4,10.4s1.5,7.6,4.6,10.4s6.8,4.3,11.2,4.3
						c4,0,7.5-1.4,10.5-4.3C570.9,311.4,572.4,308,572.4,304z"/>
				</g>
			</g>
			<g>
				<g>
					<path class="st2" d="M608.4,283.8l12.1,27.7l11.3-26.2h5.3L620.5,324l-12.1-27.8L596.3,324l-16.7-38.7h5.3l11.4,26.5
						L608.4,283.8z"/>
				</g>
			</g>
		</g>
		<g class="st0">
			<g>
				<g>
					<path class="st2" d="M672.8,286.5v5.8c-4-2-7.8-3-11.2-3c-4.4,0-8,1.4-11,4.2c-3,2.8-4.5,6.3-4.5,10.4c0,4.2,1.5,7.7,4.6,10.5
						s6.9,4.2,11.5,4.2c3.3,0,6.9-1.1,10.6-3.2v5.9c-3.4,1.8-7.1,2.7-11,2.7c-5.8,0-10.8-2-14.9-5.9c-4.1-3.9-6.2-8.7-6.2-14.2
						s2-10.1,6.1-14s8.9-5.8,14.7-5.8C665.1,284.1,668.9,284.9,672.8,286.5z"/>
				</g>
			</g>
			<g>
				<g>
					<path class="st2" d="M692.9,283.8l17.7,39h-5.4l-4.4-9.6H685l-4.3,9.6h-5.3L692.9,283.8z M692.9,295.5l-6,13.4H699L692.9,295.5
						z"/>
				</g>
			</g>
			<g>
				<g>
					<path class="st2" d="M738.3,289.4l-4.2,3.3c-1.1-1.1-2.1-2-3-2.5c-0.9-0.6-2.2-0.8-3.9-0.8c-1.8,0-3.3,0.4-4.5,1.2
						c-1.1,0.8-1.7,1.9-1.7,3.2c0,1.1,0.5,2.1,1.5,3s2.7,1.8,5.1,2.9c2.4,1,4.3,2,5.6,2.9s2.4,1.9,3.3,3c0.9,1.1,1.5,2.2,1.9,3.4
						s0.6,2.5,0.6,3.8c0,3.1-1.1,5.8-3.4,8c-2.3,2.2-5,3.3-8.2,3.3c-3.1,0-5.9-0.9-8.3-2.6s-4.3-4.3-5.6-7.7l5.1-1.4
						c1.9,4.2,4.7,6.3,8.6,6.3c1.9,0,3.4-0.6,4.7-1.7s1.9-2.5,1.9-4.2c0-1-0.3-2-1-3.1c-0.6-1-1.5-1.9-2.4-2.5
						c-1-0.7-2.5-1.4-4.6-2.3s-3.7-1.7-4.9-2.4c-1.1-0.7-2.1-1.6-2.9-2.6s-1.4-2-1.8-3c-0.4-1-0.6-2-0.6-3.2c0-2.7,1.1-5,3.2-6.9
						s4.8-2.8,7.9-2.8c2,0,4.1,0.4,6.2,1.3C735.1,286.3,736.9,287.6,738.3,289.4z"/>
				</g>
			</g>
			<g>
				<g>
					<path class="st2" d="M745.1,285.2h20.8v5.1h-15.7v9.4h15.7v5.1h-15.7v12.9h15.7v5.1h-20.8V285.2z"/>
				</g>
			</g>
		</g>
		<g class="st0">
			<g>
				<g>
					<path class="st2" d="M454.4,449.2h15.5v5.4H442l20.8-22.1c1.6-1.7,2.3-3.6,2.3-5.6c0-2.4-0.8-4.5-2.5-6.3
						c-1.6-1.8-3.6-2.7-5.8-2.7c-1.8,0-3.6,0.6-5.2,1.8c-1.6,1.2-2.7,3-3.2,5.4H443c0.5-4,2.1-7.1,4.8-9.4c2.6-2.2,5.7-3.3,9.3-3.3
						c3.6,0,6.7,1.4,9.3,4.2c2.6,2.8,4,6.1,4,10c0,1.9-0.3,3.6-1,5.1s-1.9,3.2-3.6,5.1L454.4,449.2z"/>
				</g>
			</g>
			<g>
				<g>
					<path class="st2" d="M493.1,412.5c4.5,0,8.1,2,10.9,6s4.2,9.3,4.2,15.7c0,6.7-1.5,12-4.5,15.9c-3,4-6.7,5.9-10.9,5.9
						c-4.4,0-8.1-2-11-6.1c-2.9-4-4.4-9.2-4.4-15.5c0-6.9,1.5-12.4,4.5-16.2s6.6-5.8,10.8-5.8h0.4V412.5z M502.4,434.1
						c0-4.6-0.9-8.4-2.7-11.4c-1.8-3-4.1-4.5-6.9-4.5s-5.2,1.5-7,4.4s-2.7,6.8-2.7,11.6c0,4.8,0.9,8.6,2.7,11.5
						c1.8,2.9,4.2,4.3,7.1,4.3c2.8,0,5-1.5,6.8-4.4C501.5,442.8,502.4,438.9,502.4,434.1z"/>
				</g>
			</g>
			<g>
				<g>
					<path class="st2" d="M521.4,414H532v40.7h-5.5v-35.3h-7L521.4,414z"/>
				</g>
			</g>
			<g>
				<g>
					<path class="st2" d="M563,456.8l-4.4-3l9-13c-1.3,0.2-2.2,0.3-2.9,0.3c-4,0-7.4-1.4-10.2-4.1c-2.7-2.7-4.1-6.1-4.1-10.1
						c0-3.9,1.5-7.2,4.5-10.1s6.5-4.3,10.4-4.3s7.4,1.5,10.3,4.4c3,2.9,4.4,6.4,4.4,10.2c0,3.1-1,6.2-3,9.1L563,456.8z M574.4,427.4
						c0-2.5-0.9-4.7-2.7-6.5s-3.9-2.7-6.3-2.7c-2.6,0-4.8,0.9-6.5,2.7c-1.8,1.8-2.6,4-2.6,6.7c0,2.4,0.9,4.5,2.8,6.3
						c1.9,1.7,4.1,2.6,6.7,2.6c2.4,0,4.5-0.9,6.1-2.6C573.6,432,574.4,429.9,574.4,427.4z"/>
				</g>
			</g>
		</g>
		<g>
			<g>
				<path class="st2" d="M234.8,481.7c2-20.5-7.1-38.3-7.1-38.3s-19.9,0.5-19.3,34.3c0.2,11.2,2.6,22.3,7.3,32.6
					c-10.6-6.5-20.6-13.8-30-22l-3.8-3.4c3-1.2,15.3-7.6,19-32.9c3-20.4-6.1-37.9-6.1-37.9l0,0c0,0-20.6,3-21.5,31.4
					c-0.7,21.1,4.6,33.6,6.9,38c-12-10.8-23.4-22.3-34-34.5c8.8-6.6,19.7-13.7,25.1-24.2c8.2-15.9,6.4-25.3,7.6-40
					c-10.5,3.1-21.8,6.1-29.8,28c-4.6,12.7-0.7,18.5-4.2,34.8c-8.5-9.8-16.3-20.2-23.3-31c9.8-4.4,21.3-7.2,29.9-20.8
					c9.6-15.2,7.6-15.3,16.3-40.2c-10.9,1-22.6,1.9-34.6,21.9c-6.9,11.6-6.1,21.8-12.7,37.5c-7.5-11.6-13.8-23.9-19-36.8
					c10.8-2.6,25.1-2.1,38.9-16.6c14.2-14.8,19.1-29.6,22.5-40.4c-10.9,1-27.7,0.5-40.9,17.9c-11.6,15.2-10.9,20-21.3,36.9
					c-1.4-3.7-2.7-7.4-3.9-11.2c-2.6-8.3-4.6-16.7-6-25.3c7.3-0.1,24.7-0.6,40.1-14.6c15.2-13.8,22.3-29.7,26.5-40.3
					c-10.9,0.1-26.8-3.2-43.5,15.5c-12.3,13.7-16.7,23.8-23.7,35.7c-2.3-15.1-3-30.4-2-45.7c6.4,0.2,26.4,1,44.5-12.1
					c16.6-12,24.7-28,30.1-38c-10.9-1.1-26.9-6.4-45.7,10.3c-14.3,12.8-19.9,25.6-28.8,37.6c0.4-5.8,1.1-11.6,1.9-17.3
					c1.8-11.5,4.5-22.8,8-33.8c6.5,1.3,21.8,3.7,41.5-3.4c21.2-7.7,33.1-29,36-34.2c-10.5-3.1-23.1-7-46.1,4.7
					c-13.7,7-23.3,17.4-28.7,24.5c4.3-12.7,9.2-25,14-36.9c6.1,1.7,21.4,5.6,42.1-0.3c21.7-6.1,35.1-26.6,38.4-31.5
					c-10.2-3.8-22.4-8.6-46.3,1.4c-14.7,6.2-25.2,16.4-31,23.2c6.9-15.4,15.3-30,25.1-43.7c4.3,2.1,13.6,6.9,35.6,4.8
					c28-2.6,39.6-20.4,39.6-20.4c-9.5-5.5-18.7-9-37.8-5.6c-12.4,2.2-24,7.7-33.7,15.8c8.3-11.5,16.9-22.8,26-33.8
					c4.6,2,16.6,6.8,39,4.7c28-2.6,42.6-21.3,42.6-21.3c-9.5-5.5-24.2-8.6-43.4-5.3c-11.9,2.2-23.1,7.4-32.6,15
					c6-7.1,12.2-14.1,18.6-20.8c3-3.2,6.3-6.3,9.7-9.3c6.6,0.1,30.7-0.2,43.6-7.7c16.8-9.8,33.4-31,34.7-37.2
					c0,0-26.5-11.6-51.2,9.6c-15.1,13-23.7,25.7-27.1,32c-3.3,2.9-6.4,5.9-9.4,9c-3.3,3.5-6.6,7-9.9,10.6c4.6-7.2,9.9-17.5,12-29.4
					c3.4-19.1,0-40-3.6-45.2c0,0-20.7,12.9-22.2,45.4c-1,22.3,3.3,34,5.3,38.6c-10.4,11.8-20.6,24.2-30,36.6
					c4.2-8,9.9-20.7,12.1-33.8c3.4-20.5-4.9-42.8-6.7-44.8c0,0-21.7,9.5-20.9,46.1c0.2,13.9,3.6,27.5,9.9,39.9c-0.8,1-1.5,2-2.2,3
					c-8.4,11.7-16.2,23.8-23.3,36.2c2.5-8,5.9-21.6,5.2-35.6c-1.6-30.6-22.4-43.6-22.9-43.6c0,0-20,18.1-8.5,56.9
					c5.8,19.8,18.5,27.2,22.4,29.1c-2.7,4.9-5.1,9.6-7.1,13.9c-4.8,10.4-8.7,19.4-12.1,28.4c1.1-8.6,1.8-20.2,0.4-31.5
					c-4.2-33.1-29.9-40.1-30.4-40c0,0-8.8,30.6,3.7,56.8c9.8,20.4,18.1,26,21.8,27.6c-2.3,7.4-4.5,15.1-6.5,24
					c-1.3,5.8-2.4,11.6-3.3,17.4c-0.4-9.9-1.9-25-6.3-37.6c-10.1-29.1-37.7-34.9-38.2-34.8c0,0-4.5,31.2,11.5,55.4
					c14,21.2,27.3,26.3,31.6,27.4c-1.6,16.3-1.5,32.7,0.4,49c-5.7-10.3-7.8-28.8-18.5-44.2c-17.5-25.4-46.4-23.6-46.8-23.3
					c0,0,3.1,31.6,25,50.8c17.9,15.7,34.3,19.9,40.8,21c1.2,9,2.9,18,5,26.9c0.4,1.5,0.8,3,1.2,4.5c-5.2-7-19.5-24.5-38.8-33.8
					c-23.9-11.5-41.3-1.7-41.7-1.3c0,0,12.2,22.4,34.8,33.1c26.1,12.4,42.4,7.4,46.7,5.6c3.7,12.1,8.8,23.8,15.1,34.9
					c-6.3-5.7-20.5-17.2-38.3-22.6c-31.5-9.7-46.4,9.3-46.8,9.8c0,0,12.9,16.3,39.9,23.4c30.5,8.1,44.2-2.6,47.8-6.1
					c9.6,15.8,20.7,30.6,33.2,44.1c-7.1-5.5-21.8-15.9-36.2-19.5c-34.6-8.7-46,11.5-46,11.5s13,15.3,40.7,22.1
					c28.5,7,42.7-6.8,45.5-9.9c10,10.7,20.6,20.8,31.2,30.3c-5.5-2.4-23.4-9.5-40.6-9.4C97.2,484.3,95,503.2,95,503.2
					s12.9,9.3,41.4,8.9c29.4-0.4,37.1-14.4,38.4-17.4l2.1,1.9c11.6,10.1,24.3,18.9,37.7,26.4c-8.2-2.2-26.5-6.3-41.9-4.5
					c-32.4,3.8-35.4,24-35.4,24s13,8.1,40.9,5c28.4-3.1,38.2-18.3,40.3-22.3c22.2,12.3,46,21.8,68,29.7l3.8-10
					c-23.5-8.4-47.8-18.6-70.1-31.8C224.4,509.9,232.9,501.3,234.8,481.7z"/>
			</g>
		</g>
		<g>
			<g>
				<path class="st2" d="M227.7,443.4L227.7,443.4L227.7,443.4z"/>
			</g>
		</g>
		<g>
			<g>
				<path class="st2" d="M957.7,387.7c-17.8,5.5-32,17-38.3,22.7c6.3-11.1,11.3-22.8,15.1-34.9c4.3,1.8,20.7,6.8,46.8-5.6
					c22.5-10.7,34.8-33.1,34.8-33.1c-0.4-0.4-17.8-10.2-41.7,1.3c-19.3,9.3-33.6,26.8-38.8,33.8c0.4-1.5,0.8-3,1.2-4.6
					c2.1-8.9,3.8-17.8,5-26.9c6.5-1.1,22.8-5.4,40.8-21.1c21.9-19.1,25-50.8,25-50.8c-0.4-0.2-29.3-2.1-46.8,23.3
					c-10.6,15.4-12.7,33.9-18.5,44.2c1.8-16.3,2-32.7,0.4-49c4.3-1.1,17.7-6.2,31.7-27.4c16-24.3,11.5-55.4,11.5-55.4
					c-0.5-0.1-28.1,5.6-38.2,34.8c-4.4,12.7-5.8,27.9-6.3,37.8c-0.9-5.9-1.9-11.8-3.3-17.6c-2-8.9-4.1-16.6-6.5-23.9
					c3.7-1.5,12.1-7.2,21.9-27.6c12.5-26.2,3.7-56.8,3.7-56.8c-0.5-0.1-26.2,6.9-30.4,40c-1.5,11.4-0.7,23.1,0.4,31.7
					c-3.4-9.1-7.3-18.1-12.1-28.6c-2-4.3-4.4-9-7.1-13.9c3.9-1.9,16.5-9.4,22.4-29.2c11.5-38.9-8.5-56.9-8.5-56.9
					c-0.5,0-21.3,13-22.8,43.6c-0.7,14.1,2.7,27.7,5.2,35.7c-7.2-12.5-15-24.7-23.5-36.4c-0.7-1-1.5-2-2.2-3
					c6.3-12.4,9.7-26.1,9.9-40c0.8-36.5-20.9-46-20.9-46c-1.8,2-10.1,24.3-6.7,44.8c2.2,13.1,7.9,25.8,12.1,33.8
					c-9.5-12.4-19.6-24.7-30-36.5c2-4.6,6.3-16.3,5.3-38.7C846.8,18.9,826.1,6,826.1,6c-3.6,5.2-7.1,26-3.6,45.2
					c2.2,12,7.5,22.3,12.1,29.5c-3.3-3.6-6.7-7.2-10-10.7c-2.9-3.1-6.1-6-9.3-8.9c-3.4-6.2-12-19-27.2-32
					c-24.7-21.2-51.2-9.6-51.2-9.6c1.3,6.2,17.8,27.4,34.7,37.2c12.9,7.5,36.9,7.8,43.5,7.7c3.4,3,6.7,6.1,9.7,9.3
					c6.3,6.7,12.5,13.7,18.5,20.7c-9.4-7.6-20.6-12.8-32.5-15c-19.2-3.4-33.9-0.3-43.4,5.3c0,0,14.6,18.7,42.6,21.3
					c22.4,2.1,34.4-2.7,39-4.7c9.1,11,17.8,22.3,26,33.8c-9.6-8.2-21.3-13.7-33.7-15.9c-19.2-3.4-28.4,0.1-37.8,5.6
					c0,0,11.7,17.8,39.6,20.4c22.2,2,31.5-2.8,35.7-4.8c9.8,13.7,18.2,28.4,25.1,43.7c-5.8-6.7-16.3-16.9-31-23.1
					c-23.8-10-36.1-5.2-46.4-1.4c3.3,4.9,16.7,25.4,38.4,31.5c20.6,5.8,36,2,42.1,0.3c4.9,11.9,9.8,24.3,14.1,37
					c-5.4-7.1-15-17.6-28.7-24.6c-23.1-11.7-35.6-7.8-46.1-4.7c2.9,5.1,14.8,26.5,36,34.2c19.7,7.1,35,4.6,41.5,3.4
					c3.5,11.1,6.2,22.4,8,33.8c0.9,5.8,1.6,11.5,2,17.3c-8.9-12-14.5-24.9-28.8-37.7c-18.7-16.7-34.8-11.4-45.7-10.3
					c5.4,10.1,13.4,26,30.1,38c18.2,13.1,38.2,12.3,44.5,12.1c1,15.3,0.3,30.6-2,45.7c-6.9-11.9-11.4-22-23.7-35.6
					c-16.7-18.7-32.6-15.4-43.5-15.5c4.2,10.6,11.3,26.5,26.5,40.3c15.4,14,32.8,14.5,40.1,14.6c-1.4,8.5-3.5,17-6,25.3
					c-1.2,3.8-2.5,7.5-3.9,11.2c-10.5-16.8-9.7-21.6-21.4-36.9c-13.2-17.3-30-16.8-40.9-17.8c3.3,10.9,8.3,25.7,22.5,40.5
					c13.8,14.5,28.1,14,38.9,16.6c-5.2,12.8-11.5,25.1-19,36.8c-6.6-15.6-5.8-25.9-12.7-37.5c-11.9-20-23.7-20.9-34.5-21.9
					c8.7,24.9,6.7,25,16.3,40.2c8.6,13.7,20.1,16.4,29.9,20.8c-7.1,10.8-14.9,21.2-23.4,31c-3.5-16.4,0.4-22.1-4.2-34.8
					c-7.9-21.9-19.3-25-29.8-28c1.2,14.7-0.6,24,7.6,40c5.5,10.5,16.4,17.6,25.2,24.2c-10.6,12.2-22,23.7-34,34.5
					c2.3-4.3,7.6-16.9,6.9-38c-1-28.5-21.6-31.5-21.6-31.5l0,0c0,0-9.1,17.6-6.1,37.9c3.8,25.3,16.1,31.7,19,32.9l-3.8,3.4
					c-9.4,8.2-19.4,15.5-30,22c4.6-10.2,7.1-21.3,7.3-32.6c0.6-33.8-19.3-34.3-19.3-34.3l0,0c0,0-9.1,17.8-7.1,38.3
					c1.9,19.6,10.4,28.2,14.6,31.3c-22.3,13.2-46.7,23.4-70.1,31.8l3.8,10c22-7.9,45.8-17.4,68-29.7c2,3.9,11.8,19.2,40.3,22.3
					c27.9,3.1,41-5,41-5s-3-20.2-35.5-24c-15.4-1.8-33.9,2.4-42,4.5c13.4-7.5,26.1-16.4,37.7-26.4l2.1-1.9c1.3,3,9,17,38.4,17.4
					c28.5,0.4,41.4-8.9,41.4-8.9s-2.1-18.9-37.8-19.2c-17.1-0.1-35,7-40.5,9.4c10.7-9.5,21.3-19.6,31.3-30.3c2.7,3,17,16.9,45.5,10
					c27.7-6.8,40.6-22.2,40.6-22.2s-11.5-20.1-46-11.5c-14.5,3.6-29.4,14.2-36.4,19.7c12.6-13.6,23.8-28.4,33.4-44.3
					c3.5,3.5,17.2,14.2,47.8,6.1c27-7.1,39.9-23.4,39.9-23.4C1004.1,397,989.3,378,957.7,387.7z"/>
			</g>
		</g>
	</g>
</g>
</svg>
