<svg xmlns="http://www.w3.org/2000/svg" viewBox="0 0 1022 560.81"><defs><style>.cls-1,.cls-8{font-size:94.53px;font-family:TwCenMT-Bold, Tw Cen MT;font-weight:700;}.cls-1,.cls-3,.cls-6,.cls-7{fill:none;stroke:#203f79;stroke-linecap:round;stroke-linejoin:round;stroke-width:12px;}.cls-2{letter-spacing:-0.04em;}.cls-3,.cls-9{font-size:55.01px;}.cls-10,.cls-3,.cls-6,.cls-9{font-family:TwCenMT-Regular, Tw Cen MT;}.cls-4{letter-spacing:-0.08em;}.cls-5{letter-spacing:-0.07em;}.cls-10,.cls-6{font-size:59.83px;}.cls-10,.cls-11,.cls-8,.cls-9{fill:#eee;}</style></defs><title>Award_PopCon19</title><g id="Layer_2" data-name="Layer 2"><g id="Layer_1-2" data-name="Layer 1"><text class="cls-1" transform="translate(205.16 267.2)">IN<tspan class="cls-2" x="89.59" y="0">D</tspan><tspan x="145.81" y="0">Y POP CON</tspan></text><text class="cls-3" transform="translate(320.26 391.48)">BEST AESTHETICS</text><text class="cls-3" transform="translate(243.77 345.82)">SECRET GAME <tspan class="cls-4" x="333.01" y="0">A</tspan><tspan class="cls-5" x="361.83" y="0">W</tspan><tspan x="413" y="0">ARDS</tspan></text><text class="cls-6" transform="translate(444.97 472.72)">2019</text><path class="cls-7" d="M234.83,481.67c2-20.48-7.11-38.26-7.12-38.27s-19.85.54-19.26,34.32a82.28,82.28,0,0,0,7.27,32.56,222.39,222.39,0,0,1-30-22l-3.83-3.41c3-1.21,15.28-7.65,19-32.93,3-20.36-6.08-37.93-6.08-37.93h0s-20.56,3-21.51,31.38c-.71,21.06,4.64,33.65,6.91,38a407.92,407.92,0,0,1-34-34.52c8.78-6.62,19.68-13.68,25.13-24.22,8.24-15.93,6.41-25.26,7.62-40-10.51,3.07-21.83,6.15-29.75,28.05-4.6,12.72-.69,18.46-4.16,34.79a289,289,0,0,1-23.34-31c9.76-4.44,21.26-7.16,29.89-20.84,9.57-15.17,7.56-15.29,16.25-40.2-10.9,1-22.6,1.89-34.55,21.88-6.89,11.56-6.06,21.82-12.66,37.47a218.49,218.49,0,0,1-19-36.77c10.81-2.57,25.11-2.12,38.9-16.61C154.7,346.63,159.69,331.87,163,321c-10.9,1-27.67.55-40.95,17.91-11.64,15.24-10.9,20-21.35,36.86-1.4-3.68-2.71-7.39-3.88-11.16a197,197,0,0,1-6-25.27c7.31-.14,24.68-.6,40.1-14.6,15.2-13.79,22.28-29.67,26.49-40.28-10.95.15-26.81-3.17-43.54,15.5-12.28,13.71-16.72,23.76-23.67,35.67a213.27,213.27,0,0,1-2-45.71c6.43.18,26.39,1,44.51-12.08,16.64-12,24.7-28,30.06-38-10.89-1.08-26.95-6.4-45.66,10.29-14.32,12.76-19.91,25.58-28.77,37.61Q89,279,90.27,270.4a240.42,240.42,0,0,1,8-33.84c6.5,1.27,21.79,3.74,41.48-3.38,21.21-7.68,33.1-29,36-34.17-10.5-3.09-23.06-7-46.14,4.72-13.69,7-23.26,17.4-28.67,24.52,4.25-12.66,9.16-25,14-36.9,6.1,1.68,21.43,5.56,42.08-.28,21.71-6.14,35.1-26.6,38.37-31.5C185.2,155.74,173,151,149.1,161c-14.7,6.18-25.24,16.44-31,23.16a254.8,254.8,0,0,1,25.1-43.74c4.25,2.07,13.55,6.86,35.65,4.82,28-2.58,39.63-20.42,39.63-20.42-9.46-5.51-18.66-9-37.83-5.6A71.64,71.64,0,0,0,147,135c8.25-11.48,16.94-22.78,26-33.76,4.63,2,16.63,6.8,39,4.74C240,103.4,254.6,84.7,254.6,84.7c-9.46-5.51-24.2-8.63-43.37-5.26a72.58,72.58,0,0,0-32.55,15c6-7.11,12.22-14.07,18.55-20.79,3-3.2,6.3-6.33,9.72-9.35,6.59.08,30.67-.18,43.57-7.67,16.83-9.78,33.35-31,34.66-37.18,0,0-26.5-11.62-51.21,9.6C218.85,42,210.32,54.72,206.85,61c-3.27,2.9-6.42,5.89-9.38,9-3.33,3.46-6.65,7-9.95,10.61,4.6-7.16,9.88-17.45,12-29.41,3.42-19.15,0-40-3.63-45.17,0,0-20.71,12.87-22.22,45.41-1,22.34,3.28,34,5.31,38.62-10.43,11.81-20.58,24.15-30,36.59,4.19-8,9.92-20.67,12.14-33.82C164.56,72.33,156.25,50,154.4,48c0,0-21.67,9.53-20.85,46.07A91.71,91.71,0,0,0,143.46,134c-.75,1-1.49,2-2.23,3a427.77,427.77,0,0,0-23.31,36.22c2.54-8,5.89-21.56,5.16-35.58C121.49,107,100.72,94.05,100.23,94c0,0-20,18.06-8.53,56.92,5.85,19.76,18.45,27.24,22.37,29.14C111.41,185,109,189.7,107,194c-4.79,10.38-8.7,19.38-12.09,28.42,1.08-8.6,1.85-20.21.41-31.52-4.21-33.06-29.93-40.06-30.43-40,0,0-8.81,30.62,3.73,56.84,9.76,20.39,18.08,26,21.84,27.6C88.14,242.69,86,250.43,84,259.3c-1.33,5.79-2.4,11.6-3.25,17.42-.44-9.92-1.86-25-6.25-37.59C64.38,210,36.76,204.27,36.28,204.38c0,0-4.48,31.16,11.53,55.42,14,21.17,27.31,26.27,31.63,27.41a234.87,234.87,0,0,0,.37,49C74.08,325.87,72,307.4,61.35,292c-17.5-25.4-46.36-23.56-46.79-23.32,0,0,3.09,31.65,25,50.78,17.94,15.68,34.25,19.93,40.78,21.05a252.74,252.74,0,0,0,5,26.85c.37,1.51.76,3,1.17,4.52-5.23-7.05-19.5-24.5-38.78-33.79C23.84,326.58,6.43,336.36,6,336.74c0,0,12.24,22.37,34.75,33.08,26.05,12.4,42.45,7.38,46.74,5.61a175,175,0,0,0,15.05,34.89C96.23,404.6,82,393.13,64.26,387.68,32.72,378,17.9,397,17.46,397.49c0,0,12.93,16.26,39.89,23.4,30.5,8.06,44.21-2.58,47.76-6.11a275.28,275.28,0,0,0,33.24,44.11c-7.11-5.53-21.85-15.92-36.23-19.53-34.57-8.66-46,11.46-46,11.46S69,466.23,96.68,473c28.47,7,42.74-6.82,45.53-9.93,10,10.67,20.59,20.76,31.24,30.26-5.53-2.39-23.43-9.5-40.56-9.37-35.63.27-37.77,19.19-37.77,19.19s12.9,9.31,41.44,8.93c29.41-.4,37.1-14.43,38.4-17.41l2.13,1.89A229.32,229.32,0,0,0,214.75,523c-8.18-2.17-26.54-6.32-41.9-4.52-32.45,3.81-35.45,24-35.45,24s13,8.09,40.95,5c28.43-3.13,38.18-18.35,40.26-22.29,22.21,12.26,46,21.82,68,29.67l3.79-10c-23.45-8.38-47.78-18.59-70.1-31.8C224.45,509.88,232.93,501.25,234.83,481.67Z"/><polygon class="cls-7" points="227.72 443.39 227.72 443.39 227.72 443.39 227.72 443.39"/><path class="cls-7" d="M957.74,387.68c-17.8,5.47-32,17-38.34,22.69a174.37,174.37,0,0,0,15.08-34.94c4.25,1.75,20.66,6.82,46.77-5.61,22.51-10.71,34.75-33.08,34.75-33.08-.43-.38-17.84-10.16-41.66,1.32C955,347.38,940.7,364.9,935.51,371.9c.42-1.51.82-3,1.19-4.57a252.74,252.74,0,0,0,5-26.85c6.53-1.12,22.84-5.37,40.78-21.06,21.88-19.12,25-50.77,25-50.77-.43-.24-29.3-2.08-46.8,23.32-10.63,15.43-12.72,33.9-18.45,44.2a234.77,234.77,0,0,0,.37-48.95c4.27-1.12,17.65-6.18,31.67-27.42,16-24.26,11.53-55.42,11.53-55.42-.48-.11-28.1,5.61-38.22,34.75-4.42,12.72-5.83,27.88-6.26,37.81-.86-5.9-1.93-11.78-3.28-17.64-2-8.86-4.14-16.6-6.45-23.92,3.74-1.54,12.07-7.16,21.86-27.61,12.55-26.22,3.73-56.84,3.73-56.84-.49-.05-26.22,6.95-30.43,40-1.45,11.38-.66,23.05.43,31.66-3.4-9.09-7.33-18.13-12.14-28.56-2-4.33-4.4-9-7.06-13.93,3.89-1.88,16.53-9.35,22.4-29.16,11.5-38.86-8.53-56.92-8.53-56.92-.49,0-21.26,13-22.85,43.62-.74,14.12,2.66,27.74,5.21,35.74A429.12,429.12,0,0,0,880.74,137c-.74-1-1.49-2-2.24-3A91.84,91.84,0,0,0,888.41,94C889.22,57.5,867.55,48,867.55,48,865.7,50,857.4,72.33,860.85,92.8c2.22,13.12,7.93,25.77,12.12,33.77-9.45-12.43-19.58-24.74-30-36.52,2-4.59,6.35-16.28,5.32-38.65C846.79,18.87,826.08,6,826.08,6c-3.61,5.2-7.06,26-3.63,45.17,2.15,12,7.46,22.32,12.07,29.48q-5-5.45-10-10.68c-2.93-3.06-6.06-6-9.29-8.9-3.43-6.24-12-19-27.16-32-24.71-21.22-51.21-9.6-51.21-9.6,1.3,6.19,17.82,27.4,34.66,37.18,12.88,7.48,36.93,7.75,43.55,7.67,3.42,3,6.71,6.14,9.72,9.35,6.31,6.71,12.48,13.65,18.51,20.74a72.59,72.59,0,0,0-32.49-15c-19.17-3.37-33.91-.25-43.37,5.26,0,0,14.6,18.7,42.57,21.28,22.39,2.06,34.38-2.73,39-4.73,9.07,11,17.78,22.34,26,33.85a71.68,71.68,0,0,0-33.73-15.9c-19.17-3.37-28.38.09-37.84,5.6,0,0,11.66,17.84,39.63,20.42,22.16,2,31.45-2.78,35.68-4.84a254.33,254.33,0,0,1,25.1,43.72c-5.79-6.73-16.32-16.95-31-23.12-23.85-10-36.1-5.24-46.36-1.41,3.27,4.9,16.66,25.36,38.36,31.5,20.64,5.84,36,2,42.07.29,4.89,11.87,9.81,24.28,14.07,37-5.4-7.12-15-17.61-28.73-24.59-23.08-11.71-35.64-7.81-46.14-4.72,2.91,5.13,14.8,26.49,36,34.17,19.71,7.13,35,4.65,41.5,3.38a237.35,237.35,0,0,1,8,33.84q1.34,8.63,2,17.33c-8.89-12.05-14.48-24.89-28.82-37.68-18.71-16.69-34.77-11.37-45.67-10.29,5.37,10.08,13.42,26,30.07,38,18.16,13.09,38.17,12.26,44.55,12.08a213.76,213.76,0,0,1-2,45.69c-6.94-11.91-11.38-21.95-23.65-35.65-16.73-18.67-32.59-15.35-43.54-15.5,4.2,10.61,11.29,26.49,26.49,40.28,15.4,14,32.76,14.46,40.08,14.6a198.62,198.62,0,0,1-6,25.27c-1.18,3.77-2.49,7.48-3.89,11.16-10.45-16.82-9.71-21.62-21.36-36.86C886.64,321.5,869.87,322,859,321c3.34,10.92,8.33,25.68,22.48,40.55,13.79,14.49,28.09,14,38.9,16.62a218.78,218.78,0,0,1-19,36.76c-6.6-15.65-5.76-25.91-12.66-37.47-11.94-20-23.65-20.86-34.55-21.88,8.7,24.91,6.68,25,16.26,40.2,8.62,13.68,20.12,16.39,29.88,20.83a289.88,289.88,0,0,1-23.37,31c-3.48-16.37.44-22.11-4.16-34.83-7.92-21.9-19.25-25-29.76-28.05,1.21,14.7-.62,24,7.63,40,5.45,10.54,16.36,17.61,25.15,24.24a406.08,406.08,0,0,1-34,34.5c2.26-4.34,7.61-16.93,6.91-38C847.68,417,827.13,414,827.13,414h0s-9.1,17.57-6.08,37.93c3.75,25.28,16.06,31.73,19,32.93l-3.82,3.41a222.52,222.52,0,0,1-30,22,82.07,82.07,0,0,0,7.27-32.57c.59-33.78-19.26-34.32-19.26-34.32h0s-9.11,17.79-7.12,38.28c1.91,19.59,10.39,28.22,14.58,31.34-22.32,13.2-46.65,23.41-70.09,31.79l3.76,10c22-7.86,45.78-17.42,68-29.69,2,3.9,11.78,19.17,40.26,22.31,27.93,3.07,41-5,41-5s-3-20.15-35.45-24c-15.43-1.81-33.87,2.38-42,4.55a229.47,229.47,0,0,0,37.71-26.44l2.12-1.89c1.31,3,9,17,38.4,17.41,28.54.38,41.44-8.93,41.44-8.93s-2.13-18.92-37.77-19.19c-17.12-.13-35,7-40.54,9.36,10.65-9.5,21.25-19.6,31.26-30.28,2.72,3,17,16.94,45.55,10,27.73-6.77,40.58-22.18,40.58-22.18s-11.45-20.12-46-11.46c-14.52,3.64-29.38,14.19-36.42,19.69a275.4,275.4,0,0,0,33.39-44.29c3.52,3.52,17.22,14.21,47.78,6.13,27-7.14,39.88-23.4,39.88-23.4C1004.1,397,989.28,378,957.74,387.68Z"/><text class="cls-8" transform="translate(205.16 267.2)">IN<tspan class="cls-2" x="89.59" y="0">D</tspan><tspan x="145.81" y="0">Y POP CON</tspan></text><text class="cls-9" transform="translate(320.26 391.48)">BEST AESTHETICS</text><text class="cls-9" transform="translate(243.77 345.82)">SECRET GAME <tspan class="cls-4" x="333.01" y="0">A</tspan><tspan class="cls-5" x="361.83" y="0">W</tspan><tspan x="413" y="0">ARDS</tspan></text><text class="cls-10" transform="translate(444.97 472.72)">2019</text><path class="cls-11" d="M234.83,481.67c2-20.48-7.11-38.26-7.12-38.27s-19.85.54-19.26,34.32a82.28,82.28,0,0,0,7.27,32.56,222.39,222.39,0,0,1-30-22l-3.83-3.41c3-1.21,15.28-7.65,19-32.93,3-20.36-6.08-37.93-6.08-37.93h0s-20.56,3-21.51,31.38c-.71,21.06,4.64,33.65,6.91,38a407.92,407.92,0,0,1-34-34.52c8.78-6.62,19.68-13.68,25.13-24.22,8.24-15.93,6.41-25.26,7.62-40-10.51,3.07-21.83,6.15-29.75,28.05-4.6,12.72-.69,18.46-4.16,34.79a289,289,0,0,1-23.34-31c9.76-4.44,21.26-7.16,29.89-20.84,9.57-15.17,7.56-15.29,16.25-40.2-10.9,1-22.6,1.89-34.55,21.88-6.89,11.56-6.06,21.82-12.66,37.47a218.49,218.49,0,0,1-19-36.77c10.81-2.57,25.11-2.12,38.9-16.61C154.7,346.63,159.69,331.87,163,321c-10.9,1-27.67.55-40.95,17.91-11.64,15.24-10.9,20-21.35,36.86-1.4-3.68-2.71-7.39-3.88-11.16a197,197,0,0,1-6-25.27c7.31-.14,24.68-.6,40.1-14.6,15.2-13.79,22.28-29.67,26.49-40.28-10.95.15-26.81-3.17-43.54,15.5-12.28,13.71-16.72,23.76-23.67,35.67a213.27,213.27,0,0,1-2-45.71c6.43.18,26.39,1,44.51-12.08,16.64-12,24.7-28,30.06-38-10.89-1.08-26.95-6.4-45.66,10.29-14.32,12.76-19.91,25.58-28.77,37.61Q89,279,90.27,270.4a240.42,240.42,0,0,1,8-33.84c6.5,1.27,21.79,3.74,41.48-3.38,21.21-7.68,33.1-29,36-34.17-10.5-3.09-23.06-7-46.14,4.72-13.69,7-23.26,17.4-28.67,24.52,4.25-12.66,9.16-25,14-36.9,6.1,1.68,21.43,5.56,42.08-.28,21.71-6.14,35.1-26.6,38.37-31.5C185.2,155.74,173,151,149.1,161c-14.7,6.18-25.24,16.44-31,23.16a254.8,254.8,0,0,1,25.1-43.74c4.25,2.07,13.55,6.86,35.65,4.82,28-2.58,39.63-20.42,39.63-20.42-9.46-5.51-18.66-9-37.83-5.6A71.64,71.64,0,0,0,147,135c8.25-11.48,16.94-22.78,26-33.76,4.63,2,16.63,6.8,39,4.74C240,103.4,254.6,84.7,254.6,84.7c-9.46-5.51-24.2-8.63-43.37-5.26a72.58,72.58,0,0,0-32.55,15c6-7.11,12.22-14.07,18.55-20.79,3-3.2,6.3-6.33,9.72-9.35,6.59.08,30.67-.18,43.57-7.67,16.83-9.78,33.35-31,34.66-37.18,0,0-26.5-11.62-51.21,9.6C218.85,42,210.32,54.72,206.85,61c-3.27,2.9-6.42,5.89-9.38,9-3.33,3.46-6.65,7-9.95,10.61,4.6-7.16,9.88-17.45,12-29.41,3.42-19.15,0-40-3.63-45.17,0,0-20.71,12.87-22.22,45.41-1,22.34,3.28,34,5.31,38.62-10.43,11.81-20.58,24.15-30,36.59,4.19-8,9.92-20.67,12.14-33.82C164.56,72.33,156.25,50,154.4,48c0,0-21.67,9.53-20.85,46.07A91.71,91.71,0,0,0,143.46,134c-.75,1-1.49,2-2.23,3a427.77,427.77,0,0,0-23.31,36.22c2.54-8,5.89-21.56,5.16-35.58C121.49,107,100.72,94.05,100.23,94c0,0-20,18.06-8.53,56.92,5.85,19.76,18.45,27.24,22.37,29.14C111.41,185,109,189.7,107,194c-4.79,10.38-8.7,19.38-12.09,28.42,1.08-8.6,1.85-20.21.41-31.52-4.21-33.06-29.93-40.06-30.43-40,0,0-8.81,30.62,3.73,56.84,9.76,20.39,18.08,26,21.84,27.6C88.14,242.69,86,250.43,84,259.3c-1.33,5.79-2.4,11.6-3.25,17.42-.44-9.92-1.86-25-6.25-37.59C64.38,210,36.76,204.27,36.28,204.38c0,0-4.48,31.16,11.53,55.42,14,21.17,27.31,26.27,31.63,27.41a234.87,234.87,0,0,0,.37,49C74.08,325.87,72,307.4,61.35,292c-17.5-25.4-46.36-23.56-46.79-23.32,0,0,3.09,31.65,25,50.78,17.94,15.68,34.25,19.93,40.78,21.05a252.74,252.74,0,0,0,5,26.85c.37,1.51.76,3,1.17,4.52-5.23-7.05-19.5-24.5-38.78-33.79C23.84,326.58,6.43,336.36,6,336.74c0,0,12.24,22.37,34.75,33.08,26.05,12.4,42.45,7.38,46.74,5.61a175,175,0,0,0,15.05,34.89C96.23,404.6,82,393.13,64.26,387.68,32.72,378,17.9,397,17.46,397.49c0,0,12.93,16.26,39.89,23.4,30.5,8.06,44.21-2.58,47.76-6.11a275.28,275.28,0,0,0,33.24,44.11c-7.11-5.53-21.85-15.92-36.23-19.53-34.57-8.66-46,11.46-46,11.46S69,466.23,96.68,473c28.47,7,42.74-6.82,45.53-9.93,10,10.67,20.59,20.76,31.24,30.26-5.53-2.39-23.43-9.5-40.56-9.37-35.63.27-37.77,19.19-37.77,19.19s12.9,9.31,41.44,8.93c29.41-.4,37.1-14.43,38.4-17.41l2.13,1.89A229.32,229.32,0,0,0,214.75,523c-8.18-2.17-26.54-6.32-41.9-4.52-32.45,3.81-35.45,24-35.45,24s13,8.09,40.95,5c28.43-3.13,38.18-18.35,40.26-22.29,22.21,12.26,46,21.82,68,29.67l3.79-10c-23.45-8.38-47.78-18.59-70.1-31.8C224.45,509.88,232.93,501.25,234.83,481.67Z"/><polygon class="cls-11" points="227.72 443.39 227.72 443.39 227.72 443.39 227.72 443.39"/><path class="cls-11" d="M957.74,387.68c-17.8,5.47-32,17-38.34,22.69a174.37,174.37,0,0,0,15.08-34.94c4.25,1.75,20.66,6.82,46.77-5.61,22.51-10.71,34.75-33.08,34.75-33.08-.43-.38-17.84-10.16-41.66,1.32C955,347.38,940.7,364.9,935.51,371.9c.42-1.51.82-3,1.19-4.57a252.74,252.74,0,0,0,5-26.85c6.53-1.12,22.84-5.37,40.78-21.06,21.88-19.12,25-50.77,25-50.77-.43-.24-29.3-2.08-46.8,23.32-10.63,15.43-12.72,33.9-18.45,44.2a234.77,234.77,0,0,0,.37-48.95c4.27-1.12,17.65-6.18,31.67-27.42,16-24.26,11.53-55.42,11.53-55.42-.48-.11-28.1,5.61-38.22,34.75-4.42,12.72-5.83,27.88-6.26,37.81-.86-5.9-1.93-11.78-3.28-17.64-2-8.86-4.14-16.6-6.45-23.92,3.74-1.54,12.07-7.16,21.86-27.61,12.55-26.22,3.73-56.84,3.73-56.84-.49-.05-26.22,6.95-30.43,40-1.45,11.38-.66,23.05.43,31.66-3.4-9.09-7.33-18.13-12.14-28.56-2-4.33-4.4-9-7.06-13.93,3.89-1.88,16.53-9.35,22.4-29.16,11.5-38.86-8.53-56.92-8.53-56.92-.49,0-21.26,13-22.85,43.62-.74,14.12,2.66,27.74,5.21,35.74A429.12,429.12,0,0,0,880.74,137c-.74-1-1.49-2-2.24-3A91.84,91.84,0,0,0,888.41,94C889.22,57.5,867.55,48,867.55,48,865.7,50,857.4,72.33,860.85,92.8c2.22,13.12,7.93,25.77,12.12,33.77-9.45-12.43-19.58-24.74-30-36.52,2-4.59,6.35-16.28,5.32-38.65C846.79,18.87,826.08,6,826.08,6c-3.61,5.2-7.06,26-3.63,45.17,2.15,12,7.46,22.32,12.07,29.48q-5-5.45-10-10.68c-2.93-3.06-6.06-6-9.29-8.9-3.43-6.24-12-19-27.16-32-24.71-21.22-51.21-9.6-51.21-9.6,1.3,6.19,17.82,27.4,34.66,37.18,12.88,7.48,36.93,7.75,43.55,7.67,3.42,3,6.71,6.14,9.72,9.35,6.31,6.71,12.48,13.65,18.51,20.74a72.59,72.59,0,0,0-32.49-15c-19.17-3.37-33.91-.25-43.37,5.26,0,0,14.6,18.7,42.57,21.28,22.39,2.06,34.38-2.73,39-4.73,9.07,11,17.78,22.34,26,33.85a71.68,71.68,0,0,0-33.73-15.9c-19.17-3.37-28.38.09-37.84,5.6,0,0,11.66,17.84,39.63,20.42,22.16,2,31.45-2.78,35.68-4.84a254.33,254.33,0,0,1,25.1,43.72c-5.79-6.73-16.32-16.95-31-23.12-23.85-10-36.1-5.24-46.36-1.41,3.27,4.9,16.66,25.36,38.36,31.5,20.64,5.84,36,2,42.07.29,4.89,11.87,9.81,24.28,14.07,37-5.4-7.12-15-17.61-28.73-24.59-23.08-11.71-35.64-7.81-46.14-4.72,2.91,5.13,14.8,26.49,36,34.17,19.71,7.13,35,4.65,41.5,3.38a237.35,237.35,0,0,1,8,33.84q1.34,8.63,2,17.33c-8.89-12.05-14.48-24.89-28.82-37.68-18.71-16.69-34.77-11.37-45.67-10.29,5.37,10.08,13.42,26,30.07,38,18.16,13.09,38.17,12.26,44.55,12.08a213.76,213.76,0,0,1-2,45.69c-6.94-11.91-11.38-21.95-23.65-35.65-16.73-18.67-32.59-15.35-43.54-15.5,4.2,10.61,11.29,26.49,26.49,40.28,15.4,14,32.76,14.46,40.08,14.6a198.62,198.62,0,0,1-6,25.27c-1.18,3.77-2.49,7.48-3.89,11.16-10.45-16.82-9.71-21.62-21.36-36.86C886.64,321.5,869.87,322,859,321c3.34,10.92,8.33,25.68,22.48,40.55,13.79,14.49,28.09,14,38.9,16.62a218.78,218.78,0,0,1-19,36.76c-6.6-15.65-5.76-25.91-12.66-37.47-11.94-20-23.65-20.86-34.55-21.88,8.7,24.91,6.68,25,16.26,40.2,8.62,13.68,20.12,16.39,29.88,20.83a289.88,289.88,0,0,1-23.37,31c-3.48-16.37.44-22.11-4.16-34.83-7.92-21.9-19.25-25-29.76-28.05,1.21,14.7-.62,24,7.63,40,5.45,10.54,16.36,17.61,25.15,24.24a406.08,406.08,0,0,1-34,34.5c2.26-4.34,7.61-16.93,6.91-38C847.68,417,827.13,414,827.13,414h0s-9.1,17.57-6.08,37.93c3.75,25.28,16.06,31.73,19,32.93l-3.82,3.41a222.52,222.52,0,0,1-30,22,82.07,82.07,0,0,0,7.27-32.57c.59-33.78-19.26-34.32-19.26-34.32h0s-9.11,17.79-7.12,38.28c1.91,19.59,10.39,28.22,14.58,31.34-22.32,13.2-46.65,23.41-70.09,31.79l3.76,10c22-7.86,45.78-17.42,68-29.69,2,3.9,11.78,19.17,40.26,22.31,27.93,3.07,41-5,41-5s-3-20.15-35.45-24c-15.43-1.81-33.87,2.38-42,4.55a229.47,229.47,0,0,0,37.71-26.44l2.12-1.89c1.31,3,9,17,38.4,17.41,28.54.38,41.44-8.93,41.44-8.93s-2.13-18.92-37.77-19.19c-17.12-.13-35,7-40.54,9.36,10.65-9.5,21.25-19.6,31.26-30.28,2.72,3,17,16.94,45.55,10,27.73-6.77,40.58-22.18,40.58-22.18s-11.45-20.12-46-11.46c-14.52,3.64-29.38,14.19-36.42,19.69a275.4,275.4,0,0,0,33.39-44.29c3.52,3.52,17.22,14.21,47.78,6.13,27-7.14,39.88-23.4,39.88-23.4C1004.1,397,989.28,378,957.74,387.68Z"/></g></g></svg>