<?xml version="1.0" encoding="utf-8"?>
<!-- Generator: Adobe Illustrator 22.1.0, SVG Export Plug-In . SVG Version: 6.00 Build 0)  -->
<svg version="1.1" id="Layer_1" xmlns="http://www.w3.org/2000/svg" xmlns:xlink="http://www.w3.org/1999/xlink" x="0px" y="0px"
	 viewBox="0 0 1022 560.8" style="enable-background:new 0 0 1022 560.8;" xml:space="preserve">
<style type="text/css">
	.st0{enable-background:new    ;}
	.st1{fill:#203F79;}
	.st2{fill:#EEEEEE;}
</style>
<title>Award_PopCon19</title>
<g id="Layer_2_1_">
	<g id="Layer_1-2">
		<g class="st0">
			<g>
				<path class="st1" d="M223.7,273.2h-13.1c-3.3,0-6-2.7-6-6v-60.6c0-3.3,2.7-6,6-6h13.1c3.3,0,6,2.7,6,6v60.6
					C229.7,270.5,227,273.2,223.7,273.2z M216.7,261.2h1.1v-48.6h-1.1V261.2z"/>
			</g>
			<g>
				<path class="st1" d="M288.7,273.2H276c-1.9,0-3.8-0.9-4.9-2.5l-16.8-23.8v20.3c0,3.3-2.7,6-6,6h-13.1c-3.3,0-6-2.7-6-6v-60.6
					c0-3.3,2.7-6,6-6h12.9c1.9,0,3.8,0.9,4.9,2.5l16.9,23.7v-20.2c0-3.3,2.7-6,6-6h12.8c3.3,0,6,2.7,6,6v60.6
					C294.7,270.5,292,273.2,288.7,273.2z M279.1,261.2h3.6v-48.6h-0.8v33c0,2.6-1.7,4.9-4.2,5.7c-2.5,0.8-5.2-0.1-6.7-2.2l-26-36.4
					h-3.8v48.6h1.1V228c0-2.6,1.7-4.9,4.2-5.7c2.5-0.8,5.2,0.1,6.7,2.3L279.1,261.2z"/>
			</g>
		</g>
		<g class="st0">
			<g>
				<path class="st1" d="M320.2,273.2h-19.6c-3.3,0-6-2.7-6-6v-60.6c0-3.3,2.7-6,6-6h20.7c10.5,0,19.1,3.4,25.6,10.2
					c6.5,6.7,9.8,15.5,9.8,26.2c0,10.8-3.4,19.6-10.1,26.2C339.9,269.8,331,273.2,320.2,273.2z M306.6,261.2h5.3
					c-2.4-0.8-4.2-3-4.2-5.7V218c0-2.4,1.4-4.5,3.5-5.4h-4.6V261.2z M325.7,212.9c1.3,0.3,2.6,0.7,3.9,1.1c4.6,1.6,8.1,4.6,10.5,9
					c2.1,3.9,3.2,8.4,3.2,13.4c0,8.6-2.5,15.1-7.3,19.2c-3.1,2.6-6.6,4.3-10.7,5.2c5.2-0.8,9.5-2.8,12.9-6.2
					c4.4-4.4,6.6-10.2,6.6-17.7c0-7.6-2.1-13.4-6.4-17.8C335,215.7,330.8,213.6,325.7,212.9z M319.8,224.1v25.4
					c3.5-0.1,6.3-1.1,8.5-2.9c2-1.7,3.1-5.1,3.1-10.1c0-3-0.6-5.5-1.8-7.7c-0.9-1.7-2.2-2.8-3.9-3.4
					C323.6,224.6,321.6,224.2,319.8,224.1z"/>
			</g>
		</g>
		<g class="st0">
			<g>
				<path class="st1" d="M384.7,273.2h-12.9c-3.3,0-6-2.7-6-6v-26.7l-18.4-30.8c-1.1-1.9-1.1-4.2-0.1-6c1.1-1.9,3.1-3,5.2-3H367
					c2.1,0,4.1,1.1,5.2,2.9l6.1,10.2l6.2-10.2c1.1-1.8,3-2.9,5.1-2.9H404c2.2,0,4.2,1.2,5.2,3c1.1,1.9,1,4.2-0.1,6l-18.4,30.8v26.7
					C390.7,270.5,388,273.2,384.7,273.2z M377.8,261.2h0.9v-22.3c0-1.1,0.3-2.1,0.9-3.1l13.9-23.2h-0.6l-9.6,15.9
					c-1.1,1.8-3.1,2.9-5.2,2.9c-2.1,0-4.1-1.1-5.1-2.9l-9.4-15.9h-0.5l13.9,23.2c0.6,0.9,0.9,2,0.9,3.1V261.2z"/>
			</g>
			<g>
				<path class="st1" d="M450.6,273.2h-13c-3.3,0-6-2.7-6-6v-60.6c0-3.3,2.7-6,6-6h20.7c7.1,0,13.1,2.2,17.6,6.5
					c4.6,4.4,7,10.2,7,17.2c0,4.5-1.1,8.7-3.2,12.7c-2.3,4.3-5.8,7.5-10.4,9.6c-4.2,1.9-7.8,2.9-11,2.9l-1.7,0v17.6
					C456.6,270.5,453.9,273.2,450.6,273.2z M443.7,261.2h1v-17.4c0-2.3,1.3-4.3,3.2-5.3c-2-1-3.4-3-3.4-5.4v-15.5c0-2,1-3.8,2.5-4.9
					h-3.3V261.2z M461.6,212.8c1.1,0.5,2,1.1,2.9,1.7c3.2,2.5,5,6.1,5,10.5c0,3.7-1.4,7.1-4.1,9.8c-0.3,0.3-0.5,0.5-0.8,0.7
					c2.1-1,3.6-2.4,4.6-4.3c1.2-2.3,1.8-4.6,1.8-7.1c0-3.7-1-6.3-3.3-8.5C466.1,214.3,464.1,213.3,461.6,212.8z M456.4,223.7v3.1
					c0.1-0.1,0.3-0.2,0.4-0.3c0.5-0.5,0.6-0.9,0.6-1.4c0-0.7-0.1-0.9-0.3-1C457,224,456.8,223.9,456.4,223.7z"/>
			</g>
			<g>
				<path class="st1" d="M515.9,273.9c-10.5,0-19.3-3.6-26.1-10.6c-6.8-7-10.3-15.9-10.3-26.5c0-10.6,3.6-19.5,10.7-26.5
					c7.1-6.9,15.6-10.5,25.3-10.5c10.6,0,19.5,3.5,26.5,10.5c7,7,10.6,15.9,10.6,26.5c0,10.5-3.5,19.4-10.5,26.4
					C535.2,270.4,526.4,273.9,515.9,273.9z M515.5,211.9c-6.5,0-12.1,2.3-16.9,7c-4.8,4.7-7.1,10.6-7.1,17.9
					c0,7.5,2.2,13.4,6.9,18.1c4.6,4.7,10.3,7,17.5,7c7.2,0,13-2.3,17.7-7c4.7-4.8,7-10.6,7-17.9c0-7.4-2.3-13.2-7.1-18
					C528.8,214.3,522.9,211.9,515.5,211.9z M515.9,261.9c-6.5,0-12.2-2.5-16.5-7.3c-4.2-4.7-6.3-10.5-6.3-17.4
					c0-7.1,2.1-13.2,6.1-17.9c4.2-4.8,9.8-7.3,16.5-7.3c0.2,0,0.3,0,0.5,0c6.8,0.1,12.4,2.6,16.6,7.3c4.1,4.5,6.1,10.4,6.1,17.6
					c0,7.2-2.1,13.2-6.2,17.8C528.5,259.4,522.7,261.9,515.9,261.9z M515.7,224c-3.1,0-5.5,1-7.4,3.2c-2.2,2.5-3.2,5.8-3.2,10
					c0,3.9,1.1,7,3.2,9.4c2,2.3,4.4,3.3,7.5,3.3c3.4,0,5.9-1,7.8-3.2c2.1-2.4,3.2-5.6,3.2-9.8c0-4.1-1-7.3-3.1-9.6
					c-1.9-2.2-4.4-3.2-7.8-3.3h0C515.9,224,515.8,224,515.7,224z"/>
			</g>
			<g>
				<path class="st1" d="M570.8,273.2h-13c-3.3,0-6-2.7-6-6v-60.6c0-3.3,2.7-6,6-6h20.7c7.1,0,13.1,2.2,17.6,6.5
					c4.6,4.4,7,10.2,7,17.2c0,4.5-1.1,8.7-3.2,12.7c-2.3,4.3-5.8,7.5-10.4,9.6c-4.2,1.9-7.8,2.9-11,2.9l-1.7,0v17.6
					C576.8,270.5,574.1,273.2,570.8,273.2z M563.8,261.2h1v-17.4c0-2.3,1.3-4.3,3.2-5.3c-2-1-3.4-3-3.4-5.4v-15.5c0-2,1-3.8,2.5-4.9
					h-3.3V261.2z M581.7,212.8c1.1,0.5,2,1.1,2.9,1.7c3.2,2.5,5,6.1,5,10.5c0,3.7-1.4,7.1-4.1,9.8c-0.3,0.3-0.5,0.5-0.8,0.7
					c2.1-1,3.6-2.4,4.6-4.3c1.2-2.3,1.8-4.6,1.8-7.1c0-3.7-1-6.3-3.3-8.5C586.2,214.3,584.2,213.3,581.7,212.8z M576.6,223.7v3.1
					c0.1-0.1,0.3-0.2,0.4-0.3c0.5-0.5,0.6-0.9,0.6-1.4c0-0.7-0.1-0.9-0.3-1C577.2,224,577,223.9,576.6,223.7z"/>
			</g>
			<g>
				<path class="st1" d="M660.4,274c-9.8,0-18.3-3.6-25.1-10.8c-6.8-7.1-10.2-15.9-10.2-26c0-10.3,3.5-19.2,10.4-26.4
					c6.9-7.3,15.5-11,25.5-11c6.2,0,12.8,1.5,19.6,4.6c2.2,1,3.6,3.1,3.6,5.5v14.8c0,2.2-1.2,4.2-3,5.2c-1.9,1.1-4.2,1-6-0.1
					c-5.6-3.4-10.3-5.1-14.1-5.1c-3.2,0-5.5,1-7.3,3c-2,2.3-3,5.5-3,9.7c0,3.8,1,6.7,3,8.8c2,2.1,4.6,3,8.1,3c3.4,0,8-1.6,13.3-4.7
					c1.9-1.1,4.1-1.1,6,0c1.9,1.1,3,3.1,3,5.2v14.7c0,2.6-1.7,4.9-4.1,5.7C672.2,272.8,665.8,274,660.4,274z M660.9,211.8
					c-6.7,0-12.2,2.4-16.8,7.3c-4.7,5-7,10.9-7,18.1c0,7.1,2.3,12.9,6.9,17.8c4.6,4.8,9.9,7.1,16.4,7.1c3.2,0,7.1-0.7,11.8-2v-0.8
					c-3.7,1.3-7.1,2-10.3,2c-6.9,0-12.5-2.3-16.8-6.7c-4.2-4.4-6.3-10.2-6.3-17.1c0-7.2,2-13.1,5.9-17.6c4.1-4.7,9.7-7.1,16.3-7.1
					c3.5,0,7.2,0.7,11.2,2.3v-1.1C668.1,212.5,664.4,211.8,660.9,211.8z"/>
			</g>
			<g>
				<path class="st1" d="M716.4,273.9c-10.5,0-19.3-3.6-26.1-10.6c-6.8-7-10.3-15.9-10.3-26.5c0-10.6,3.6-19.5,10.7-26.5
					c7.1-6.9,15.6-10.5,25.3-10.5c10.6,0,19.5,3.5,26.5,10.5c7,7,10.6,15.9,10.6,26.5c0,10.5-3.5,19.4-10.5,26.4
					C735.6,270.4,726.8,273.9,716.4,273.9z M715.9,211.9c-6.5,0-12.1,2.3-16.9,7c-4.8,4.7-7.1,10.6-7.1,17.9
					c0,7.5,2.2,13.4,6.9,18.1c4.6,4.7,10.3,7,17.5,7c7.2,0,13-2.3,17.7-7c4.7-4.8,7-10.6,7-17.9c0-7.4-2.3-13.2-7.1-18
					C729.2,214.3,723.3,211.9,715.9,211.9z M716.4,261.9c-6.5,0-12.2-2.5-16.5-7.3c-4.2-4.7-6.3-10.5-6.3-17.4
					c0-7.1,2.1-13.2,6.1-17.9c4.3-4.9,10.1-7.5,16.9-7.3c6.8,0.1,12.4,2.6,16.6,7.3c4.1,4.5,6.1,10.4,6.1,17.6
					c0,7.2-2.1,13.2-6.2,17.8C728.9,259.4,723.1,261.9,716.4,261.9z M716.2,224c-3.1,0-5.5,1-7.4,3.2c-2.2,2.5-3.2,5.8-3.2,10
					c0,3.9,1.1,7,3.2,9.4c2,2.3,4.4,3.3,7.5,3.3c3.4,0,5.9-1,7.8-3.2c2.1-2.4,3.2-5.6,3.2-9.8c0-4.1-1-7.3-3.1-9.6
					c-1.9-2.2-4.4-3.2-7.8-3.3h0C716.3,224,716.2,224,716.2,224z"/>
			</g>
			<g>
				<path class="st1" d="M810.8,273.2h-12.7c-1.9,0-3.8-0.9-4.9-2.5l-16.8-23.8v20.3c0,3.3-2.7,6-6,6h-13.1c-3.3,0-6-2.7-6-6v-60.6
					c0-3.3,2.7-6,6-6h12.9c1.9,0,3.8,0.9,4.9,2.5l16.9,23.7v-20.2c0-3.3,2.7-6,6-6h12.8c3.3,0,6,2.7,6,6v60.6
					C816.8,270.5,814.1,273.2,810.8,273.2z M801.2,261.2h3.6v-48.6H804v33c0,2.6-1.7,4.9-4.2,5.7c-2.5,0.8-5.2-0.1-6.7-2.2l-26-36.4
					h-3.8v48.6h1.1V228c0-2.6,1.7-4.9,4.2-5.7c2.5-0.8,5.2,0.1,6.7,2.3L801.2,261.2z"/>
			</g>
		</g>
		<g class="st0">
			<g>
				<path class="st1" d="M330.1,397.5h-5.6c-3.3,0-6-2.7-6-6v-34.2c0-3.3,2.7-6,6-6h5.4c4.8,0,8.9,1.1,12.1,3.4
					c3.9,2.6,6,6.5,6,10.8c0,1.7-0.3,3.8-1.4,6c3.5,3.5,4.2,7.5,4.2,10.2c0,5-2.3,9.2-6.6,12.1C340.5,396.2,335.8,397.5,330.1,397.5
					z"/>
			</g>
			<g>
				<path class="st1" d="M369.9,397.5h-19c-3.3,0-6-2.7-6-6v-34.2c0-3.3,2.7-6,6-6h19c3.3,0,6,2.7,6,6v4.7c0,1.7-0.7,3.2-1.8,4.3
					c1.1,1.1,1.8,2.6,1.8,4.3v4.6c0,2.9-2.1,5.3-4.8,5.9c2.7,0.6,4.8,3,4.8,5.9v4.6C375.9,394.8,373.2,397.5,369.9,397.5z"/>
			</g>
			<g>
				<path class="st1" d="M386.6,398.6c-4.1,0-7.9-1.2-11.1-3.5c-3.2-2.3-5.6-5.6-7.2-9.8c-0.6-1.6-0.5-3.3,0.3-4.8
					c0.8-1.5,2.1-2.6,3.7-3.1l3.2-0.9c-0.8-0.6-1.5-1.3-2.1-2.1c-1.2-1.4-2.1-2.9-2.6-4.4c-0.6-1.6-0.9-3.3-0.9-5.1
					c0-4.2,1.7-7.9,5-10.8c3.1-2.7,6.8-4.1,11.1-4.1c2.7,0,5.3,0.6,8,1.7c2.9,1.2,5.3,3.1,7.2,5.5c2,2.6,1.6,6.3-1,8.3l-3.8,3
					c0,0-0.1,0-0.1,0.1c1.3,1,2.4,2,3.3,3.2c1.2,1.5,2.1,3.1,2.7,4.9c0.6,1.7,0.9,3.6,0.9,5.5c0,4.5-1.7,8.5-4.9,11.6
					C395.1,397,391,398.6,386.6,398.6z"/>
			</g>
			<g>
				<path class="st1" d="M413.6,397.5H409c-3.3,0-6-2.7-6-6v-23.5h-2.1c-3.3,0-6-2.7-6-6v-4.7c0-3.3,2.7-6,6-6h20.9c3.3,0,6,2.7,6,6
					v4.7c0,3.3-2.7,6-6,6h-2.2v23.5C419.6,394.8,416.9,397.5,413.6,397.5z"/>
			</g>
			<g>
				<path class="st1" d="M471.1,397.5h-4.9c-2.4,0-4.5-1.4-5.5-3.5l-2.4-5.2h-6.8l-2.3,5.2c-1,2.2-3.1,3.5-5.5,3.5H439
					c-2,0-3.9-1-5-2.7c-1.1-1.7-1.3-3.9-0.4-5.7l16-35.5c1-2.1,3.1-3.5,5.5-3.5c0,0,0,0,0,0c2.4,0,4.5,1.4,5.5,3.5l16.2,35.5
					c0.8,1.9,0.7,4-0.4,5.7C475.1,396.4,473.2,397.5,471.1,397.5z"/>
			</g>
			<g>
				<path class="st1" d="M494,397.5h-19c-3.3,0-6-2.7-6-6v-34.2c0-3.3,2.7-6,6-6h19c3.3,0,6,2.7,6,6v4.7c0,1.7-0.7,3.2-1.8,4.3
					c1.1,1.1,1.8,2.6,1.8,4.3v4.6c0,2.9-2.1,5.3-4.8,5.9c2.7,0.6,4.8,3,4.8,5.9v4.6C500,394.8,497.3,397.5,494,397.5z"/>
			</g>
			<g>
				<path class="st1" d="M510.6,398.6c-4.1,0-7.9-1.2-11.1-3.5c-3.2-2.3-5.6-5.6-7.2-9.8c-0.6-1.6-0.5-3.3,0.3-4.8
					c0.8-1.5,2.1-2.6,3.7-3.1l3.2-0.9c-0.8-0.6-1.5-1.3-2.1-2.1c-1.2-1.4-2.1-2.9-2.6-4.4c-0.6-1.6-0.9-3.3-0.9-5.1
					c0-4.2,1.7-7.9,5-10.8c3.1-2.7,6.8-4.1,11.1-4.1c2.7,0,5.3,0.6,8,1.7c2.9,1.2,5.3,3.1,7.2,5.5c2,2.6,1.6,6.3-1,8.3l-3.8,3
					c0,0-0.1,0-0.1,0.1c1.3,1,2.4,2,3.3,3.2c1.2,1.5,2.1,3.1,2.7,4.9c0.6,1.7,0.9,3.6,0.9,5.5c0,4.5-1.7,8.5-4.9,11.6
					C519.2,397,515.1,398.6,510.6,398.6z"/>
			</g>
			<g>
				<path class="st1" d="M537.7,397.5h-4.6c-3.3,0-6-2.7-6-6v-23.5h-2.1c-3.3,0-6-2.7-6-6v-4.7c0-3.3,2.7-6,6-6h20.9
					c3.3,0,6,2.7,6,6v4.7c0,3.3-2.7,6-6,6h-2.2v23.5C543.7,394.8,541,397.5,537.7,397.5z"/>
			</g>
			<g>
				<path class="st1" d="M576.9,397.5h-4.6c-3.3,0-6-2.7-6-6V381H562v10.4c0,3.3-2.7,6-6,6h-4.7c-3.3,0-6-2.7-6-6v-34.2
					c0-3.3,2.7-6,6-6h4.7c3.3,0,6,2.7,6,6v7.2h4.4v-7.2c0-3.3,2.7-6,6-6h4.6c3.3,0,6,2.7,6,6v34.2
					C582.9,394.8,580.3,397.5,576.9,397.5z"/>
			</g>
			<g>
				<path class="st1" d="M602.9,397.5h-19c-3.3,0-6-2.7-6-6v-34.2c0-3.3,2.7-6,6-6h19c3.3,0,6,2.7,6,6v4.7c0,1.7-0.7,3.2-1.8,4.3
					c1.1,1.1,1.8,2.6,1.8,4.3v4.6c0,2.9-2.1,5.3-4.8,5.9c2.7,0.6,4.8,3,4.8,5.9v4.6C608.9,394.8,606.3,397.5,602.9,397.5z"/>
			</g>
			<g>
				<path class="st1" d="M619.1,397.5h-4.6c-3.3,0-6-2.7-6-6v-23.5h-2.1c-3.3,0-6-2.7-6-6v-4.7c0-3.3,2.7-6,6-6h20.9
					c3.3,0,6,2.7,6,6v4.7c0,3.3-2.7,6-6,6h-2.2v23.5C625.1,394.8,622.4,397.5,619.1,397.5z"/>
			</g>
			<g>
				<path class="st1" d="M637.1,397.5h-4.6c-3.3,0-6-2.7-6-6v-34.2c0-3.3,2.7-6,6-6h4.6c3.3,0,6,2.7,6,6v34.2
					C643.1,394.8,640.4,397.5,637.1,397.5z"/>
			</g>
			<g>
				<path class="st1" d="M662.2,398.6c-6.9,0-12.8-2.4-17.7-7c-5-4.7-7.5-10.6-7.5-17.3c0-6.7,2.5-12.4,7.4-17.1
					c4.8-4.6,10.7-7,17.5-7c4.1,0,8.4,0.9,12.7,2.7c2.2,0.9,3.7,3.1,3.7,5.5v5.3c0,2.1-1.1,4-2.8,5.1s-4,1.2-5.8,0.3
					c-2.8-1.4-5.4-2.1-7.5-2.1c-2.4,0-4.3,0.7-5.9,2.2c-1.5,1.4-2.2,3-2.2,5.1c0,2.1,0.7,3.7,2.2,5.1c1.7,1.5,3.7,2.3,6.4,2.3
					c2,0,4.2-0.7,6.7-2.1c1.9-1,4.1-1,6,0c1.8,1.1,3,3,3,5.2v5.3c0,2.2-1.2,4.3-3.2,5.3C671.1,397.6,666.8,398.6,662.2,398.6z"/>
			</g>
			<g>
				<path class="st1" d="M688.9,398.6c-4.1,0-7.9-1.2-11.1-3.5c-3.2-2.3-5.6-5.6-7.2-9.8c-0.6-1.6-0.5-3.3,0.3-4.8
					c0.8-1.5,2.1-2.6,3.7-3.1l3.2-0.9c-0.8-0.6-1.5-1.3-2.1-2.1c-1.2-1.4-2.1-2.9-2.6-4.4c-0.6-1.6-0.9-3.3-0.9-5.1
					c0-4.2,1.7-7.9,5-10.8c3.1-2.7,6.8-4.1,11.1-4.1c2.7,0,5.3,0.6,8,1.7c2.9,1.2,5.3,3.1,7.2,5.5c2,2.6,1.6,6.3-1,8.3l-3.8,3
					c0,0-0.1,0-0.1,0.1c1.3,1,2.4,2,3.3,3.2c1.2,1.5,2.1,3.1,2.7,4.9c0.6,1.7,0.9,3.6,0.9,5.5c0,4.5-1.7,8.5-4.9,11.6
					C697.5,397,693.4,398.6,688.9,398.6z"/>
			</g>
		</g>
		<g class="st0">
			<g>
				<path class="st1" d="M258.5,353c-4.1,0-7.9-1.2-11.1-3.5c-3.2-2.3-5.6-5.6-7.2-9.8c-0.6-1.6-0.5-3.3,0.3-4.8
					c0.8-1.5,2.1-2.6,3.7-3.1l3.2-0.9c-0.8-0.6-1.5-1.4-2.1-2.1c-1.2-1.4-2.1-2.9-2.6-4.4c-0.6-1.6-0.9-3.3-0.9-5.1
					c0-4.2,1.7-7.9,5-10.8c3.1-2.7,6.8-4.1,11.1-4.1c2.7,0,5.3,0.6,8,1.7c2.9,1.2,5.3,3.1,7.2,5.5c2,2.6,1.6,6.3-1,8.3l-3.8,3
					c0,0-0.1,0-0.1,0.1c1.3,1,2.4,2,3.3,3.2c1.2,1.5,2.1,3.1,2.7,4.9c0.6,1.7,0.9,3.6,0.9,5.5c0,4.5-1.7,8.5-4.9,11.6
					C267,351.4,262.9,353,258.5,353z"/>
			</g>
			<g>
				<path class="st1" d="M293.4,351.8h-19c-3.3,0-6-2.7-6-6v-34.2c0-3.3,2.7-6,6-6h19c3.3,0,6,2.7,6,6v4.7c0,1.7-0.7,3.2-1.8,4.3
					c1.1,1.1,1.8,2.6,1.8,4.3v4.6c0,2.9-2.1,5.3-4.8,5.9c2.7,0.6,4.8,3,4.8,5.9v4.6C299.4,349.1,296.7,351.8,293.4,351.8z"/>
			</g>
			<g>
				<path class="st1" d="M316.5,353c-6.9,0-12.8-2.4-17.7-7c-5-4.7-7.5-10.6-7.5-17.3c0-6.7,2.5-12.4,7.4-17.1
					c4.8-4.6,10.7-7,17.5-7c4.1,0,8.4,0.9,12.7,2.7c2.2,0.9,3.7,3.1,3.7,5.5v5.3c0,2.1-1.1,4-2.8,5.1c-1.8,1.1-4,1.2-5.8,0.3
					c-2.8-1.4-5.4-2.1-7.5-2.1c-2.4,0-4.3,0.7-5.9,2.2c-1.5,1.4-2.2,3-2.2,5.1c0,2.1,0.7,3.7,2.2,5.1c1.7,1.5,3.7,2.3,6.4,2.3
					c2,0,4.2-0.7,6.7-2.1c1.9-1,4.1-1,6,0c1.8,1.1,3,3,3,5.2v5.3c0,2.2-1.2,4.3-3.2,5.3C325.5,351.9,321.1,353,316.5,353z"/>
			</g>
			<g>
				<path class="st1" d="M353.5,351.8h-5.4c-2,0-3.9-1-5-2.6l-0.3-0.5c-1,1.9-3,3.1-5.3,3.1h-4.7c-3.3,0-6-2.7-6-6v-34.2
					c0-3.3,2.7-6,6-6h7.4c5.1,0,9.3,1.4,12.7,4c3.8,3,5.8,7,5.8,11.8c0,3.7-1.3,7.1-3.7,10c-0.8,0.9-1.6,1.7-2.6,2.4l5.9,8.7
					c1.2,1.8,1.4,4.2,0.3,6.2C357.7,350.6,355.7,351.8,353.5,351.8z"/>
			</g>
			<g>
				<path class="st1" d="M378.3,351.8h-19c-3.3,0-6-2.7-6-6v-34.2c0-3.3,2.7-6,6-6h19c3.3,0,6,2.7,6,6v4.7c0,1.7-0.7,3.2-1.8,4.3
					c1.1,1.1,1.8,2.6,1.8,4.3v4.6c0,2.9-2.1,5.3-4.8,5.9c2.7,0.6,4.8,3,4.8,5.9v4.6C384.3,349.1,381.6,351.8,378.3,351.8z"/>
			</g>
			<g>
				<path class="st1" d="M394.4,351.8h-4.6c-3.3,0-6-2.7-6-6v-23.5h-2.1c-3.3,0-6-2.7-6-6v-4.7c0-3.3,2.7-6,6-6h20.9
					c3.3,0,6,2.7,6,6v4.7c0,3.3-2.7,6-6,6h-2.2v23.5C400.4,349.1,397.7,351.8,394.4,351.8z"/>
			</g>
			<g>
				<path class="st1" d="M441,353c-7.6,0-13.8-2.5-18.5-7.4c-4.6-4.8-6.9-10.5-6.9-16.9c0-6.7,2.4-12.4,7.2-17.1
					c4.7-4.7,10.6-7,17.3-7c3.7,0,7.2,0.6,10.4,1.8c3.3,1.2,6.6,3.4,9.8,6.5c1.2,1.1,1.8,2.7,1.8,4.3c0,1.6-0.6,3.2-1.8,4.3
					l-1.2,1.2h0.2c3.3,0,6,2.7,6,6c0,2.8-0.2,5.1-0.6,6.9c-0.5,2-1.3,4.1-2.6,6.3c-1.3,2.3-3.1,4.4-5.3,6.1
					c-2.2,1.8-4.7,3.1-7.3,3.9C447,352.6,444.2,353,441,353z M440.5,321.4c-2.5,0-4.3,0.7-5.9,2.2c-1.5,1.4-2.2,3.1-2.2,5.3
					c0,1.8,0.7,3.4,2.2,5c0.8,0.8,2,1.8,4.7,2.1c-0.4-0.8-0.7-1.8-0.7-2.8v-4.7c0-3.3,2.7-6,6-6h0.7
					C443.9,321.7,442.3,321.4,440.5,321.4z"/>
			</g>
			<g>
				<path class="st1" d="M494.4,351.8h-4.9c-2.4,0-4.5-1.4-5.5-3.5l-2.4-5.2h-6.8l-2.3,5.2c-1,2.2-3.1,3.5-5.5,3.5h-4.9
					c-2,0-3.9-1-5-2.7c-1.1-1.7-1.3-3.9-0.4-5.7l16-35.5c1-2.1,3.1-3.5,5.5-3.5c0,0,0,0,0,0c2.4,0,4.5,1.4,5.5,3.5l16.2,35.5
					c0.8,1.9,0.7,4-0.4,5.7C498.3,350.8,496.4,351.8,494.4,351.8z"/>
			</g>
			<g>
				<path class="st1" d="M516.3,353.1C516.3,353.1,516.3,353.1,516.3,353.1c-2.4,0-4.6-1.5-5.5-3.7l-2.9-7l-1.3,4.8
					c-0.7,2.6-3.1,4.5-5.8,4.5h-4.6c-1.9,0-3.6-0.9-4.8-2.3c-1.1-1.5-1.5-3.4-1.1-5.2l9.4-35.6c0.7-2.5,2.8-4.3,5.4-4.5
					c2.6-0.2,5,1.3,6,3.7l5.2,12.3l5.1-12.3c1-2.4,3.4-3.9,6-3.7c2.6,0.2,4.7,2,5.4,4.5l9.4,35.6c0.5,1.8,0.1,3.7-1.1,5.2
					c-1.1,1.5-2.9,2.3-4.8,2.3h-4.6c-2.7,0-5.1-1.8-5.8-4.5l-1.2-4.7l-2.9,6.8C520.9,351.7,518.7,353.1,516.3,353.1z"/>
			</g>
			<g>
				<path class="st1" d="M559.7,351.8h-19c-3.3,0-6-2.7-6-6v-34.2c0-3.3,2.7-6,6-6h19c3.3,0,6,2.7,6,6v4.7c0,1.7-0.7,3.2-1.8,4.3
					c1.1,1.1,1.8,2.6,1.8,4.3v4.6c0,2.9-2.1,5.3-4.8,5.9c2.7,0.6,4.8,3,4.8,5.9v4.6C565.7,349.1,563,351.8,559.7,351.8z"/>
			</g>
		</g>
		<g class="st0">
			<g>
				<path class="st1" d="M609.3,351.8h-4.9c-2.4,0-4.5-1.4-5.5-3.5l-2.4-5.2h-6.8l-2.3,5.2c-1,2.2-3.1,3.5-5.5,3.5h-4.9
					c-2,0-3.9-1-5-2.7c-1.1-1.7-1.3-3.9-0.4-5.7l16-35.5c1-2.1,3.1-3.5,5.5-3.5c0,0,0,0,0,0c2.4,0,4.5,1.4,5.5,3.5l16.2,35.5
					c0.8,1.9,0.7,4-0.4,5.7C613.2,350.8,611.3,351.8,609.3,351.8z"/>
			</g>
		</g>
		<g class="st0">
			<g>
				<path class="st1" d="M644.1,352.9c-2.4,0-4.5-1.4-5.5-3.6l-5.5-12.7l-5.5,12.7c-1,2.2-3.1,3.6-5.5,3.6c0,0,0,0,0,0
					c-2.4,0-4.6-1.4-5.5-3.6L601.4,314c-0.8-1.9-0.6-4,0.5-5.7c1.1-1.7,3-2.7,5-2.7h4.8c2.4,0,4.6,1.4,5.5,3.6l4.9,11.4l5.5-12.7
					c0.9-2.2,3.1-3.6,5.5-3.6c0,0,0,0,0,0c2.4,0,4.5,1.4,5.5,3.6l5.5,12.6l4.9-11.2c1-2.2,3.1-3.6,5.5-3.6h4.8c2,0,3.9,1,5,2.7
					c1.1,1.7,1.3,3.8,0.5,5.7l-15.2,35.2C648.6,351.5,646.5,352.9,644.1,352.9C644.1,352.9,644.1,352.9,644.1,352.9z"/>
			</g>
		</g>
		<g class="st0">
			<g>
				<path class="st1" d="M689.3,351.8h-4.9c-2.4,0-4.5-1.4-5.5-3.5l-2.4-5.2h-6.8l-2.3,5.2c-1,2.2-3.1,3.5-5.5,3.5h-4.9
					c-2,0-3.9-1-5-2.7c-1.1-1.7-1.3-3.9-0.4-5.7l16-35.5c1-2.1,3.1-3.5,5.5-3.5c0,0,0,0,0,0c2.4,0,4.5,1.4,5.5,3.5l16.2,35.5
					c0.8,1.9,0.7,4-0.4,5.7C693.2,350.8,691.3,351.8,689.3,351.8z"/>
			</g>
			<g>
				<path class="st1" d="M714.9,351.8h-5.4c-2,0-3.9-1-5-2.6l-0.3-0.5c-1,1.9-3,3.1-5.3,3.1h-4.7c-3.3,0-6-2.7-6-6v-34.2
					c0-3.3,2.7-6,6-6h7.4c5.1,0,9.3,1.4,12.7,4c3.8,3,5.8,7,5.8,11.8c0,3.7-1.3,7.1-3.7,10c-0.8,0.9-1.6,1.7-2.6,2.4l5.9,8.7
					c1.2,1.8,1.4,4.2,0.3,6.2C719.1,350.6,717.1,351.8,714.9,351.8z"/>
			</g>
			<g>
				<path class="st1" d="M729.5,351.8h-8.4c-3.3,0-6-2.7-6-6v-34.2c0-3.3,2.7-6,6-6h8.3c8.3,0,14.7,2.4,19.1,7.1
					c4.2,4.6,6.4,10,6.4,16c0,6.1-2.2,11.5-6.6,16.1C743.8,349.5,737.5,351.8,729.5,351.8z M731.8,322.4V335c0.4,0,0.8-0.1,1.1-0.1
					c0.9-0.2,1.8-0.5,2.7-1.1c0.8-0.5,1.3-1.2,1.8-2c0.5-0.9,0.7-1.8,0.7-2.9c0-1.4-0.4-2.6-1.2-3.7c-0.8-1.1-1.6-1.8-2.4-2.1
					C733.9,322.7,733.1,322.5,731.8,322.4z"/>
			</g>
			<g>
				<path class="st1" d="M765.4,353c-4.1,0-7.9-1.2-11.1-3.5c-3.2-2.3-5.6-5.6-7.2-9.8c-0.6-1.6-0.5-3.3,0.3-4.8
					c0.8-1.5,2.1-2.6,3.7-3.1l3.2-0.9c-0.8-0.6-1.5-1.3-2.1-2.1c-1.2-1.4-2.1-2.9-2.6-4.4c-0.6-1.6-0.9-3.3-0.9-5.1
					c0-4.2,1.7-7.9,5-10.8c3.1-2.7,6.8-4.1,11.1-4.1c2.7,0,5.3,0.6,8,1.7c2.9,1.2,5.3,3.1,7.2,5.5c2,2.6,1.6,6.3-1,8.3l-3.8,3
					c0,0-0.1,0-0.1,0.1c1.3,1,2.4,2,3.3,3.2c1.2,1.5,2.1,3.1,2.7,4.9c0.6,1.7,0.9,3.6,0.9,5.5c0,4.5-1.7,8.5-4.9,11.6
					C773.9,351.4,769.9,353,765.4,353z"/>
			</g>
		</g>
		<g class="st0">
			<g>
				<path class="st1" d="M473.6,478.7h-25.4c-2.4,0-4.6-1.4-5.5-3.6c-0.9-2.2-0.5-4.7,1.1-6.5l19-20.2c0.5-0.6,0.5-0.9,0.5-1
					c0-0.7-0.2-1.1-0.6-1.6c-0.5-0.5-0.7-0.5-0.9-0.5c-0.3,0-0.6,0.1-1.2,0.5c-0.1,0.1-0.4,0.5-0.5,1.3c-0.6,2.8-3,4.8-5.9,4.8h-4.9
					c-1.7,0-3.4-0.7-4.5-2s-1.7-3-1.4-4.7c0.7-5.2,2.8-9.3,6.4-12.3c3.5-3,7.7-4.5,12.4-4.5c4.9,0,9.3,2,12.9,5.7
					c3.5,3.7,5.3,8.1,5.3,13.2c0,2.5-0.5,4.9-1.4,7c-0.9,2.1-2.3,4.1-4.4,6.3l-1.1,1.2h0.3c3.3,0,6,2.7,6,6v5
					C479.6,476,476.9,478.7,473.6,478.7z"/>
			</g>
			<g>
				<path class="st1" d="M494.4,480c-5.9,0-11.1-2.8-14.9-8c-3.4-4.7-5.1-10.6-5.1-17.6c0-7.7,1.8-13.9,5.4-18.5
					c4.9-6.3,10.6-7.6,14.6-7.6h0.3c6.1,0,11.2,2.8,14.9,8.1c3.3,4.7,4.9,10.6,4.9,17.7c0,7.4-1.8,13.5-5.4,18.2
					C504.2,478.6,498.4,480,494.4,480z M494.4,445.6c-0.2,0-0.5,0-1.2,1.1c-1,1.7-1.6,4.2-1.6,7.5c0,3.2,0.5,5.6,1.6,7.3
					c0.7,1.1,1.1,1.1,1.3,1.1c0.4,0,0.9-0.9,1.1-1.1c1-1.7,1.6-4.3,1.6-7.5c0-3.1-0.5-5.5-1.6-7.2
					C495.5,446.6,494.8,445.6,494.4,445.6z"/>
			</g>
			<g>
				<path class="st1" d="M530.1,478.7h-5c-3.3,0-6-2.7-6-6v-26.2h-0.3c-1.9,0-3.8-0.9-4.9-2.5s-1.4-3.6-0.8-5.4l1.7-4.9
					c0.8-2.4,3.1-4,5.7-4h9.7c3.3,0,6,2.7,6,6v37.1C536.1,476,533.4,478.7,530.1,478.7z"/>
			</g>
			<g>
				<path class="st1" d="M558.4,480.6c-1.2,0-2.4-0.4-3.4-1.1l-4-2.8c-2.7-1.9-3.4-5.6-1.5-8.3l2.7-3.9c-2.1-0.9-4-2.2-5.6-3.9
					c-3.6-3.6-5.5-8.2-5.5-13.4c0-5.1,2-9.8,5.9-13.5c3.9-3.7,8.5-5.6,13.7-5.6c5.1,0,9.9,2,13.6,5.8c3.8,3.8,5.8,8.5,5.8,13.6
					c0,4.1-1.3,8-3.8,11.7L563.3,478c-0.9,1.3-2.3,2.2-3.9,2.5C559.1,480.6,558.7,480.6,558.4,480.6z M560.6,445.4
					c-0.9,0-1.3,0.2-1.7,0.6c-0.4,0.4-0.7,0.9-0.7,1.9c0,0.4,0,0.8,0.6,1.3c0.6,0.5,1.2,0.8,2,0.8c0.6,0,0.9-0.1,1.3-0.5
					c0.4-0.4,0.6-0.8,0.6-1.7c0-0.7-0.2-1.2-0.7-1.7C561.5,445.6,561.1,445.4,560.6,445.4z"/>
			</g>
		</g>
		<g>
			<g>
				<path class="st1" d="M286.5,560.9c-0.7,0-1.4-0.1-2-0.4c-16.6-6-40.8-15.1-64-27.5c-5.5,7.1-17.7,17.8-41.6,20.4
					c-29.6,3.3-44.1-5.5-44.7-5.9c-2-1.3-3.1-3.6-2.8-6c0.2-1,4.1-24.8,40.6-29.1c4.8-0.6,9.9-0.6,14.8-0.3
					c-3.8-2.8-7.4-5.6-10.9-8.6c-5.5,6.2-16.9,14.1-39.5,14.4c-30.1,0.4-44.4-9.6-45-10c-1.8-1.3-2.7-3.4-2.5-5.6
					c0.1-0.8,2.1-15.2,22.3-21.5c-4.8-0.1-10.2-0.7-16.1-2.1c-29.2-7.2-43.3-23.4-43.8-24c-1.6-1.9-1.9-4.6-0.7-6.8
					c0.6-1,14.1-24.1,52.7-14.4c2.9,0.7,5.8,1.7,8.7,2.8c-3-4.2-5.9-8.5-8.8-12.9c-8.2,4.9-23.2,9.7-47.7,3.2
					c-28.6-7.5-42.5-24.7-43.1-25.5c-1.7-2.2-1.7-5.3,0-7.5c1.5-1.8,12.6-14.8,34.2-14.8c-2.8-1-5.7-2.3-8.8-3.7
					c-24.1-11.4-37-34.7-37.5-35.6c-1.3-2.3-0.9-5.2,1-7.1c1.7-1.7,18.2-10.4,40.5-3.1c-2.2-1.6-4.4-3.5-6.7-5.4
					c-23.4-20.5-26.9-53.3-27-54.7c-0.2-2.1,0.7-4.1,2.4-5.4c2.7-2.1,9.7-1.4,15-0.6c5.8,1,14.8,3.3,23.7,9.1
					c-2.3-2.7-4.5-5.8-6.8-9.3c-17.1-25.8-12.6-58.2-12.4-59.6c0.4-2.5,2.3-4.5,4.8-5c3.2-0.6,12.7,2.8,19.8,7.2
					c3.1,1.9,6.5,4.4,9.9,7.6c-0.5-1-1-1.9-1.5-3c-13.3-27.9-4.4-59.7-4.1-61.1c0.6-2.2,2.4-3.8,4.6-4.2c3.7-0.7,11.5,3.4,16,6.6
					c2.8,2,5.8,4.6,8.7,8c-0.9-2.1-1.7-4.4-2.4-6.9c-12.4-41.9,9.3-62.2,10.2-63c1.1-1,2.5-1.6,4-1.6c4.9,0,13.3,9.4,15.8,12.7
					c5.5,7.1,12.2,19.2,13.1,36.6c0.1,2.2,0.1,4.4,0.1,6.5c2.3-3.5,4.7-6.9,7.2-10.3c0,0,0.1-0.1,0.1-0.1
					c-5.7-12.4-8.7-25.5-8.9-39.2C126.6,54.2,151,43.1,152,42.6c2.4-1,5.1-0.4,6.9,1.5c3.3,3.7,11.8,28,8.2,49.8
					c-0.1,0.4-0.1,0.7-0.2,1.1c1.7-2,3.5-4.1,5.3-6.1c-3.6-10.1-5-22.7-4.4-37.7c1.6-35.3,24.1-49.6,25-50.2c2.7-1.7,6.3-1,8.1,1.7
					c5,7.2,8,29.6,4.7,49c4.4-6.6,12.2-16.6,24.5-27.2c27.3-23.4,56.3-11.1,57.5-10.5c2.6,1.1,4,3.9,3.5,6.7
					c-1.8,8.5-19.7,30.7-37.5,41.2c-13.1,7.6-35,8.5-44.4,8.5c-1.7,1.6-3.3,3-4.7,4.5c1.9-0.5,3.8-0.9,5.7-1.3
					c18.5-3.2,35.3-1,47.5,6c1.5,0.9,2.6,2.3,2.9,4c0.3,1.7-0.1,3.5-1.2,4.8c-0.7,0.8-16.5,20.8-46.8,23.6c-3.6,0.3-7,0.5-10.1,0.5
					c7.1,1.1,13,3.6,19.1,7.2c1.4,0.8,2.4,2.2,2.8,3.8c0.4,1.6,0.1,3.3-0.8,4.7c-0.5,0.8-11.6,17.4-37.3,22.2c4.2,1,7.8,2.3,11,3.5
					l0.4,0.1c1.7,0.6,3.1,2,3.6,3.8c0.6,1.8,0.3,3.7-0.7,5.2l-0.2,0.3c-8.7,12.9-18.4,22.4-28.9,28.4c2.1,0.5,4,1.1,5.9,1.6l0.3,0.1
					c1.7,0.5,3.2,1.8,3.9,3.5c0.7,1.7,0.6,3.6-0.3,5.2c-8.6,15.5-18.3,24.9-26.9,30.7c1.8,0.2,3.4,0.4,5,0.7
					c1.6,0.2,3.1,0.4,4.4,0.6c2,0.2,3.8,1.4,4.7,3.2c0.9,1.8,0.9,3.9,0,5.7l-0.8,1.4c-5,9.3-12.3,23-25.9,34.5
					c4.3-0.5,8.3-0.3,11.7-0.2c1.5,0,2.9,0.1,4.2,0.1c2,0,3.9,1,5,2.6c1.1,1.6,1.4,3.7,0.6,5.6c-3.5,8.9-8.4,19.7-16.7,30.2
					c4.7-1,9.1-1.3,12.8-1.6c1.1-0.1,2.2-0.2,3.2-0.3c2-0.2,4,0.6,5.2,2.2c1.3,1.6,1.7,3.7,1.1,5.6c-2.2,6.9-5.4,17.2-12.4,28.2
					c3.8-0.9,7.4-1.2,10.8-1.5l0.3,0c2-0.2,4,0.7,5.3,2.3s1.6,3.7,0.9,5.7c-2.6,7.3-4.2,12.4-5.4,16.5c-1.2,3.8-2.1,6.7-3.2,9.5
					c4.1-2.1,8.1-3.3,11.9-4.4l0.5-0.2c1.9-0.6,3.9-0.1,5.5,1.1c1.5,1.2,2.4,3.2,2.2,5.1c-0.3,3.1-0.4,6.1-0.5,8.9
					c-0.2,6.2-0.5,12.2-2.2,19.1c4.2-3.1,8.5-4.6,11.8-5.1c2.5-0.4,5,0.9,6.2,3.2c0.4,0.8,10,19.5,6.7,41.5c1.8-3.8,4.1-6.9,7-9.5
					c6.4-5.6,13-6,13.7-6c2.3,0,4.4,1.2,5.5,3.3c0.4,0.8,9.9,19.6,7.7,41.6l0,0c-1.4,14.4-6.2,23.7-10.8,29.5
					c17.6,9.8,38,18.8,62.3,27.5c1.5,0.5,2.8,1.7,3.4,3.1c0.7,1.5,0.7,3.1,0.2,4.6l-3.8,10C291.2,559.4,288.9,560.9,286.5,560.9z
					 M144.9,539.2c5.5,1.8,16.3,4.1,32.6,2.3c17.4-1.9,26.9-8.7,31.6-13.7c-8.5-2-23.2-4.8-35.8-3.4
					C155.1,526.6,147.8,534.3,144.9,539.2z M214.8,516.2c0.1,0.1,0.3,0.1,0.4,0.2c0-0.1-0.1-0.1-0.1-0.2
					C215,516.3,214.9,516.3,214.8,516.2z M102.6,500.4c5.5,2.4,16.5,5.9,33.7,5.7c17-0.2,25.5-5.3,29.6-9.3
					c-7.5-2.8-20.5-7-33.1-6.8C113,490.2,105.4,496.3,102.6,500.4z M224.3,450.6c-4.1,2.3-10.2,8.8-9.9,27c0.2,9.6,2,18.9,5.6,27.5
					c3.6-4.2,7.6-11.5,8.8-24c0,0,0,0,0,0C230.1,468.5,226.6,456.8,224.3,450.6z M180.9,492.1c1.4,1.2,2.9,2.5,4.4,3.7
					c-1.2-1-2.3-2-3.5-3l-3.9-3.4c-0.2-0.2-0.4-0.4-0.6-0.6c-0.1-0.1-0.2-0.1-0.3-0.2c0.1,0.1,0.3,0.2,0.4,0.3
					c0.3,0.2,0.5,0.5,0.7,0.8c0.2,0.2,0.5,0.3,0.7,0.5L180.9,492.1z M191.7,485.6c4.1,3.5,8.3,6.8,12.8,10c-1.3-5.8-2-11.7-2.1-17.8
					c-0.1-3.1,0-6,0.3-8.8C199.5,477.1,195.4,482.3,191.7,485.6z M133.1,478c5.8,0,11.6,0.7,17,1.8c-2.9-2.8-5.6-5.6-8.2-8.3
					c-2.9,2.2-7,4.7-12.2,6.6c1,0,2-0.1,3.1-0.1C132.9,478,133,478,133.1,478z M144,457.4c1,0.3,1.9,0.9,2.6,1.6
					c5.4,5.8,11.3,11.7,17.7,17.8c-8-7.8-15.6-15.8-22.6-23.9c-0.2-0.2-0.3-0.4-0.5-0.6c-0.3-0.2-0.6-0.5-0.8-0.8
					c-8.6-9.9-16.6-20.6-23.8-31.7c-0.1-0.2-0.3-0.5-0.4-0.7c-0.3-0.3-0.5-0.6-0.7-0.9c-7.5-11.7-14.1-24.4-19.5-37.8
					c-0.2-0.4-0.3-0.9-0.4-1.3c-0.2-0.3-0.3-0.6-0.5-1c-1.4-3.7-2.6-7.2-3.7-10.6l0.7,2.8c0.2,0.6,0.2,1.2,0.2,1.8
					c0.3,0.5,0.6,1,0.7,1.6c3.5,11.5,8.4,22.9,14.6,33.7c0.4,0.8,0.7,1.6,0.8,2.5c0.7,0.5,1.3,1.1,1.7,1.8
					c9.5,15.6,20.4,30.1,32.5,43.1C143.3,455.6,143.8,456.5,144,457.4z M191.4,421.5c-4.7,2.4-11.6,8.7-12.1,24.1
					c-0.5,15,2.2,25.2,4.4,30.9c3.8-3.4,9.1-10.7,11.3-25.5C196.8,438.9,193.7,427.6,191.4,421.5z M64.2,450.4
					c5.3,4.5,16.5,12.5,33.9,16.7c18,4.4,29.5-0.4,35.3-4.4c-7.3-5.6-20.4-14.5-32.9-17.6C79.8,440,68.9,446.2,64.2,450.4z
					 M155,449.9c4.2,4.7,8.6,9.3,13.2,13.9c-0.8-5.3-1.2-11.5-0.9-18.6c0.1-2.1,0.2-4.1,0.5-6C163.8,443.3,159.3,446.8,155,449.9z
					 M172.4,393.3c-6.7,2.9-12.7,7.9-17.7,21.6c-2.1,5.8-2.1,9.9-2.2,15.1c0,2.1,0,4.4-0.2,6.9c5.5-4.3,10.6-9,13.6-14.8
					c5.8-11.2,6.1-18.4,6.4-28.3C172.4,393.6,172.4,393.4,172.4,393.3z M130.6,419.3c3.2,4.6,6.5,9.1,9.9,13.6c0-1,0-2,0-3
					c0-5.2,0.1-10.2,2.1-16.7C138.5,415.9,134.4,417.7,130.6,419.3z M25.8,397.7c5.3,4.9,16.2,13,32.9,17.4
					c20.5,5.4,32.3,1.7,38.2-1.7c-6.9-6-19.4-15.4-34.5-20C43.4,387.6,31.5,393.4,25.8,397.7z M159,362.9
					c-6.9,1.7-13.4,5.7-20.7,17.7c-3.3,5.6-4.6,10.8-6.2,17.3c-0.7,2.7-1.4,5.6-2.3,8.7c6.1-2.8,11.8-6.5,16.6-14
					c6.3-10,7.1-12.6,10.1-22.1C157.3,368.3,158,365.8,159,362.9z M109.9,382.7c2.8,6.3,5.8,12.3,9.1,18.2c0.5-2,1-3.9,1.5-5.8
					c1.4-5.5,2.7-10.8,5.3-16.4C120.1,380.9,114.8,381.8,109.9,382.7z M71.5,383.9c5.4,2.1,10.5,4.6,15,7.3
					c-1.1-2.8-2.2-5.6-3.1-8.4C80.3,383.5,76.3,384,71.5,383.9z M14.8,339.6c4.9,6.9,14.6,18.3,28.3,24.8
					c16.4,7.8,28.4,8.1,35.3,7.1c-6.4-7.9-18.4-20.8-33.6-28.1C31.8,337.1,21,338,14.8,339.6z M154.3,327.9c-9,1-19.1,3.6-27.5,14.8
					c-6.4,8.4-8.8,13.2-11.7,19.4c-1.2,2.5-2.5,5.1-4.1,8.2c8.2-1.6,16.7-4,25.2-12.9C146,347.1,151.1,336.6,154.3,327.9z
					 M97.9,345.2c1.1,5.4,2.5,10.9,4.1,16.2c0.8-1.6,1.5-3,2.2-4.5c2.2-4.5,4.3-8.9,8.1-14.5C106.9,344,101.9,344.8,97.9,345.2z
					 M66.4,342.8c3.3,2.6,6.4,5.3,9.2,7.9c-0.3-1.8-0.6-3.6-0.9-5.3C72.4,344.8,69.6,344,66.4,342.8z M148.2,290.4
					c-9,0-19,1.5-29.9,13.7c-9.2,10.3-13.8,18.5-18.7,27.2c-0.3,0.6-0.6,1.1-1,1.7c7.7-0.9,18.4-3.7,28.2-12.6
					c10.6-9.6,17.1-20.4,21.5-30C148.3,290.4,148.3,290.4,148.2,290.4z M21.5,274.8c2.1,9.7,7.8,27.9,21.8,40.1
					c10.6,9.3,20.5,14.2,27.9,16.9c-1.1-2.9-2-6-3-9.1c-2.8-8.8-5.9-18.7-11.9-27.3C45.4,279.7,29.9,275.7,21.5,274.8z M93.9,296.2
					c-0.3,6.8-0.2,13.7,0.3,20.6c3.8-6.3,8.4-13,15.3-20.7c0.6-0.7,1.2-1.4,1.9-2C104.5,295.7,98.4,296.1,93.9,296.2z M64.7,286.7
					c0.4,0.6,0.9,1.2,1.3,1.8c2.5,3.6,4.5,7.3,6.3,11c0.1-2.8,0.3-5.5,0.5-8.3C70.5,290.2,67.8,288.8,64.7,286.7z M146.5,244.3
					c-7.6,0-15.9,2.1-25.4,10.5c-9.3,8.3-14.8,16.9-20.2,25.2c-0.8,1.3-1.7,2.6-2.6,4c8.4-0.7,20.1-3,30.9-10.8
					c11.8-8.5,19.1-19.4,24.2-28.3C151.1,244.5,148.8,244.3,146.5,244.3z M41.6,212.3c-0.2,10,0.9,28.8,11,44.1
					c8.8,13.3,17.1,19.6,22.4,22.5c-0.2-0.6-0.4-1.3-0.4-2c-0.3-7.9-1.5-23.1-6-35.9C62.6,223.6,49.4,215.7,41.6,212.3z
					 M102.4,243.6c-1.9,6.5-3.5,13.2-4.8,19.8c4.1-5.8,8.9-11.6,15.5-17.5c0.6-0.6,1.3-1.1,1.9-1.6
					C110.8,244.3,106.6,244.1,102.4,243.6z M78.9,234.2c0.4,1,0.8,1.9,1.1,2.9c0.7,2,1.3,4,1.9,6c0.5-1.7,1-3.3,1.5-5.1
					C81.9,237,80.4,235.8,78.9,234.2z M105.8,231.9c10.5,1.1,21.2-0.3,31.9-4.1c7.7-2.8,18.5-9.4,28.8-24.8
					c-8.4-1.8-18.2-1.7-34.1,6.3C119.8,215.6,111,225.1,105.8,231.9z M69.3,159.2c-1.7,9.9-3.3,29.1,4.7,45.9
					c9.3,19.4,16.7,23.8,18.8,24.7c1,0.4,1.8,1.1,2.4,1.8c0.2-0.1,0.3-0.2,0.5-0.3c-0.5-0.9-0.8-1.9-0.8-3c-0.5,0-1-0.1-1.4-0.2
					c-3-0.7-4.9-3.6-4.5-6.6c1-7.5,1.8-18.7,0.4-30C86.9,172,76,162.9,69.3,159.2z M118.5,198.6c-0.9,2.3-1.8,4.5-2.7,6.8
					c2.7-2,5.7-3.9,8.9-5.7C122.4,199.4,120.3,199,118.5,198.6z M97.1,174.1c1.9,4.6,3.3,9.9,4.1,16.1c0.1,0.5,0.1,1.1,0.2,1.6
					c0-0.1,0.1-0.2,0.1-0.3c1.4-2.9,2.9-6,4.6-9.2C103.4,180.4,100.2,177.7,97.1,174.1z M123.4,187.3c7.1,1.3,18.2,2,31.9-1.9
					c11-3.1,21.2-10.7,30.5-22.7c-8.2-2.3-18-3-34.4,3.9C138.6,172,129.2,180.7,123.4,187.3z M101.2,102.3
					c-4.4,6.6-11.2,21.8-3.7,47c3.6,12.1,10,19,14.6,22.5c0-0.1,0.1-0.2,0.1-0.3c2.6-8.3,5.6-20.9,4.9-33.5
					C116.1,118.6,106.5,107.2,101.2,102.3z M145.3,148.1c-2.7,4-5.3,8-7.8,12.1c2.9-1.7,6-3.3,9.3-4.7c4.3-1.8,8.4-3.2,12.1-4.2
					C152.8,150.7,148.5,149.4,145.3,148.1z M153,138c5.1,1.5,13,2.6,25.3,1.4c15.5-1.4,25.3-7.9,30.5-12.6c-6.3-2.7-14-3.8-27.1-1.5
					C171.3,127.1,161.4,131.5,153,138z M151.8,57.3c-5.3,5-12.7,15.8-12.3,36.8c0.1,9.6,1.9,19,5.2,28c3.4-6.8,8.5-18.4,10.5-30.1
					C157.3,79,154.3,65,151.8,57.3z M174.8,108.6c-2,2.5-4.1,5.1-6.1,7.7c3.6-1.2,7.2-2.1,10.9-2.8c4.2-0.7,8-1.2,11.5-1.4
					C183.7,111.4,178.3,109.9,174.8,108.6z M183,98.6c6,1.5,15.1,2.8,28.3,1.6c15.4-1.4,26.4-8.3,32.6-13.4
					c-7-2.3-17.4-3.8-31.9-1.3C201.7,87.3,191.6,91.9,183,98.6z M193.2,16.4c-5.4,5.9-12.7,17.2-13.5,35.4
					c-0.5,10.4,0.2,19.7,2,27.3c0.2-0.6,0.4-1.1,0.7-1.6c5.8-9.1,9.6-18.3,11.1-27.2C195.9,37.5,194.9,24.3,193.2,16.4z M267.5,22.3
					c-8.4,0-19.2,2.3-29.7,11.4c-10,8.6-17.5,17.6-22.2,24.6c11.5-0.5,24.5-2.5,31.8-6.7c12.5-7.3,24.1-20.7,29.2-28.3
					C274.1,22.7,271,22.3,267.5,22.3z"/>
			</g>
		</g>
		<g>
			<g>
				<path class="st1" d="M227.7,449.4c-3.3,0-6-2.7-6-6s2.7-6,6-6h0c3.3,0,6,2.7,6,6S231,449.4,227.7,449.4z"/>
			</g>
		</g>
		<g>
			<g>
				<path class="st1" d="M735.5,560.8c-2.4,0-4.7-1.5-5.6-3.9l-3.8-10c-0.6-1.5-0.5-3.2,0.2-4.6s1.9-2.6,3.4-3.1
					c24.4-8.8,44.9-17.8,62.3-27.4c-4.6-5.7-9.3-15-10.7-29.4c-2.1-22,7.3-40.8,7.7-41.6c1.1-2.1,3.2-3.3,5.5-3.3
					c0.7,0,7.4,0.3,13.7,6c2.9,2.5,5.2,5.7,7,9.5c-3.2-22,6.3-40.7,6.7-41.5c1.2-2.3,3.7-3.5,6.2-3.2c3.2,0.5,7.5,2,11.8,5.1
					c-1.7-6.8-2-12.8-2.2-19c-0.1-2.8-0.2-5.7-0.5-8.9c-0.2-2,0.7-3.9,2.2-5.1c1.5-1.3,3.6-1.7,5.5-1.1l0.2,0.1
					c3.9,1.1,8.1,2.3,12.3,4.5c-1.1-2.8-2-5.7-3.2-9.5c-1.3-4.1-2.9-9.2-5.4-16.5c-0.7-1.9-0.3-4.1,0.9-5.7c1.3-1.6,3.3-2.5,5.3-2.3
					l0.3,0c3.3,0.3,6.9,0.6,10.6,1.5c-7.3-11.4-10.5-21.8-12.4-28.3c-0.6-1.9-0.2-4,1.1-5.5c1.3-1.5,3.2-2.4,5.2-2.2
					c1,0.1,2.1,0.2,3.2,0.3c3.8,0.3,8.3,0.6,13,1.6c-8.3-10.6-13.2-21.4-16.8-30.4c-0.7-1.9-0.5-4,0.6-5.6c1.1-1.6,3-2.6,4.9-2.6
					c0.2,0,0.3,0,0.5,0c1.2,0,2.4,0,3.8-0.1c3.4-0.1,7.4-0.2,11.8,0.3c-13.7-11.6-21-25.3-26-34.7l-0.7-1.3c-0.9-1.8-0.9-3.9,0-5.7
					c0.9-1.8,2.7-2.9,4.7-3.1c1.3-0.1,2.8-0.3,4.4-0.6c1.5-0.2,3.1-0.4,4.7-0.6c-10.1-6.7-19-16.9-26.6-30.3l-0.1-0.2
					c-0.9-1.6-1-3.5-0.3-5.2c0.7-1.7,2.1-3,3.9-3.5l0.3-0.1c1.8-0.5,3.7-1.1,5.8-1.6c-10.6-5.9-20.3-15.4-29-28.4l-0.2-0.3
					c-1-1.5-1.3-3.4-0.7-5.2c0.6-1.8,1.9-3.1,3.6-3.8l0.4-0.2c3.3-1.2,7-2.6,11.3-3.5c-25.9-4.7-37.1-21.4-37.6-22.2
					c-0.9-1.4-1.2-3.1-0.8-4.7s1.4-3,2.8-3.8c5.9-3.4,11.7-6,18.7-7.1c-3,0-6.3-0.2-9.8-0.5c-30.2-2.8-46.1-22.7-46.8-23.6
					c-1.1-1.4-1.5-3.1-1.2-4.8s1.4-3.2,2.8-4c12.2-7.2,29-9.3,47.5-6c1.9,0.3,3.7,0.8,5.6,1.2c-1.4-1.4-2.9-2.8-4.6-4.3
					c-9.3,0-31.2-0.9-44.2-8.5c-17.9-10.4-35.8-32.6-37.6-41.2c-0.6-2.8,0.9-5.6,3.5-6.7c1.2-0.5,30.3-12.8,57.5,10.5
					c12.1,10.4,20,20.4,24.5,27.1c-3.4-19.4-0.3-41.7,4.7-49c1.8-2.6,5.4-3.4,8.1-1.7c1,0.6,23.4,15,25,50.1
					c0.7,15-0.8,27.7-4.4,37.8c1.8,2,3.5,4.1,5.3,6.1c-0.1-0.4-0.1-0.8-0.2-1.2c-3.6-21.8,4.8-46.1,8.2-49.8
					c1.7-1.9,4.5-2.5,6.9-1.5c1,0.5,25.4,11.6,24.5,51.6c-0.2,13.4-3.3,26.9-8.9,39.2c0,0.1,0.1,0.1,0.1,0.2
					c2.5,3.4,4.9,6.9,7.4,10.5c-0.1-2.2,0-4.4,0.1-6.6c0.9-17.4,7.5-29.5,13-36.6C908.7,97.4,917,88,921.9,88c1.5,0,2.9,0.5,4,1.5
					c0.9,0.8,22.7,21,10.2,63.1c-0.8,2.6-1.6,5-2.6,7.2c2.9-3.5,6-6.1,8.8-8.2c4.4-3.2,12.3-7.3,16-6.6c2.2,0.4,4,2.1,4.6,4.2
					c0.4,1.3,9.3,33.1-4.1,61c-0.4,0.9-0.8,1.7-1.2,2.5c3.3-3.1,6.6-5.5,9.6-7.3c7.2-4.4,16.6-7.8,19.8-7.2c2.5,0.5,4.4,2.5,4.8,5
					c0.2,1.4,4.6,33.7-12.4,59.6c-2.3,3.4-4.5,6.5-6.7,9.2c5.8-3.7,11.6-6,16.3-7.3c8.2-2.3,18.4-3.1,21.3-1.6
					c2.2,1.1,3.5,3.5,3.3,5.9c-0.1,1.4-3.6,34.3-27,54.7c-2.4,2.1-4.8,4-7.2,5.8c22.6-7.6,39.2,1.2,41,3c1.9,1.9,2.3,4.8,1,7.1
					c-0.5,1-13.5,24.2-37.5,35.6c-2.9,1.4-5.8,2.6-8.5,3.6c18,0.1,28.9,9.2,33.4,14l0.1,0.1c1,0.9,1.6,2.1,1.8,3.4
					c0.3,1.7-0.2,3.3-1.2,4.7c-0.6,0.7-14.5,18-43.1,25.5c-24.7,6.5-39.8,1.6-47.7-3.2c-2.8,4.4-5.7,8.6-8.7,12.9
					c2.8-1.1,5.7-2.1,8.6-2.8c38.5-9.6,52.1,13.4,52.7,14.3c1.2,2.2,1,4.9-0.6,6.8c-0.6,0.7-14.5,17-43.8,24.2
					c-5.9,1.4-11.4,2-16.3,2.1c20.3,6.4,22.2,20.8,22.3,21.6c0.2,2.2-0.7,4.3-2.5,5.5c-0.6,0.4-14.9,10.5-45,10
					c-22.5-0.3-34-8.3-39.5-14.4c-3.6,3-7.2,5.9-11,8.6c5.1-0.3,10.2-0.3,15,0.3c36.6,4.3,40.6,28.1,40.7,29.1
					c0.4,2.4-0.7,4.7-2.8,6c-0.6,0.4-15.2,9.2-44.8,5.9c-24-2.6-36.2-13.5-41.6-20.4c-23.2,12.3-47.4,21.5-64,27.5
					C736.9,560.7,736.2,560.8,735.5,560.8z M812.8,527.7c4.7,5,14.2,11.8,31.7,13.7c16.4,1.8,27.2-0.5,32.7-2.3
					c-2.8-4.9-10.1-12.6-28.6-14.8C836.6,523,822.2,525.5,812.8,527.7z M856,496.8c4.1,3.9,12.6,9,29.6,9.2
					c17.2,0.2,28.3-3.3,33.7-5.7c-2.8-4.1-10.4-10.3-30.3-10.4c-0.1,0-0.2,0-0.3,0C876.3,489.9,863.4,494,856,496.8z M797.7,450.6
					c-2.3,6.1-5.8,17.8-4.6,30.5c1.2,12.7,5.4,20,8.9,23.9c3.5-8.7,5.4-17.9,5.6-27.4C807.9,459.4,801.9,452.9,797.7,450.6z
					 M819.3,468.8c0.3,2.8,0.4,5.8,0.3,9c-0.1,6-0.8,12-2.1,17.8c4.4-3.2,8.7-6.6,12.8-10.1C826.6,482.2,822.5,477,819.3,468.8z
					 M880.3,471.3c-2.7,2.8-5.4,5.5-8.3,8.3c5.5-1.1,11.4-1.8,17.1-1.8c1.2,0,2.5,0,3.6,0.1C887.3,476.1,883.2,473.6,880.3,471.3z
					 M830.6,421.6c-2.2,6.1-5.3,17.4-3.5,29.5c2.3,15,7.6,22.2,11.4,25.6c2.1-5.5,4.9-15.8,4.4-30.9
					C842.3,430.4,835.3,424.1,830.6,421.6z M881,452.3c-0.2,0.3-0.4,0.5-0.6,0.8c-4.7,5.4-9.6,10.7-14.6,15.9
					c3.4-3.4,6.6-6.7,9.7-10.1c0.6-0.7,1.4-1.2,2.3-1.5c0.3-0.9,0.7-1.7,1.4-2.4c12.4-13.4,23.4-28,32.7-43.3
					c0.4-0.7,0.9-1.3,1.6-1.7c0.1-0.8,0.3-1.7,0.8-2.4c5.9-10.5,10.9-21.8,14.6-33.7c0.2-0.6,0.5-1.2,0.8-1.7c0-0.6,0.1-1.1,0.2-1.7
					c0-0.2,0.1-0.4,0.2-0.6c-0.9,2.7-1.9,5.4-2.9,8.2c-0.2,0.4-0.3,0.8-0.6,1.1c-0.1,0.5-0.2,0.9-0.4,1.4c-5.4,13.3-12,26-19.5,37.8
					c-0.2,0.2-0.3,0.5-0.5,0.7c-0.1,0.3-0.3,0.7-0.5,1c-7.4,11.2-15.4,21.9-23.9,31.6C881.4,451.9,881.2,452.1,881,452.3z
					 M888.7,462.7c5.8,4,17.2,8.9,35.3,4.5c17.4-4.3,28.5-12.2,33.8-16.8c-4.8-4.3-15.7-10.4-36.4-5.3
					C908.6,448.3,895.1,457.8,888.7,462.7z M854.3,439.4c0.3,1.9,0.4,3.9,0.5,5.9c0.2,7.1-0.2,13.2-0.9,18.5
					c4.6-4.6,8.9-9.2,13.2-13.9C862.8,446.9,858.3,443.4,854.3,439.4z M849.6,393.3c0,0.2,0,0.3,0,0.5c0.4,9.9,0.7,17.1,6.4,28.4
					c3,5.7,8,10.4,13.5,14.7c-0.1-2.5-0.2-4.7-0.2-6.9c0-5.4-0.1-9.3-2.2-15.1C862.3,401.2,856.3,396.2,849.6,393.3z M879.4,413.3
					c2,6.5,2,11.5,2.1,16.7c0,1,0,2,0,3c3.4-4.4,6.8-8.9,10-13.6C887.6,417.8,883.5,416,879.4,413.3z M925.1,413.3
					c5.7,3.3,17.5,7.1,38.1,1.7c16.7-4.4,27.5-12.5,32.8-17.3c-6.3-4.7-18.2-9.9-36.6-4.3C944.4,398.1,932,407.3,925.1,413.3z
					 M863.1,363c1,2.9,1.7,5.4,2.4,7.6c3,9.5,3.8,12.1,10.1,22.1c4.7,7.5,10.4,11.2,16.5,13.9c-0.9-3.1-1.6-5.9-2.3-8.6
					c-1.6-6.3-2.9-11.8-6.2-17.3C876.5,368.6,869.9,364.6,863.1,363z M896.2,378.8c2.6,5.5,3.9,10.8,5.3,16.4
					c0.5,1.9,0.9,3.8,1.5,5.8c3.3-5.9,6.3-11.9,9.1-18.2C907.2,381.9,901.8,381,896.2,378.8z M1008,392.4
					C1008,392.4,1008.1,392.4,1008,392.4C1008.1,392.4,1008,392.4,1008,392.4z M1008,392.4C1008,392.4,1008,392.4,1008,392.4
					C1008,392.4,1008,392.4,1008,392.4z M938.4,382.9c-1,2.8-2,5.6-3.1,8.4c4.5-2.7,9.5-5.2,14.9-7.3
					C945.3,384.1,941.4,383.6,938.4,382.9z M943.4,371.6c7,1,18.9,0.6,35.3-7.1c13.7-6.5,23.4-17.9,28.3-24.8
					c-6.2-1.6-16.9-2.5-30.1,3.8C961.8,350.8,949.8,363.7,943.4,371.6z M867.6,327.9c3.4,9.3,8.5,19.4,18.3,29.6
					c8.5,9,17,11.4,25.3,12.9c-1.8-3.2-3.1-6-4.4-8.6c-3-6.1-5.3-10.9-11.7-19.2C886.8,331.6,876.7,328.9,867.6,327.9z M909.7,342.3
					c3.7,5.6,5.8,9.9,8,14.4c0.7,1.5,1.5,3.1,2.3,4.7c1.6-5.6,3-11,4.1-16.3C920.1,344.7,915.1,344,909.7,342.3z M947.2,345.4
					c-0.3,1.8-0.6,3.6-0.9,5.5c2.9-2.7,6.1-5.5,9.6-8.2C952.5,343.9,949.6,344.8,947.2,345.4z M873.7,290.3
					c4.5,9.6,10.9,20.4,21.5,30c9.8,8.9,20.6,11.7,28.3,12.6c-0.2-0.4-0.4-0.8-0.6-1.1c-5-8.9-9.6-17.3-19.1-27.8
					c-10.9-12.2-20.9-13.7-29.9-13.7C873.8,290.3,873.8,290.3,873.7,290.3z M1000.4,274.7c-8.6,1-24.1,5.1-34.7,20.5
					c-5.9,8.5-9,18.4-11.8,27.1c-1.1,3.3-2.1,6.5-3.2,9.5c7.3-2.7,17.2-7.7,27.9-17C992.6,302.6,998.3,284.5,1000.4,274.7z
					 M910.7,293.9c0.7,0.7,1.3,1.4,2,2.2c6.9,7.6,11.4,14.2,15.3,20.5c0.4-6.9,0.5-13.7,0.3-20.5
					C923.7,295.9,917.5,295.5,910.7,293.9z M949.1,291.1c0.2,2.8,0.4,5.6,0.5,8.4c1.7-3.7,3.8-7.5,6.3-11.1c0.4-0.6,0.8-1.2,1.3-1.8
					C954.1,288.7,951.4,290.1,949.1,291.1z M868.7,244.6c5.1,9.1,12.2,19.7,24.2,28.3c10.8,7.8,22.4,10.2,30.8,10.8
					c-0.9-1.3-1.7-2.7-2.6-4c-5.3-8.3-10.8-16.9-20.1-25.2C888.6,243.5,878.1,243.5,868.7,244.6z M980.4,212.2
					c-7.8,3.3-21,11.2-27.1,28.7c-3.2,9.3-5.2,21.5-6,36.1c0,0.6-0.1,1.1-0.3,1.6c5.4-3,13.7-9.3,22.3-22.4
					C979.5,240.9,980.7,222.2,980.4,212.2z M907.2,244.1c0.6,0.5,1.2,1,1.8,1.5c6.5,5.8,11.3,11.6,15.4,17.3
					c-1.3-6.5-2.9-13-4.8-19.5C916.4,243.9,912.2,244.2,907.2,244.1z M938.8,238.1c0.5,1.6,1,3.2,1.4,4.9c0.6-2.1,1.2-4.1,1.8-5.9
					c0.3-0.9,0.6-1.7,1-2.6C941.5,235.9,940.1,237.1,938.8,238.1z M855.6,202.8c8.4,12.6,18,20.9,28.7,24.8
					c13.5,4.8,24.6,4.9,31.8,4.1c-5.3-6.9-14.1-16.3-26.5-22.6C873.8,201.1,863.9,201,855.6,202.8z M926.4,231.3
					c0.2,0.1,0.4,0.2,0.5,0.3c0.6-0.8,1.5-1.4,2.4-1.8c1.4-0.6,9.1-4.5,18.7-24.6c8-16.8,6.4-36,4.7-45.9
					c-6.7,3.8-17.6,12.8-20.1,32.5c-1.5,11-0.6,22.5,0.4,30.2c0.4,3-1.6,5.9-4.5,6.6c-0.5,0.1-1,0.2-1.5,0.2
					C927.1,229.5,926.8,230.5,926.4,231.3z M897.1,199.5c3.2,1.8,6.2,3.7,9,5.7c-0.9-2.4-1.9-4.6-2.7-6.8
					C901.3,198.9,899.2,199.2,897.1,199.5z M916,182.3c1.7,3.2,3.2,6.3,4.6,9.2c0,0.1,0.1,0.2,0.1,0.2c0.1-0.5,0.1-1.1,0.2-1.6
					c0.8-6.3,2.3-11.7,4.2-16.4C921.9,177.6,918.7,180.3,916,182.3z M836.1,162.7c9.3,12,19.5,19.6,30.4,22.7
					c10.8,3,21.6,3.7,32.1,1.8c-5.9-6.6-15.3-15.3-28-20.6C854.2,159.6,844.3,160.3,836.1,162.7z M920.9,102.2
					c-5.4,4.9-14.9,16.2-15.8,35.7c-0.6,12.7,2.3,25.3,4.9,33.6c0,0.1,0,0.1,0.1,0.2c4.6-3.6,10.9-10.4,14.6-22.5
					C932.1,124,925.4,108.8,920.9,102.2z M862.7,151.2c3.8,1,8,2.4,12.5,4.3c3.3,1.4,6.5,3,9.4,4.7c-2.5-4.2-5.2-8.3-7.9-12.3
					C873.5,149.2,869,150.5,862.7,151.2z M813.1,126.6c5.2,4.7,15,11.2,30.5,12.7c12.2,1.1,20.1,0,25.2-1.4
					c-8.3-6.5-18.2-10.9-28.6-12.7C827,122.8,819.4,123.9,813.1,126.6z M870.2,57c-2.5,7.7-5.5,21.7-3.4,34.7
					c2,11.7,7.1,23.3,10.5,30.1c3.3-9,5-18.5,5.2-28C883,72.8,875.5,62,870.2,57z M831.4,112c3.3,0.2,7,0.6,11,1.3
					c3.7,0.7,7.3,1.6,10.8,2.7c-2-2.5-4-5-6-7.5C843.6,109.7,838.4,111.2,831.4,112z M777.9,86.6c6.2,5.1,17.2,12,32.7,13.5
					c13.1,1.2,22.3,0,28.3-1.5c-8.5-6.7-18.5-11.2-29.1-13.2C795.3,82.7,784.8,84.3,777.9,86.6z M828.8,16.3
					c-1.7,7.9-2.7,21.1-0.4,33.8c1.7,9.1,5.4,18.3,11.3,27.3c0.3,0.4,0.5,0.9,0.7,1.4c1.8-7.6,2.5-16.9,2-27.3
					C841.5,33.4,834.2,22.2,828.8,16.3z M745.5,23.2c5.1,7.6,16.7,21,29.2,28.3c7.4,4.3,20.4,6.2,31.9,6.8
					c-4-5.9-11.1-15.1-22.3-24.6C769.3,20.9,753.8,21.6,745.5,23.2z"/>
			</g>
		</g>
		<g class="st0">
			<g>
				<g>
					<path class="st2" d="M210.7,206.6h13.1v60.6h-13.1V206.6z"/>
				</g>
			</g>
			<g>
				<g>
					<path class="st2" d="M275.9,206.6h12.8v60.6H276L248.3,228v39.2h-13.1v-60.6h12.9l27.8,39V206.6z"/>
				</g>
			</g>
		</g>
		<g class="st0">
			<g>
				<g>
					<path class="st2" d="M300.6,206.6h20.7c8.8,0,15.9,2.8,21.3,8.4c5.4,5.6,8.1,12.9,8.1,22s-2.8,16.5-8.3,22
						c-5.6,5.5-12.9,8.3-22.2,8.3h-19.6V206.6z M313.8,218v37.4h5.2c5.4,0,9.8-1.5,13.2-4.4c3.4-2.9,5.2-7.8,5.2-14.6
						c0-4-0.8-7.5-2.5-10.5c-1.7-3.1-4.1-5.1-7.2-6.2c-3.2-1.1-6.2-1.6-9-1.6L313.8,218L313.8,218z"/>
				</g>
			</g>
		</g>
		<g class="st0">
			<g>
				<g>
					<path class="st2" d="M352.5,206.6H367l11.2,18.8l11.3-18.8H404l-19.3,32.3v28.3h-12.9v-28.3L352.5,206.6z"/>
				</g>
			</g>
			<g>
				<g>
					<path class="st2" d="M437.7,206.6h20.7c5.6,0,10.1,1.6,13.5,4.9c3.4,3.2,5.1,7.5,5.1,12.8c0,3.5-0.8,6.8-2.5,9.9
						c-1.7,3.1-4.2,5.5-7.6,7s-6.3,2.3-8.7,2.4l-7.6,0.2v23.4h-13v-60.6H437.7z M450.4,217.5V233h5.1c2.2,0,4.1-0.8,5.6-2.4
						c1.6-1.6,2.3-3.4,2.3-5.6c0-2.5-0.9-4.4-2.6-5.7c-1.8-1.4-4.2-2-7.5-2L450.4,217.5z"/>
				</g>
			</g>
			<g>
				<g>
					<path class="st2" d="M485.6,236.9c0-9,3-16.3,8.9-22.2c5.9-5.8,12.9-8.7,21.1-8.7c9,0,16.4,2.9,22.3,8.8
						c5.9,5.9,8.8,13.3,8.8,22.2s-2.9,16.3-8.7,22.2c-5.8,5.9-13.1,8.8-22,8.8c-8.8,0-16.1-2.9-21.8-8.8
						C488.4,253.3,485.6,245.9,485.6,236.9z M516.1,218c-5.1-0.1-9.2,1.7-12.3,5.3c-3.1,3.6-4.7,8.2-4.7,13.9
						c0,5.4,1.6,9.8,4.8,13.4c3.2,3.5,7.2,5.3,12,5.3c5.1,0,9.2-1.7,12.3-5.2s4.7-8.1,4.7-13.8c0-5.6-1.5-10.2-4.6-13.6
						C525.3,219.9,521.2,218.1,516.1,218z"/>
				</g>
			</g>
			<g>
				<g>
					<path class="st2" d="M557.8,206.6h20.7c5.6,0,10.1,1.6,13.5,4.9c3.4,3.2,5.1,7.5,5.1,12.8c0,3.5-0.8,6.8-2.5,9.9
						s-4.2,5.5-7.6,7s-6.3,2.3-8.7,2.4l-7.6,0.2v23.4h-13L557.8,206.6L557.8,206.6z M570.6,217.5V233h5.1c2.2,0,4.1-0.8,5.6-2.4
						c1.6-1.6,2.3-3.4,2.3-5.6c0-2.5-0.9-4.4-2.6-5.7c-1.8-1.4-4.2-2-7.5-2L570.6,217.5z"/>
				</g>
			</g>
			<g>
				<g>
					<path class="st2" d="M678.1,209.8v14.8c-6.6-3.9-12.3-5.9-17.2-5.9s-8.9,1.7-11.8,5.1s-4.4,7.9-4.4,13.7c0,5.4,1.6,9.7,4.7,13
						c3.1,3.2,7.3,4.9,12.5,4.9c4.6,0,10-1.8,16.3-5.5v14.7c-7.1,2.4-13,3.6-17.8,3.6c-8.2,0-15.1-3-20.8-9s-8.5-13.3-8.5-21.9
						c0-8.8,2.9-16.2,8.7-22.3s12.9-9.1,21.2-9.1C666.3,205.8,672,207.1,678.1,209.8z"/>
				</g>
			</g>
			<g>
				<g>
					<path class="st2" d="M686,236.9c0-9,3-16.3,8.9-22.2c5.9-5.8,12.9-8.7,21.1-8.7c9,0,16.4,2.9,22.3,8.8
						c5.9,5.9,8.8,13.3,8.8,22.2s-2.9,16.3-8.7,22.2c-5.8,5.9-13.1,8.8-22,8.8c-8.8,0-16.1-2.9-21.8-8.8S686,245.9,686,236.9z
						 M716.5,218c-5.1-0.1-9.2,1.7-12.3,5.3s-4.7,8.2-4.7,13.9c0,5.4,1.6,9.8,4.8,13.4c3.2,3.5,7.2,5.3,12,5.3
						c5.1,0,9.2-1.7,12.3-5.2s4.7-8.1,4.7-13.8c0-5.6-1.5-10.2-4.6-13.6C725.7,219.9,721.6,218.1,716.5,218z"/>
				</g>
			</g>
			<g>
				<g>
					<path class="st2" d="M798,206.6h12.8v60.6h-12.7L770.4,228v39.2h-13.1v-60.6h12.9l27.8,39L798,206.6L798,206.6z"/>
				</g>
			</g>
		</g>
		<g class="st0">
			<g>
				<g>
					<path class="st2" d="M324.5,357.3h5.4c3.6,0,6.5,0.8,8.7,2.3c2.3,1.5,3.4,3.5,3.4,5.9c0,2.9-1.7,5.3-5,7.2
						c5.2,1.7,7.7,4.7,7.7,9c0,3-1.3,5.3-4,7.2c-2.7,1.8-6.2,2.7-10.7,2.7h-5.6v-34.3H324.5z M329.1,361.4v10.1
						c2.6,0,4.6-0.5,5.9-1.5s2.1-2.3,2.1-3.9c0-1.4-0.6-2.6-1.9-3.5c-1.2-0.9-2.9-1.3-5-1.3C329.8,361.3,329.4,361.4,329.1,361.4z
						 M329.1,375.6v11.7h0.4c4,0,6.8-0.6,8.2-1.9c1.5-1.3,2.2-2.6,2.2-3.9c0-1.8-0.8-3.2-2.5-4.2s-3.9-1.6-6.8-1.6h-1.5V375.6z"/>
				</g>
			</g>
			<g>
				<g>
					<path class="st2" d="M351,357.3h19v4.7h-14.3v8.5H370v4.6h-14.3v11.8H370v4.6h-19V357.3z"/>
				</g>
			</g>
			<g>
				<g>
					<path class="st2" d="M396.3,361.1l-3.8,3c-1-1-1.9-1.8-2.7-2.3c-0.8-0.5-2-0.8-3.5-0.8c-1.7,0-3,0.4-4.1,1.1
						c-1,0.8-1.6,1.7-1.6,2.9c0,1,0.5,1.9,1.4,2.7c0.9,0.8,2.5,1.7,4.7,2.6s3.9,1.8,5.1,2.6c1.2,0.8,2.2,1.7,3,2.7s1.4,2,1.8,3.1
						s0.6,2.2,0.6,3.5c0,2.8-1,5.3-3.1,7.3s-4.6,3-7.5,3s-5.4-0.8-7.6-2.3s-3.9-3.9-5.1-7.1l4.7-1.3c1.7,3.8,4.3,5.8,7.8,5.8
						c1.7,0,3.1-0.5,4.2-1.5s1.7-2.3,1.7-3.9c0-0.9-0.3-1.9-0.9-2.8s-1.3-1.7-2.2-2.3c-0.9-0.6-2.3-1.3-4.2-2.1
						c-1.9-0.8-3.4-1.5-4.4-2.2s-1.9-1.4-2.7-2.3c-0.8-0.9-1.3-1.8-1.7-2.7c-0.4-0.9-0.5-1.9-0.5-2.9c0-2.5,1-4.5,3-6.3
						s4.4-2.6,7.2-2.6c1.9,0,3.8,0.4,5.7,1.2C393.5,358.2,395.1,359.4,396.3,361.1z"/>
				</g>
			</g>
			<g>
				<g>
					<path class="st2" d="M400.8,357.3h20.9v4.7h-8.2v29.5H409V362h-8.1v-4.7H400.8z"/>
				</g>
			</g>
			<g>
				<g>
					<path class="st2" d="M455,355.9l16.2,35.5h-4.9l-4-8.8h-14.5l-3.9,8.8H439L455,355.9z M455,366.6l-5.5,12.2h11L455,366.6z"/>
				</g>
			</g>
			<g>
				<g>
					<path class="st2" d="M475.1,357.3h19v4.7h-14.3v8.5H494v4.6h-14.3v11.8H494v4.6h-19v-34.2H475.1z"/>
				</g>
			</g>
			<g>
				<g>
					<path class="st2" d="M520.4,361.1l-3.8,3c-1-1-1.9-1.8-2.7-2.3s-2-0.8-3.5-0.8c-1.7,0-3,0.4-4.1,1.1c-1,0.8-1.6,1.7-1.6,2.9
						c0,1,0.5,1.9,1.4,2.7c0.9,0.8,2.5,1.7,4.7,2.6c2.2,0.9,3.9,1.8,5.1,2.6c1.2,0.8,2.2,1.7,3,2.7s1.4,2,1.8,3.1
						c0.4,1.1,0.6,2.2,0.6,3.5c0,2.8-1,5.3-3.1,7.3s-4.6,3-7.5,3c-2.9,0-5.4-0.8-7.6-2.3s-3.9-3.9-5.1-7.1l4.7-1.3
						c1.7,3.8,4.3,5.8,7.8,5.8c1.7,0,3.1-0.5,4.2-1.5s1.7-2.3,1.7-3.9c0-0.9-0.3-1.9-0.9-2.8c-0.6-0.9-1.3-1.7-2.2-2.3
						c-0.9-0.6-2.3-1.3-4.2-2.1c-1.9-0.8-3.4-1.5-4.4-2.2s-1.9-1.4-2.7-2.3c-0.8-0.9-1.3-1.8-1.7-2.7c-0.4-0.9-0.5-1.9-0.5-2.9
						c0-2.5,1-4.5,3-6.3s4.4-2.6,7.2-2.6c1.9,0,3.8,0.4,5.7,1.2C517.6,358.2,519.2,359.4,520.4,361.1z"/>
				</g>
			</g>
			<g>
				<g>
					<path class="st2" d="M524.9,357.3h20.9v4.7h-8.2v29.5H533V362h-8.1L524.9,357.3L524.9,357.3z"/>
				</g>
			</g>
			<g>
				<g>
					<path class="st2" d="M551.3,357.3h4.7v13.2h16.4v-13.2h4.6v34.2h-4.6V375H556v16.4h-4.7V357.3z"/>
				</g>
			</g>
			<g>
				<g>
					<path class="st2" d="M584,357.3h19v4.7h-14.3v8.5H603v4.6h-14.3v11.8H603v4.6h-19V357.3z"/>
				</g>
			</g>
			<g>
				<g>
					<path class="st2" d="M606.3,357.3h20.9v4.7H619v29.5h-4.6V362h-8.1L606.3,357.3L606.3,357.3z"/>
				</g>
			</g>
			<g>
				<g>
					<path class="st2" d="M632.5,357.3h4.6v34.2h-4.6V357.3z"/>
				</g>
			</g>
			<g>
				<g>
					<path class="st2" d="M672.3,358.4v5.3c-3.7-1.8-7.1-2.7-10.2-2.7c-4,0-7.3,1.3-10,3.9s-4.1,5.7-4.1,9.5s1.4,7,4.2,9.5
						s6.3,3.8,10.5,3.8c3,0,6.3-1,9.7-2.9v5.3c-3.1,1.6-6.5,2.5-10.1,2.5c-5.3,0-9.8-1.8-13.6-5.4s-5.6-7.9-5.6-13
						c0-5,1.8-9.2,5.5-12.8c3.7-3.5,8.2-5.3,13.4-5.3C665.2,356.2,668.7,356.9,672.3,358.4z"/>
				</g>
			</g>
			<g>
				<g>
					<path class="st2" d="M698.7,361.1l-3.8,3c-1-1-1.9-1.8-2.7-2.3s-2-0.8-3.5-0.8c-1.7,0-3,0.4-4.1,1.1c-1,0.8-1.6,1.7-1.6,2.9
						c0,1,0.5,1.9,1.4,2.7c0.9,0.8,2.5,1.7,4.7,2.6s3.9,1.8,5.1,2.6c1.2,0.8,2.2,1.7,3,2.7s1.4,2,1.8,3.1c0.4,1.1,0.6,2.2,0.6,3.5
						c0,2.8-1,5.3-3.1,7.3s-4.6,3-7.5,3s-5.4-0.8-7.6-2.3s-3.9-3.9-5.1-7.1l4.7-1.3c1.7,3.8,4.3,5.8,7.8,5.8c1.7,0,3.1-0.5,4.2-1.5
						s1.7-2.3,1.7-3.9c0-0.9-0.3-1.9-0.9-2.8c-0.6-0.9-1.3-1.7-2.2-2.3c-0.9-0.6-2.3-1.3-4.2-2.1c-1.9-0.8-3.4-1.5-4.4-2.2
						s-1.9-1.4-2.7-2.3s-1.3-1.8-1.7-2.7c-0.4-0.9-0.5-1.9-0.5-2.9c0-2.5,1-4.5,3-6.3s4.4-2.6,7.2-2.6c1.9,0,3.8,0.4,5.7,1.2
						C695.9,358.2,697.5,359.4,698.7,361.1z"/>
				</g>
			</g>
		</g>
		<g class="st0">
			<g>
				<g>
					<path class="st2" d="M268.2,315.4l-3.8,3c-1-1-1.9-1.8-2.7-2.3c-0.8-0.5-2-0.8-3.5-0.8c-1.7,0-3,0.4-4.1,1.1
						c-1,0.8-1.6,1.7-1.6,2.9c0,1,0.5,2,1.4,2.7c0.9,0.8,2.5,1.7,4.7,2.6s3.9,1.8,5.1,2.6c1.2,0.8,2.2,1.7,3,2.7s1.4,2,1.8,3.1
						s0.6,2.2,0.6,3.5c0,2.8-1,5.3-3.1,7.3s-4.6,3-7.5,3s-5.4-0.8-7.6-2.4c-2.2-1.6-3.9-3.9-5.1-7.1l4.7-1.3
						c1.7,3.9,4.3,5.8,7.8,5.8c1.7,0,3.1-0.5,4.2-1.5s1.7-2.3,1.7-3.9c0-0.9-0.3-1.9-0.9-2.8s-1.3-1.7-2.2-2.3
						c-0.9-0.6-2.3-1.3-4.2-2.1c-1.9-0.8-3.4-1.5-4.4-2.2s-1.9-1.4-2.7-2.3s-1.3-1.8-1.7-2.7c-0.4-0.9-0.5-1.9-0.5-2.9
						c0-2.5,1-4.5,3-6.3c2-1.7,4.4-2.6,7.2-2.6c1.9,0,3.8,0.4,5.7,1.2S267,313.8,268.2,315.4z"/>
				</g>
			</g>
			<g>
				<g>
					<path class="st2" d="M274.5,311.6h19v4.7h-14.3v8.5h14.3v4.6h-14.3v11.8h14.3v4.6h-19V311.6z"/>
				</g>
			</g>
			<g>
				<g>
					<path class="st2" d="M326.6,312.8v5.3c-3.7-1.8-7.1-2.7-10.2-2.7c-4,0-7.3,1.3-10,3.9s-4.1,5.7-4.1,9.5s1.4,7,4.2,9.5
						c2.8,2.5,6.3,3.8,10.5,3.8c3,0,6.3-1,9.7-2.9v5.3c-3.1,1.6-6.5,2.5-10.1,2.5c-5.3,0-9.8-1.8-13.6-5.4c-3.8-3.6-5.6-7.9-5.6-13
						c0-5,1.8-9.2,5.5-12.8c3.7-3.5,8.2-5.3,13.4-5.3C319.6,310.5,323,311.3,326.6,312.8z"/>
				</g>
			</g>
			<g>
				<g>
					<path class="st2" d="M332.9,311.6h7.4c3.7,0,6.7,0.9,9,2.8c2.3,1.8,3.5,4.2,3.5,7c0,2.3-0.8,4.3-2.3,6.1c-1.5,1.8-3.8,3-7,3.7
						l9.9,14.6H348l-9.5-14.1h-1v14.1h-4.7v-34.2H332.9z M337.6,315.7v11.9c6.9,0.1,10.3-1.9,10.3-6c0-1.5-0.4-2.6-1.2-3.6
						c-0.8-0.9-1.9-1.5-3.2-1.9C342.1,315.9,340.2,315.7,337.6,315.7z"/>
				</g>
			</g>
			<g>
				<g>
					<path class="st2" d="M359.3,311.6h19v4.7H364v8.5h14.3v4.6H364v11.8h14.3v4.6h-19V311.6z"/>
				</g>
			</g>
			<g>
				<g>
					<path class="st2" d="M381.7,311.6h20.9v4.7h-8.2v29.5h-4.6v-29.5h-8.1L381.7,311.6L381.7,311.6z"/>
				</g>
			</g>
			<g>
				<g>
					<path class="st2" d="M456.1,317.1l-3.5,3.4c-3.5-3.4-7.5-5.1-12.1-5.1c-4,0-7.4,1.3-10,3.9c-2.7,2.6-4,5.8-4,9.7
						c0,3.4,1.3,6.4,3.9,9.1s6.2,4.1,10.7,4.1c6.8,0,11.1-3,12.9-8.9h-9.2v-4.7h14.6c0,2.3-0.2,4.2-0.5,5.6s-1,2.9-1.9,4.6
						c-1,1.7-2.3,3.2-3.9,4.5s-3.4,2.3-5.3,2.9s-4.1,0.9-6.7,0.9c-5.9,0-10.6-1.9-14.1-5.6s-5.3-8-5.3-12.7c0-5,1.8-9.3,5.4-12.8
						s8-5.3,13.1-5.3c3,0,5.8,0.5,8.3,1.4C450.9,312.8,453.5,314.6,456.1,317.1z"/>
				</g>
			</g>
			<g>
				<g>
					<path class="st2" d="M478.2,310.3l16.2,35.5h-4.9l-4-8.8H471l-3.9,8.8h-4.9L478.2,310.3z M478.2,321l-5.5,12.2h11L478.2,321z"
						/>
				</g>
			</g>
			<g>
				<g>
					<path class="st2" d="M526.9,310.2l9.4,35.6h-4.6L526,324l-9.8,23.1l-9.8-23.3l-5.7,22h-4.6l9.4-35.6l10.7,25.5L526.9,310.2z"/>
				</g>
			</g>
			<g>
				<g>
					<path class="st2" d="M540.7,311.6h19v4.7h-14.3v8.5h14.3v4.6h-14.3v11.8h14.3v4.6h-19V311.6z"/>
				</g>
			</g>
		</g>
		<g class="st0">
			<g>
				<g>
					<path class="st2" d="M593.1,310.3l16.2,35.5h-4.9l-4-8.8h-14.5l-3.9,8.8h-4.9L593.1,310.3z M593.1,321l-5.5,12.2h11L593.1,321z
						"/>
				</g>
			</g>
		</g>
		<g class="st0">
			<g>
				<g>
					<path class="st2" d="M633.1,310.3l11,25.3l10.3-23.9h4.8L644,346.9l-11-25.3l-11,25.3l-15.2-35.2h4.8l10.4,24.2L633.1,310.3z"
						/>
				</g>
			</g>
		</g>
		<g class="st0">
			<g>
				<g>
					<path class="st2" d="M673.1,310.3l16.2,35.5h-4.9l-4-8.8h-14.5l-3.9,8.8h-4.9L673.1,310.3z M673.1,321l-5.5,12.2h11L673.1,321z
						"/>
				</g>
			</g>
			<g>
				<g>
					<path class="st2" d="M694.3,311.6h7.4c3.7,0,6.7,0.9,9,2.8c2.3,1.8,3.5,4.2,3.5,7c0,2.3-0.8,4.3-2.3,6.1c-1.5,1.8-3.8,3-7,3.7
						l9.9,14.6h-5.4l-9.5-14.1h-1v14.1h-4.7L694.3,311.6L694.3,311.6z M699,315.7v11.9c6.9,0.1,10.3-1.9,10.3-6
						c0-1.5-0.4-2.6-1.2-3.6c-0.8-0.9-1.9-1.5-3.2-1.9C703.5,315.9,701.6,315.7,699,315.7z"/>
				</g>
			</g>
			<g>
				<g>
					<path class="st2" d="M721.1,311.6h8.3c6.6,0,11.5,1.7,14.7,5.2s4.8,7.4,4.8,11.9s-1.7,8.5-5,11.9s-8.1,5.2-14.5,5.2H721v-34.2
						H721.1z M725.8,316.2v25h0.3c3.5,0,6.1-0.2,7.8-0.5s3.4-1,5-2.1s2.8-2.5,3.8-4.2c0.9-1.7,1.4-3.7,1.4-5.8c0-2.6-0.7-5-2.2-7.1
						s-3.3-3.6-5.3-4.3c-2.1-0.7-4.8-1.1-8.3-1.1h-2.5V316.2z"/>
				</g>
			</g>
			<g>
				<g>
					<path class="st2" d="M775.2,315.4l-3.8,3c-1-1-1.9-1.8-2.7-2.3s-2-0.8-3.5-0.8c-1.7,0-3,0.4-4.1,1.1s-1.6,1.7-1.6,2.9
						c0,1,0.5,2,1.4,2.7c0.9,0.8,2.5,1.7,4.7,2.6s3.9,1.8,5.1,2.6c1.2,0.8,2.2,1.7,3,2.7s1.4,2,1.8,3.1c0.4,1.1,0.6,2.2,0.6,3.5
						c0,2.8-1,5.3-3.1,7.3s-4.6,3-7.5,3s-5.4-0.8-7.6-2.4s-3.9-3.9-5.1-7.1l4.7-1.3c1.7,3.9,4.3,5.8,7.8,5.8c1.7,0,3.1-0.5,4.2-1.5
						s1.7-2.3,1.7-3.9c0-0.9-0.3-1.9-0.9-2.8c-0.6-0.9-1.3-1.7-2.2-2.3c-0.9-0.6-2.3-1.3-4.2-2.1c-1.9-0.8-3.4-1.5-4.4-2.2
						s-1.9-1.4-2.7-2.3s-1.3-1.8-1.7-2.7c-0.4-0.9-0.5-1.9-0.5-2.9c0-2.5,1-4.5,3-6.3s4.4-2.6,7.2-2.6c1.9,0,3.8,0.4,5.7,1.2
						S773.9,313.8,775.2,315.4z"/>
				</g>
			</g>
		</g>
		<g class="st0">
			<g>
				<g>
					<path class="st2" d="M459.4,467.8h14.2v5h-25.4l19-20.2c1.4-1.6,2.1-3.3,2.1-5.1c0-2.2-0.8-4.1-2.2-5.7
						c-1.5-1.6-3.3-2.4-5.3-2.4c-1.7,0-3.2,0.5-4.7,1.6s-2.4,2.7-2.9,5h-4.9c0.5-3.7,1.9-6.5,4.3-8.5s5.2-3.1,8.5-3.1
						s6.1,1.3,8.5,3.8s3.6,5.6,3.6,9.1c0,1.7-0.3,3.2-0.9,4.7s-1.7,2.9-3.2,4.6L459.4,467.8z"/>
				</g>
			</g>
			<g>
				<g>
					<path class="st2" d="M494.7,434.2c4.1,0,7.4,1.8,10,5.5s3.8,8.4,3.8,14.3c0,6.1-1.4,10.9-4.1,14.5c-2.8,3.6-6.1,5.4-9.9,5.4
						c-4,0-7.3-1.8-10-5.5s-4-8.4-4-14.1c0-6.3,1.4-11.3,4.1-14.8s6-5.3,9.8-5.3H494.7z M503.2,454c0-4.2-0.8-7.7-2.5-10.4
						c-1.7-2.7-3.7-4.1-6.3-4.1c-2.6,0-4.7,1.3-6.3,4c-1.6,2.7-2.5,6.2-2.5,10.6c0,4.3,0.8,7.8,2.5,10.5c1.7,2.6,3.8,4,6.4,4
						c2.5,0,4.6-1.3,6.2-4C502.4,461.9,503.2,458.3,503.2,454z"/>
				</g>
			</g>
			<g>
				<g>
					<path class="st2" d="M520.5,435.6h9.7v37.1h-5v-32.2h-6.3L520.5,435.6z"/>
				</g>
			</g>
			<g>
				<g>
					<path class="st2" d="M558.4,474.6l-4-2.8l8.2-11.9c-1.1,0.2-2,0.2-2.6,0.2c-3.7,0-6.8-1.2-9.3-3.7s-3.7-5.5-3.7-9.2
						c0-3.5,1.4-6.6,4.1-9.2c2.7-2.6,5.9-3.9,9.5-3.9s6.7,1.3,9.4,4s4,5.8,4,9.3c0,2.9-0.9,5.6-2.7,8.3L558.4,474.6z M568.8,447.8
						c0-2.3-0.8-4.3-2.4-5.9s-3.5-2.5-5.8-2.5c-2.4,0-4.4,0.8-6,2.4s-2.4,3.6-2.4,6.1c0,2.2,0.8,4.1,2.5,5.7s3.7,2.4,6.1,2.4
						c2.2,0,4.1-0.8,5.6-2.4C568,452.1,568.8,450.1,568.8,447.8z"/>
				</g>
			</g>
		</g>
		<g>
			<g>
				<path class="st2" d="M234.8,481.7c2-20.5-7.1-38.3-7.1-38.3s-19.9,0.5-19.3,34.3c0.2,11.2,2.6,22.3,7.3,32.6
					c-10.6-6.5-20.6-13.8-30-22l-3.8-3.4c3-1.2,15.3-7.6,19-32.9c3-20.4-6.1-37.9-6.1-37.9l0,0c0,0-20.6,3-21.5,31.4
					c-0.7,21.1,4.6,33.6,6.9,38c-12-10.8-23.4-22.3-34-34.5c8.8-6.6,19.7-13.7,25.1-24.2c8.2-15.9,6.4-25.3,7.6-40
					c-10.5,3.1-21.8,6.1-29.8,28c-4.6,12.7-0.7,18.5-4.2,34.8c-8.5-9.8-16.3-20.2-23.3-31c9.8-4.4,21.3-7.2,29.9-20.8
					c9.6-15.2,7.6-15.3,16.3-40.2c-10.9,1-22.6,1.9-34.6,21.9c-6.9,11.6-6.1,21.8-12.7,37.5c-7.5-11.6-13.8-23.9-19-36.8
					c10.8-2.6,25.1-2.1,38.9-16.6c14.2-14.8,19.1-29.6,22.5-40.4c-10.9,1-27.7,0.5-40.9,17.9c-11.6,15.2-10.9,20-21.3,36.9
					c-1.4-3.7-2.7-7.4-3.9-11.2c-2.6-8.3-4.6-16.7-6-25.3c7.3-0.1,24.7-0.6,40.1-14.6c15.2-13.8,22.3-29.7,26.5-40.3
					c-10.9,0.1-26.8-3.2-43.5,15.5c-12.3,13.7-16.7,23.8-23.7,35.7c-2.3-15.1-3-30.4-2-45.7c6.4,0.2,26.4,1,44.5-12.1
					c16.6-12,24.7-28,30.1-38c-10.9-1.1-26.9-6.4-45.7,10.3c-14.3,12.8-19.9,25.6-28.8,37.6c0.4-5.8,1.1-11.6,1.9-17.3
					c1.8-11.5,4.5-22.8,8-33.8c6.5,1.3,21.8,3.7,41.5-3.4c21.2-7.7,33.1-29,36-34.2c-10.5-3.1-23.1-7-46.1,4.7
					c-13.7,7-23.3,17.4-28.7,24.5c4.3-12.7,9.2-25,14-36.9c6.1,1.7,21.4,5.6,42.1-0.3c21.7-6.1,35.1-26.6,38.4-31.5
					c-10.2-3.8-22.4-8.6-46.3,1.4c-14.7,6.2-25.2,16.4-31,23.2c6.9-15.4,15.3-30,25.1-43.7c4.3,2.1,13.6,6.9,35.6,4.8
					c28-2.6,39.6-20.4,39.6-20.4c-9.5-5.5-18.7-9-37.8-5.6c-12.4,2.2-24,7.7-33.7,15.8c8.3-11.5,16.9-22.8,26-33.8
					c4.6,2,16.6,6.8,39,4.7c28-2.6,42.6-21.3,42.6-21.3c-9.5-5.5-24.2-8.6-43.4-5.3c-11.9,2.2-23.1,7.4-32.6,15
					c6-7.1,12.2-14.1,18.6-20.8c3-3.2,6.3-6.3,9.7-9.3c6.6,0.1,30.7-0.2,43.6-7.7c16.8-9.8,33.4-31,34.7-37.2
					c0,0-26.5-11.6-51.2,9.6c-15.1,13-23.7,25.7-27.1,32c-3.3,2.9-6.4,5.9-9.4,9c-3.3,3.5-6.6,7-9.9,10.6c4.6-7.2,9.9-17.5,12-29.4
					c3.4-19.1,0-40-3.6-45.2c0,0-20.7,12.9-22.2,45.4c-1,22.3,3.3,34,5.3,38.6c-10.4,11.8-20.6,24.2-30,36.6
					c4.2-8,9.9-20.7,12.1-33.8c3.4-20.5-4.9-42.8-6.7-44.8c0,0-21.7,9.5-20.9,46.1c0.2,13.9,3.6,27.5,9.9,39.9c-0.8,1-1.5,2-2.2,3
					c-8.4,11.7-16.2,23.8-23.3,36.2c2.5-8,5.9-21.6,5.2-35.6c-1.6-30.6-22.4-43.6-22.9-43.6c0,0-20,18.1-8.5,56.9
					c5.8,19.8,18.5,27.2,22.4,29.1c-2.7,4.9-5.1,9.6-7.1,13.9c-4.8,10.4-8.7,19.4-12.1,28.4c1.1-8.6,1.8-20.2,0.4-31.5
					c-4.2-33.1-29.9-40.1-30.4-40c0,0-8.8,30.6,3.7,56.8c9.8,20.4,18.1,26,21.8,27.6c-2.3,7.4-4.5,15.1-6.5,24
					c-1.3,5.8-2.4,11.6-3.3,17.4c-0.4-9.9-1.9-25-6.3-37.6c-10.1-29.1-37.7-34.9-38.2-34.8c0,0-4.5,31.2,11.5,55.4
					c14,21.2,27.3,26.3,31.6,27.4c-1.6,16.3-1.5,32.7,0.4,49c-5.7-10.3-7.8-28.8-18.5-44.2c-17.5-25.4-46.4-23.6-46.8-23.3
					c0,0,3.1,31.6,25,50.8c17.9,15.7,34.3,19.9,40.8,21c1.2,9,2.9,18,5,26.9c0.4,1.5,0.8,3,1.2,4.5c-5.2-7-19.5-24.5-38.8-33.8
					c-23.9-11.5-41.3-1.7-41.7-1.3c0,0,12.2,22.4,34.8,33.1c26.1,12.4,42.4,7.4,46.7,5.6c3.7,12.1,8.8,23.8,15.1,34.9
					c-6.3-5.7-20.5-17.2-38.3-22.6c-31.5-9.7-46.4,9.3-46.8,9.8c0,0,12.9,16.3,39.9,23.4c30.5,8.1,44.2-2.6,47.8-6.1
					c9.6,15.8,20.7,30.6,33.2,44.1c-7.1-5.5-21.8-15.9-36.2-19.5c-34.6-8.7-46,11.5-46,11.5s13,15.3,40.7,22.1
					c28.5,7,42.7-6.8,45.5-9.9c10,10.7,20.6,20.8,31.2,30.3c-5.5-2.4-23.4-9.5-40.6-9.4C97.2,484.3,95,503.2,95,503.2
					s12.9,9.3,41.4,8.9c29.4-0.4,37.1-14.4,38.4-17.4l2.1,1.9c11.6,10.1,24.3,18.9,37.7,26.4c-8.2-2.2-26.5-6.3-41.9-4.5
					c-32.4,3.8-35.4,24-35.4,24s13,8.1,40.9,5c28.4-3.1,38.2-18.3,40.3-22.3c22.2,12.3,46,21.8,68,29.7l3.8-10
					c-23.5-8.4-47.8-18.6-70.1-31.8C224.4,509.9,232.9,501.3,234.8,481.7z"/>
			</g>
		</g>
		<g>
			<g>
				<path class="st2" d="M227.7,443.4L227.7,443.4L227.7,443.4z"/>
			</g>
		</g>
		<g>
			<g>
				<path class="st2" d="M957.7,387.7c-17.8,5.5-32,17-38.3,22.7c6.3-11.1,11.3-22.8,15.1-34.9c4.3,1.8,20.7,6.8,46.8-5.6
					c22.5-10.7,34.8-33.1,34.8-33.1c-0.4-0.4-17.8-10.2-41.7,1.3c-19.3,9.3-33.6,26.8-38.8,33.8c0.4-1.5,0.8-3,1.2-4.6
					c2.1-8.9,3.8-17.8,5-26.9c6.5-1.1,22.8-5.4,40.8-21.1c21.9-19.1,25-50.8,25-50.8c-0.4-0.2-29.3-2.1-46.8,23.3
					c-10.6,15.4-12.7,33.9-18.5,44.2c1.8-16.3,2-32.7,0.4-49c4.3-1.1,17.7-6.2,31.7-27.4c16-24.3,11.5-55.4,11.5-55.4
					c-0.5-0.1-28.1,5.6-38.2,34.8c-4.4,12.7-5.8,27.9-6.3,37.8c-0.9-5.9-1.9-11.8-3.3-17.6c-2-8.9-4.1-16.6-6.5-23.9
					c3.7-1.5,12.1-7.2,21.9-27.6c12.5-26.2,3.7-56.8,3.7-56.8c-0.5-0.1-26.2,6.9-30.4,40c-1.5,11.4-0.7,23.1,0.4,31.7
					c-3.4-9.1-7.3-18.1-12.1-28.6c-2-4.3-4.4-9-7.1-13.9c3.9-1.9,16.5-9.4,22.4-29.2c11.5-38.9-8.5-56.9-8.5-56.9
					c-0.5,0-21.3,13-22.8,43.6c-0.7,14.1,2.7,27.7,5.2,35.7c-7.2-12.5-15-24.7-23.5-36.4c-0.7-1-1.5-2-2.2-3
					c6.3-12.4,9.7-26.1,9.9-40c0.8-36.5-20.9-46-20.9-46c-1.8,2-10.1,24.3-6.7,44.8c2.2,13.1,7.9,25.8,12.1,33.8
					c-9.5-12.4-19.6-24.7-30-36.5c2-4.6,6.3-16.3,5.3-38.7C846.8,18.9,826.1,6,826.1,6c-3.6,5.2-7.1,26-3.6,45.2
					c2.2,12,7.5,22.3,12.1,29.5c-3.3-3.6-6.7-7.2-10-10.7c-2.9-3.1-6.1-6-9.3-8.9c-3.4-6.2-12-19-27.2-32
					c-24.7-21.2-51.2-9.6-51.2-9.6c1.3,6.2,17.8,27.4,34.7,37.2c12.9,7.5,36.9,7.8,43.5,7.7c3.4,3,6.7,6.1,9.7,9.3
					c6.3,6.7,12.5,13.7,18.5,20.7c-9.4-7.6-20.6-12.8-32.5-15c-19.2-3.4-33.9-0.3-43.4,5.3c0,0,14.6,18.7,42.6,21.3
					c22.4,2.1,34.4-2.7,39-4.7c9.1,11,17.8,22.3,26,33.8c-9.6-8.2-21.3-13.7-33.7-15.9c-19.2-3.4-28.4,0.1-37.8,5.6
					c0,0,11.7,17.8,39.6,20.4c22.2,2,31.5-2.8,35.7-4.8c9.8,13.7,18.2,28.4,25.1,43.7c-5.8-6.7-16.3-16.9-31-23.1
					c-23.8-10-36.1-5.2-46.4-1.4c3.3,4.9,16.7,25.4,38.4,31.5c20.6,5.8,36,2,42.1,0.3c4.9,11.9,9.8,24.3,14.1,37
					c-5.4-7.1-15-17.6-28.7-24.6c-23.1-11.7-35.6-7.8-46.1-4.7c2.9,5.1,14.8,26.5,36,34.2c19.7,7.1,35,4.6,41.5,3.4
					c3.5,11.1,6.2,22.4,8,33.8c0.9,5.8,1.6,11.5,2,17.3c-8.9-12-14.5-24.9-28.8-37.7c-18.7-16.7-34.8-11.4-45.7-10.3
					c5.4,10.1,13.4,26,30.1,38c18.2,13.1,38.2,12.3,44.5,12.1c1,15.3,0.3,30.6-2,45.7c-6.9-11.9-11.4-22-23.7-35.6
					c-16.7-18.7-32.6-15.4-43.5-15.5c4.2,10.6,11.3,26.5,26.5,40.3c15.4,14,32.8,14.5,40.1,14.6c-1.4,8.5-3.5,17-6,25.3
					c-1.2,3.8-2.5,7.5-3.9,11.2c-10.5-16.8-9.7-21.6-21.4-36.9c-13.2-17.3-30-16.8-40.9-17.8c3.3,10.9,8.3,25.7,22.5,40.5
					c13.8,14.5,28.1,14,38.9,16.6c-5.2,12.8-11.5,25.1-19,36.8c-6.6-15.6-5.8-25.9-12.7-37.5c-11.9-20-23.7-20.9-34.5-21.9
					c8.7,24.9,6.7,25,16.3,40.2c8.6,13.7,20.1,16.4,29.9,20.8c-7.1,10.8-14.9,21.2-23.4,31c-3.5-16.4,0.4-22.1-4.2-34.8
					c-7.9-21.9-19.3-25-29.8-28c1.2,14.7-0.6,24,7.6,40c5.5,10.5,16.4,17.6,25.2,24.2c-10.6,12.2-22,23.7-34,34.5
					c2.3-4.3,7.6-16.9,6.9-38c-1-28.5-21.6-31.5-21.6-31.5l0,0c0,0-9.1,17.6-6.1,37.9c3.8,25.3,16.1,31.7,19,32.9l-3.8,3.4
					c-9.4,8.2-19.4,15.5-30,22c4.6-10.2,7.1-21.3,7.3-32.6c0.6-33.8-19.3-34.3-19.3-34.3l0,0c0,0-9.1,17.8-7.1,38.3
					c1.9,19.6,10.4,28.2,14.6,31.3c-22.3,13.2-46.7,23.4-70.1,31.8l3.8,10c22-7.9,45.8-17.4,68-29.7c2,3.9,11.8,19.2,40.3,22.3
					c27.9,3.1,41-5,41-5s-3-20.2-35.5-24c-15.4-1.8-33.9,2.4-42,4.5c13.4-7.5,26.1-16.4,37.7-26.4l2.1-1.9c1.3,3,9,17,38.4,17.4
					c28.5,0.4,41.4-8.9,41.4-8.9s-2.1-18.9-37.8-19.2c-17.1-0.1-35,7-40.5,9.4c10.7-9.5,21.3-19.6,31.3-30.3c2.7,3,17,16.9,45.5,10
					c27.7-6.8,40.6-22.2,40.6-22.2s-11.5-20.1-46-11.5c-14.5,3.6-29.4,14.2-36.4,19.7c12.6-13.6,23.8-28.4,33.4-44.3
					c3.5,3.5,17.2,14.2,47.8,6.1c27-7.1,39.9-23.4,39.9-23.4C1004.1,397,989.3,378,957.7,387.7z"/>
			</g>
		</g>
	</g>
</g>
</svg>
