<?xml version="1.0" encoding="utf-8"?>
<!-- Generator: Adobe Illustrator 22.1.0, SVG Export Plug-In . SVG Version: 6.00 Build 0)  -->
<svg version="1.1" id="Layer_1" xmlns="http://www.w3.org/2000/svg" xmlns:xlink="http://www.w3.org/1999/xlink" x="0px" y="0px"
	 viewBox="0 0 1022 560.8" style="enable-background:new 0 0 1022 560.8;" xml:space="preserve">
<style type="text/css">
	.st0{fill:none;stroke:#203F79;stroke-width:12;stroke-linecap:round;stroke-linejoin:round;}
	.st1{font-family:'TwCenMT-Bold';}
	.st2{font-size:94.53px;}
	.st3{letter-spacing:-3;}
	.st4{font-family:'TwCenMT-Regular';}
	.st5{font-size:55.01px;}
	.st6{letter-spacing:-4;}
	.st7{font-size:59.83px;}
	.st8{enable-background:new    ;}
	.st9{fill:#EEEEEE;}
</style>
<title>Award_PopCon19</title>
<g id="Layer_2_1_">
	<g id="Layer_1-2">
		<text transform="matrix(1 0 0 1 205.16 267.2)" class="st0 st1 st2">IN</text>
		<text transform="matrix(1 0 0 1 294.75 267.2)" class="st0 st1 st2 st3">D</text>
		<text transform="matrix(1 0 0 1 350.97 267.2)" class="st0 st1 st2">Y POP CON</text>
		<text transform="matrix(1 0 0 1 320.26 391.48)" class="st0 st4 st5">BEST AESTHETICS</text>
		<text transform="matrix(1 0 0 1 243.77 345.82)" class="st0 st4 st5">SECRET GAME </text>
		<text transform="matrix(1 0 0 1 576.78 345.82)" class="st0 st4 st5 st6">A</text>
		<text transform="matrix(1 0 0 1 605.6 345.82)" class="st0 st4 st5 st3">W</text>
		<text transform="matrix(1 0 0 1 656.77 345.82)" class="st0 st4 st5">ARDS</text>
		<text transform="matrix(1 0 0 1 444.97 472.72)" class="st0 st4 st7">2019</text>
		<path class="st0" d="M234.8,481.7c2-20.5-7.1-38.3-7.1-38.3s-19.9,0.5-19.3,34.3c0.2,11.2,2.6,22.3,7.3,32.6
			c-10.6-6.5-20.6-13.8-30-22l-3.8-3.4c3-1.2,15.3-7.6,19-32.9c3-20.4-6.1-37.9-6.1-37.9l0,0c0,0-20.6,3-21.5,31.4
			c-0.7,21.1,4.6,33.6,6.9,38c-12-10.8-23.4-22.3-34-34.5c8.8-6.6,19.7-13.7,25.1-24.2c8.2-15.9,6.4-25.3,7.6-40
			c-10.5,3.1-21.8,6.1-29.8,28c-4.6,12.7-0.7,18.5-4.2,34.8c-8.5-9.8-16.3-20.2-23.3-31c9.8-4.4,21.3-7.2,29.9-20.8
			c9.6-15.2,7.6-15.3,16.3-40.2c-10.9,1-22.6,1.9-34.6,21.9c-6.9,11.6-6.1,21.8-12.7,37.5c-7.5-11.6-13.8-23.9-19-36.8
			c10.8-2.6,25.1-2.1,38.9-16.6c14.2-14.8,19.1-29.6,22.5-40.4c-10.9,1-27.7,0.5-40.9,17.9c-11.6,15.2-10.9,20-21.3,36.9
			c-1.4-3.7-2.7-7.4-3.9-11.2c-2.6-8.3-4.6-16.7-6-25.3c7.3-0.1,24.7-0.6,40.1-14.6c15.2-13.8,22.3-29.7,26.5-40.3
			c-10.9,0.1-26.8-3.2-43.5,15.5c-12.3,13.7-16.7,23.8-23.7,35.7c-2.3-15.1-3-30.4-2-45.7c6.4,0.2,26.4,1,44.5-12.1
			c16.6-12,24.7-28,30.1-38c-10.9-1.1-26.9-6.4-45.7,10.3c-14.3,12.8-19.9,25.6-28.8,37.6c0.4-5.8,1.1-11.6,1.9-17.3
			c1.8-11.5,4.5-22.8,8-33.8c6.5,1.3,21.8,3.7,41.5-3.4c21.2-7.7,33.1-29,36-34.2c-10.5-3.1-23.1-7-46.1,4.7
			c-13.7,7-23.3,17.4-28.7,24.5c4.3-12.7,9.2-25,14-36.9c6.1,1.7,21.4,5.6,42.1-0.3c21.7-6.1,35.1-26.6,38.4-31.5
			c-10.2-3.8-22.4-8.6-46.3,1.4c-14.7,6.2-25.2,16.4-31,23.2c6.9-15.4,15.3-30,25.1-43.7c4.3,2.1,13.6,6.9,35.6,4.8
			c28-2.6,39.6-20.4,39.6-20.4c-9.5-5.5-18.7-9-37.8-5.6c-12.4,2.2-24,7.7-33.7,15.8c8.3-11.5,16.9-22.8,26-33.8
			c4.6,2,16.6,6.8,39,4.7c28-2.6,42.6-21.3,42.6-21.3c-9.5-5.5-24.2-8.6-43.4-5.3c-11.9,2.2-23.1,7.4-32.6,15
			c6-7.1,12.2-14.1,18.6-20.8c3-3.2,6.3-6.3,9.7-9.3c6.6,0.1,30.7-0.2,43.6-7.7c16.8-9.8,33.4-31,34.7-37.2c0,0-26.5-11.6-51.2,9.6
			c-15.1,13-23.7,25.7-27.1,32c-3.3,2.9-6.4,5.9-9.4,9c-3.3,3.5-6.6,7-9.9,10.6c4.6-7.2,9.9-17.5,12-29.4c3.4-19.1,0-40-3.6-45.2
			c0,0-20.7,12.9-22.2,45.4c-1,22.3,3.3,34,5.3,38.6c-10.4,11.8-20.6,24.2-30,36.6c4.2-8,9.9-20.7,12.1-33.8
			c3.4-20.5-4.9-42.8-6.7-44.8c0,0-21.7,9.5-20.9,46.1c0.2,13.9,3.6,27.5,9.9,39.9c-0.8,1-1.5,2-2.2,3
			c-8.4,11.7-16.2,23.8-23.3,36.2c2.5-8,5.9-21.6,5.2-35.6c-1.6-30.6-22.4-43.6-22.9-43.6c0,0-20,18.1-8.5,56.9
			c5.8,19.8,18.5,27.2,22.4,29.1c-2.7,4.9-5.1,9.6-7.1,13.9c-4.8,10.4-8.7,19.4-12.1,28.4c1.1-8.6,1.8-20.2,0.4-31.5
			c-4.2-33.1-29.9-40.1-30.4-40c0,0-8.8,30.6,3.7,56.8c9.8,20.4,18.1,26,21.8,27.6c-2.3,7.4-4.5,15.1-6.5,24
			c-1.3,5.8-2.4,11.6-3.3,17.4c-0.4-9.9-1.9-25-6.3-37.6c-10.1-29.1-37.7-34.9-38.2-34.8c0,0-4.5,31.2,11.5,55.4
			c14,21.2,27.3,26.3,31.6,27.4c-1.6,16.3-1.5,32.7,0.4,49c-5.7-10.3-7.8-28.8-18.5-44.2c-17.5-25.4-46.4-23.6-46.8-23.3
			c0,0,3.1,31.6,25,50.8c17.9,15.7,34.3,19.9,40.8,21c1.2,9,2.9,18,5,26.9c0.4,1.5,0.8,3,1.2,4.5c-5.2-7-19.5-24.5-38.8-33.8
			c-23.9-11.5-41.3-1.7-41.7-1.3c0,0,12.2,22.4,34.8,33.1c26.1,12.4,42.4,7.4,46.7,5.6c3.7,12.1,8.8,23.8,15.1,34.9
			c-6.3-5.7-20.5-17.2-38.3-22.6c-31.5-9.7-46.4,9.3-46.8,9.8c0,0,12.9,16.3,39.9,23.4c30.5,8.1,44.2-2.6,47.8-6.1
			c9.6,15.8,20.7,30.6,33.2,44.1c-7.1-5.5-21.8-15.9-36.2-19.5c-34.6-8.7-46,11.5-46,11.5S69,466.2,96.7,473
			c28.5,7,42.7-6.8,45.5-9.9c10,10.7,20.6,20.8,31.2,30.3c-5.5-2.4-23.4-9.5-40.6-9.4c-35.6,0.3-37.8,19.2-37.8,19.2
			s12.9,9.3,41.4,8.9c29.4-0.4,37.1-14.4,38.4-17.4l2.1,1.9c11.6,10.1,24.3,18.9,37.7,26.4c-8.2-2.2-26.5-6.3-41.9-4.5
			c-32.4,3.8-35.4,24-35.4,24s13,8.1,40.9,5c28.4-3.1,38.2-18.3,40.3-22.3c22.2,12.3,46,21.8,68,29.7l3.8-10
			c-23.5-8.4-47.8-18.6-70.1-31.8C224.4,509.9,232.9,501.3,234.8,481.7z"/>
		<polygon class="st0" points="227.7,443.4 227.7,443.4 227.7,443.4 		"/>
		<path class="st0" d="M957.7,387.7c-17.8,5.5-32,17-38.3,22.7c6.3-11.1,11.3-22.8,15.1-34.9c4.3,1.8,20.7,6.8,46.8-5.6
			c22.5-10.7,34.8-33.1,34.8-33.1c-0.4-0.4-17.8-10.2-41.7,1.3c-19.3,9.3-33.6,26.8-38.8,33.8c0.4-1.5,0.8-3,1.2-4.6
			c2.1-8.9,3.8-17.8,5-26.9c6.5-1.1,22.8-5.4,40.8-21.1c21.9-19.1,25-50.8,25-50.8c-0.4-0.2-29.3-2.1-46.8,23.3
			c-10.6,15.4-12.7,33.9-18.5,44.2c1.8-16.3,2-32.7,0.4-49c4.3-1.1,17.7-6.2,31.7-27.4c16-24.3,11.5-55.4,11.5-55.4
			c-0.5-0.1-28.1,5.6-38.2,34.8c-4.4,12.7-5.8,27.9-6.3,37.8c-0.9-5.9-1.9-11.8-3.3-17.6c-2-8.9-4.1-16.6-6.5-23.9
			c3.7-1.5,12.1-7.2,21.9-27.6c12.5-26.2,3.7-56.8,3.7-56.8c-0.5-0.1-26.2,6.9-30.4,40c-1.5,11.4-0.7,23.1,0.4,31.7
			c-3.4-9.1-7.3-18.1-12.1-28.6c-2-4.3-4.4-9-7.1-13.9c3.9-1.9,16.5-9.4,22.4-29.2c11.5-38.9-8.5-56.9-8.5-56.9
			c-0.5,0-21.3,13-22.8,43.6c-0.7,14.1,2.7,27.7,5.2,35.7c-7.2-12.5-15-24.7-23.5-36.4c-0.7-1-1.5-2-2.2-3c6.3-12.4,9.7-26.1,9.9-40
			c0.8-36.5-20.9-46-20.9-46c-1.8,2-10.1,24.3-6.7,44.8c2.2,13.1,7.9,25.8,12.1,33.8c-9.5-12.4-19.6-24.7-30-36.5
			c2-4.6,6.3-16.3,5.3-38.7C846.8,18.9,826.1,6,826.1,6c-3.6,5.2-7.1,26-3.6,45.2c2.2,12,7.5,22.3,12.1,29.5
			c-3.3-3.6-6.7-7.2-10-10.7c-2.9-3.1-6.1-6-9.3-8.9c-3.4-6.2-12-19-27.2-32c-24.7-21.2-51.2-9.6-51.2-9.6
			c1.3,6.2,17.8,27.4,34.7,37.2c12.9,7.5,36.9,7.8,43.5,7.7c3.4,3,6.7,6.1,9.7,9.3c6.3,6.7,12.5,13.7,18.5,20.7
			c-9.4-7.6-20.6-12.8-32.5-15c-19.2-3.4-33.9-0.3-43.4,5.3c0,0,14.6,18.7,42.6,21.3c22.4,2.1,34.4-2.7,39-4.7
			c9.1,11,17.8,22.3,26,33.8c-9.6-8.2-21.3-13.7-33.7-15.9c-19.2-3.4-28.4,0.1-37.8,5.6c0,0,11.7,17.8,39.6,20.4
			c22.2,2,31.5-2.8,35.7-4.8c9.8,13.7,18.2,28.4,25.1,43.7c-5.8-6.7-16.3-16.9-31-23.1c-23.8-10-36.1-5.2-46.4-1.4
			c3.3,4.9,16.7,25.4,38.4,31.5c20.6,5.8,36,2,42.1,0.3c4.9,11.9,9.8,24.3,14.1,37c-5.4-7.1-15-17.6-28.7-24.6
			c-23.1-11.7-35.6-7.8-46.1-4.7c2.9,5.1,14.8,26.5,36,34.2c19.7,7.1,35,4.6,41.5,3.4c3.5,11.1,6.2,22.4,8,33.8
			c0.9,5.8,1.6,11.5,2,17.3c-8.9-12-14.5-24.9-28.8-37.7c-18.7-16.7-34.8-11.4-45.7-10.3c5.4,10.1,13.4,26,30.1,38
			c18.2,13.1,38.2,12.3,44.5,12.1c1,15.3,0.3,30.6-2,45.7c-6.9-11.9-11.4-22-23.7-35.6c-16.7-18.7-32.6-15.4-43.5-15.5
			c4.2,10.6,11.3,26.5,26.5,40.3c15.4,14,32.8,14.5,40.1,14.6c-1.4,8.5-3.5,17-6,25.3c-1.2,3.8-2.5,7.5-3.9,11.2
			c-10.5-16.8-9.7-21.6-21.4-36.9c-13.2-17.3-30-16.8-40.9-17.8c3.3,10.9,8.3,25.7,22.5,40.5c13.8,14.5,28.1,14,38.9,16.6
			c-5.2,12.8-11.5,25.1-19,36.8c-6.6-15.6-5.8-25.9-12.7-37.5c-11.9-20-23.7-20.9-34.5-21.9c8.7,24.9,6.7,25,16.3,40.2
			c8.6,13.7,20.1,16.4,29.9,20.8c-7.1,10.8-14.9,21.2-23.4,31c-3.5-16.4,0.4-22.1-4.2-34.8c-7.9-21.9-19.3-25-29.8-28
			c1.2,14.7-0.6,24,7.6,40c5.5,10.5,16.4,17.6,25.2,24.2c-10.6,12.2-22,23.7-34,34.5c2.3-4.3,7.6-16.9,6.9-38
			c-1-28.5-21.6-31.5-21.6-31.5l0,0c0,0-9.1,17.6-6.1,37.9c3.8,25.3,16.1,31.7,19,32.9l-3.8,3.4c-9.4,8.2-19.4,15.5-30,22
			c4.6-10.2,7.1-21.3,7.3-32.6c0.6-33.8-19.3-34.3-19.3-34.3l0,0c0,0-9.1,17.8-7.1,38.3c1.9,19.6,10.4,28.2,14.6,31.3
			c-22.3,13.2-46.7,23.4-70.1,31.8l3.8,10c22-7.9,45.8-17.4,68-29.7c2,3.9,11.8,19.2,40.3,22.3c27.9,3.1,41-5,41-5s-3-20.2-35.5-24
			c-15.4-1.8-33.9,2.4-42,4.5c13.4-7.5,26.1-16.4,37.7-26.4l2.1-1.9c1.3,3,9,17,38.4,17.4c28.5,0.4,41.4-8.9,41.4-8.9
			s-2.1-18.9-37.8-19.2c-17.1-0.1-35,7-40.5,9.4c10.7-9.5,21.3-19.6,31.3-30.3c2.7,3,17,16.9,45.5,10c27.7-6.8,40.6-22.2,40.6-22.2
			s-11.5-20.1-46-11.5c-14.5,3.6-29.4,14.2-36.4,19.7c12.6-13.6,23.8-28.4,33.4-44.3c3.5,3.5,17.2,14.2,47.8,6.1
			c27-7.1,39.9-23.4,39.9-23.4C1004.1,397,989.3,378,957.7,387.7z"/>
		<g class="st8">
			<path class="st9" d="M210.7,206.6h13.1v60.6h-13.1V206.6z"/>
			<path class="st9" d="M275.9,206.6h12.8v60.6H276L248.3,228v39.2h-13.1v-60.6h12.9l27.8,39V206.6z"/>
		</g>
		<g class="st8">
			<path class="st9" d="M300.6,206.6h20.7c8.8,0,15.9,2.8,21.3,8.4c5.4,5.6,8.1,12.9,8.1,22c0,9.1-2.8,16.5-8.3,22
				c-5.6,5.5-12.9,8.3-22.2,8.3h-19.6V206.6z M313.8,218v37.4h5.2c5.4,0,9.8-1.5,13.2-4.4c3.4-2.9,5.2-7.8,5.2-14.6
				c0-4-0.8-7.5-2.5-10.5c-1.7-3.1-4.1-5.1-7.2-6.2c-3.2-1.1-6.2-1.6-9-1.6H313.8z"/>
		</g>
		<g class="st8">
			<path class="st9" d="M352.5,206.6H367l11.2,18.8l11.3-18.8H404l-19.3,32.3v28.3h-12.9v-28.3L352.5,206.6z"/>
			<path class="st9" d="M437.7,206.6h20.7c5.6,0,10.1,1.6,13.5,4.9c3.4,3.2,5.1,7.5,5.1,12.8c0,3.5-0.8,6.8-2.5,9.9
				c-1.7,3.1-4.2,5.5-7.6,7c-3.4,1.5-6.3,2.3-8.7,2.4l-7.6,0.2v23.4h-13V206.6z M450.4,217.5V233h5.1c2.2,0,4.1-0.8,5.6-2.4
				c1.6-1.6,2.3-3.4,2.3-5.6c0-2.5-0.9-4.4-2.6-5.7c-1.8-1.4-4.2-2-7.5-2L450.4,217.5z"/>
			<path class="st9" d="M485.6,236.9c0-9,3-16.3,8.9-22.2c5.9-5.8,12.9-8.7,21.1-8.7c9,0,16.4,2.9,22.3,8.8
				c5.9,5.9,8.8,13.3,8.8,22.2c0,8.9-2.9,16.3-8.7,22.2c-5.8,5.9-13.1,8.8-22,8.8c-8.8,0-16.1-2.9-21.8-8.8
				C488.4,253.3,485.6,245.9,485.6,236.9z M516.1,218c-5.1-0.1-9.2,1.7-12.3,5.3c-3.1,3.6-4.7,8.2-4.7,13.9c0,5.4,1.6,9.8,4.8,13.4
				c3.2,3.5,7.2,5.3,12,5.3c5.1,0,9.2-1.7,12.3-5.2c3.1-3.5,4.7-8.1,4.7-13.8c0-5.6-1.5-10.2-4.6-13.6
				C525.3,219.9,521.2,218.1,516.1,218z"/>
			<path class="st9" d="M557.8,206.6h20.7c5.6,0,10.1,1.6,13.5,4.9c3.4,3.2,5.1,7.5,5.1,12.8c0,3.5-0.8,6.8-2.5,9.9s-4.2,5.5-7.6,7
				s-6.3,2.3-8.7,2.4l-7.6,0.2v23.4h-13V206.6z M570.6,217.5V233h5.1c2.2,0,4.1-0.8,5.6-2.4c1.6-1.6,2.3-3.4,2.3-5.6
				c0-2.5-0.9-4.4-2.6-5.7c-1.8-1.4-4.2-2-7.5-2L570.6,217.5z"/>
			<path class="st9" d="M678.1,209.8v14.8c-6.6-3.9-12.3-5.9-17.2-5.9c-4.9,0-8.9,1.7-11.8,5.1s-4.4,7.9-4.4,13.7
				c0,5.4,1.6,9.7,4.7,13c3.1,3.2,7.3,4.9,12.5,4.9c4.6,0,10-1.8,16.3-5.5v14.7c-7.1,2.4-13,3.6-17.8,3.6c-8.2,0-15.1-3-20.8-9
				c-5.7-6-8.5-13.3-8.5-21.9c0-8.8,2.9-16.2,8.7-22.3c5.8-6.1,12.9-9.1,21.2-9.1C666.3,205.8,672,207.1,678.1,209.8z"/>
			<path class="st9" d="M686,236.9c0-9,3-16.3,8.9-22.2c5.9-5.8,12.9-8.7,21.1-8.7c9,0,16.4,2.9,22.3,8.8c5.9,5.9,8.8,13.3,8.8,22.2
				c0,8.9-2.9,16.3-8.7,22.2c-5.8,5.9-13.1,8.8-22,8.8c-8.8,0-16.1-2.9-21.8-8.8S686,245.9,686,236.9z M716.5,218
				c-5.1-0.1-9.2,1.7-12.3,5.3c-3.1,3.6-4.7,8.2-4.7,13.9c0,5.4,1.6,9.8,4.8,13.4c3.2,3.5,7.2,5.3,12,5.3c5.1,0,9.2-1.7,12.3-5.2
				s4.7-8.1,4.7-13.8c0-5.6-1.5-10.2-4.6-13.6C725.7,219.9,721.6,218.1,716.5,218z"/>
			<path class="st9" d="M798,206.6h12.8v60.6h-12.7L770.4,228v39.2h-13.1v-60.6h12.9l27.8,39V206.6z"/>
		</g>
		<g class="st8">
			<path class="st9" d="M324.5,357.3h5.4c3.6,0,6.5,0.8,8.7,2.3c2.3,1.5,3.4,3.5,3.4,5.9c0,2.9-1.7,5.3-5,7.2c5.2,1.7,7.7,4.7,7.7,9
				c0,3-1.3,5.3-4,7.2c-2.7,1.8-6.2,2.7-10.7,2.7h-5.6V357.3z M329.1,361.4v10.1c2.6,0,4.6-0.5,5.9-1.5s2.1-2.3,2.1-3.9
				c0-1.4-0.6-2.6-1.9-3.5c-1.2-0.9-2.9-1.3-5-1.3C329.8,361.3,329.4,361.4,329.1,361.4z M329.1,375.6v11.7h0.4c4,0,6.8-0.6,8.2-1.9
				c1.5-1.3,2.2-2.6,2.2-3.9c0-1.8-0.8-3.2-2.5-4.2s-3.9-1.6-6.8-1.6H329.1z"/>
			<path class="st9" d="M351,357.3h19v4.7h-14.3v8.5h14.3v4.6h-14.3v11.8h14.3v4.6h-19V357.3z"/>
			<path class="st9" d="M396.3,361.1l-3.8,3c-1-1-1.9-1.8-2.7-2.3c-0.8-0.5-2-0.8-3.5-0.8c-1.7,0-3,0.4-4.1,1.1
				c-1,0.8-1.6,1.7-1.6,2.9c0,1,0.5,1.9,1.4,2.7c0.9,0.8,2.5,1.7,4.7,2.6c2.2,0.9,3.9,1.8,5.1,2.6c1.2,0.8,2.2,1.7,3,2.7
				c0.8,1,1.4,2,1.8,3.1c0.4,1.1,0.6,2.2,0.6,3.5c0,2.8-1,5.3-3.1,7.3s-4.6,3-7.5,3c-2.9,0-5.4-0.8-7.6-2.3s-3.9-3.9-5.1-7.1
				l4.7-1.3c1.7,3.8,4.3,5.8,7.8,5.8c1.7,0,3.1-0.5,4.2-1.5s1.7-2.3,1.7-3.9c0-0.9-0.3-1.9-0.9-2.8c-0.6-0.9-1.3-1.7-2.2-2.3
				c-0.9-0.6-2.3-1.3-4.2-2.1c-1.9-0.8-3.4-1.5-4.4-2.2c-1-0.7-1.9-1.4-2.7-2.3c-0.8-0.9-1.3-1.8-1.7-2.7c-0.4-0.9-0.5-1.9-0.5-2.9
				c0-2.5,1-4.5,3-6.3s4.4-2.6,7.2-2.6c1.9,0,3.8,0.4,5.7,1.2C393.5,358.2,395.1,359.4,396.3,361.1z"/>
			<path class="st9" d="M400.8,357.3h20.9v4.7h-8.2v29.5H409v-29.5h-8.1V357.3z"/>
			<path class="st9" d="M455,355.9l16.2,35.5h-4.9l-4-8.8h-14.5l-3.9,8.8H439L455,355.9z M455,366.6l-5.5,12.2h11L455,366.6z"/>
			<path class="st9" d="M475.1,357.3h19v4.7h-14.3v8.5H494v4.6h-14.3v11.8H494v4.6h-19V357.3z"/>
			<path class="st9" d="M520.4,361.1l-3.8,3c-1-1-1.9-1.8-2.7-2.3c-0.8-0.5-2-0.8-3.5-0.8c-1.7,0-3,0.4-4.1,1.1
				c-1,0.8-1.6,1.7-1.6,2.9c0,1,0.5,1.9,1.4,2.7c0.9,0.8,2.5,1.7,4.7,2.6c2.2,0.9,3.9,1.8,5.1,2.6c1.2,0.8,2.2,1.7,3,2.7
				c0.8,1,1.4,2,1.8,3.1c0.4,1.1,0.6,2.2,0.6,3.5c0,2.8-1,5.3-3.1,7.3s-4.6,3-7.5,3c-2.9,0-5.4-0.8-7.6-2.3s-3.9-3.9-5.1-7.1
				l4.7-1.3c1.7,3.8,4.3,5.8,7.8,5.8c1.7,0,3.1-0.5,4.2-1.5s1.7-2.3,1.7-3.9c0-0.9-0.3-1.9-0.9-2.8c-0.6-0.9-1.3-1.7-2.2-2.3
				c-0.9-0.6-2.3-1.3-4.2-2.1c-1.9-0.8-3.4-1.5-4.4-2.2c-1-0.7-1.9-1.4-2.7-2.3c-0.8-0.9-1.3-1.8-1.7-2.7c-0.4-0.9-0.5-1.9-0.5-2.9
				c0-2.5,1-4.5,3-6.3s4.4-2.6,7.2-2.6c1.9,0,3.8,0.4,5.7,1.2C517.6,358.2,519.2,359.4,520.4,361.1z"/>
			<path class="st9" d="M524.9,357.3h20.9v4.7h-8.2v29.5h-4.6v-29.5h-8.1V357.3z"/>
			<path class="st9" d="M551.3,357.3h4.7v13.2h16.4v-13.2h4.6v34.2h-4.6V375H556v16.4h-4.7V357.3z"/>
			<path class="st9" d="M584,357.3h19v4.7h-14.3v8.5h14.3v4.6h-14.3v11.8h14.3v4.6h-19V357.3z"/>
			<path class="st9" d="M606.3,357.3h20.9v4.7h-8.2v29.5h-4.6v-29.5h-8.1V357.3z"/>
			<path class="st9" d="M632.5,357.3h4.6v34.2h-4.6V357.3z"/>
			<path class="st9" d="M672.3,358.4v5.3c-3.7-1.8-7.1-2.7-10.2-2.7c-4,0-7.3,1.3-10,3.9c-2.7,2.6-4.1,5.7-4.1,9.5
				c0,3.8,1.4,7,4.2,9.5s6.3,3.8,10.5,3.8c3,0,6.3-1,9.7-2.9v5.3c-3.1,1.6-6.5,2.5-10.1,2.5c-5.3,0-9.8-1.8-13.6-5.4
				s-5.6-7.9-5.6-13c0-5,1.8-9.2,5.5-12.8c3.7-3.5,8.2-5.3,13.4-5.3C665.2,356.2,668.7,356.9,672.3,358.4z"/>
			<path class="st9" d="M698.7,361.1l-3.8,3c-1-1-1.9-1.8-2.7-2.3c-0.8-0.5-2-0.8-3.5-0.8c-1.7,0-3,0.4-4.1,1.1
				c-1,0.8-1.6,1.7-1.6,2.9c0,1,0.5,1.9,1.4,2.7c0.9,0.8,2.5,1.7,4.7,2.6c2.2,0.9,3.9,1.8,5.1,2.6c1.2,0.8,2.2,1.7,3,2.7
				c0.8,1,1.4,2,1.8,3.1c0.4,1.1,0.6,2.2,0.6,3.5c0,2.8-1,5.3-3.1,7.3s-4.6,3-7.5,3c-2.9,0-5.4-0.8-7.6-2.3s-3.9-3.9-5.1-7.1
				l4.7-1.3c1.7,3.8,4.3,5.8,7.8,5.8c1.7,0,3.1-0.5,4.2-1.5s1.7-2.3,1.7-3.9c0-0.9-0.3-1.9-0.9-2.8c-0.6-0.9-1.3-1.7-2.2-2.3
				c-0.9-0.6-2.3-1.3-4.2-2.1c-1.9-0.8-3.4-1.5-4.4-2.2c-1-0.7-1.9-1.4-2.7-2.3c-0.8-0.9-1.3-1.8-1.7-2.7c-0.4-0.9-0.5-1.9-0.5-2.9
				c0-2.5,1-4.5,3-6.3s4.4-2.6,7.2-2.6c1.9,0,3.8,0.4,5.7,1.2C695.9,358.2,697.5,359.4,698.7,361.1z"/>
		</g>
		<g class="st8">
			<path class="st9" d="M268.2,315.4l-3.8,3c-1-1-1.9-1.8-2.7-2.3c-0.8-0.5-2-0.8-3.5-0.8c-1.7,0-3,0.4-4.1,1.1
				c-1,0.8-1.6,1.7-1.6,2.9c0,1,0.5,2,1.4,2.7c0.9,0.8,2.5,1.7,4.7,2.6s3.9,1.8,5.1,2.6c1.2,0.8,2.2,1.7,3,2.7c0.8,1,1.4,2,1.8,3.1
				c0.4,1.1,0.6,2.2,0.6,3.5c0,2.8-1,5.3-3.1,7.3c-2.1,2-4.6,3-7.5,3c-2.9,0-5.4-0.8-7.6-2.4c-2.2-1.6-3.9-3.9-5.1-7.1l4.7-1.3
				c1.7,3.9,4.3,5.8,7.8,5.8c1.7,0,3.1-0.5,4.2-1.5s1.7-2.3,1.7-3.9c0-0.9-0.3-1.9-0.9-2.8c-0.6-0.9-1.3-1.7-2.2-2.3
				c-0.9-0.6-2.3-1.3-4.2-2.1c-1.9-0.8-3.4-1.5-4.4-2.2s-1.9-1.4-2.7-2.3c-0.8-0.9-1.3-1.8-1.7-2.7c-0.4-0.9-0.5-1.9-0.5-2.9
				c0-2.5,1-4.5,3-6.3c2-1.7,4.4-2.6,7.2-2.6c1.9,0,3.8,0.4,5.7,1.2S267,313.8,268.2,315.4z"/>
			<path class="st9" d="M274.5,311.6h19v4.7h-14.3v8.5h14.3v4.6h-14.3v11.8h14.3v4.6h-19V311.6z"/>
			<path class="st9" d="M326.6,312.8v5.3c-3.7-1.8-7.1-2.7-10.2-2.7c-4,0-7.3,1.3-10,3.9c-2.7,2.6-4.1,5.7-4.1,9.5
				c0,3.8,1.4,7,4.2,9.5c2.8,2.5,6.3,3.8,10.5,3.8c3,0,6.3-1,9.7-2.9v5.3c-3.1,1.6-6.5,2.5-10.1,2.5c-5.3,0-9.8-1.8-13.6-5.4
				c-3.8-3.6-5.6-7.9-5.6-13c0-5,1.8-9.2,5.5-12.8c3.7-3.5,8.2-5.3,13.4-5.3C319.6,310.5,323,311.3,326.6,312.8z"/>
			<path class="st9" d="M332.9,311.6h7.4c3.7,0,6.7,0.9,9,2.8c2.3,1.8,3.5,4.2,3.5,7c0,2.3-0.8,4.3-2.3,6.1c-1.5,1.8-3.8,3-7,3.7
				l9.9,14.6h-5.4l-9.5-14.1h-1v14.1h-4.7V311.6z M337.6,315.7v11.9c6.9,0.1,10.3-1.9,10.3-6c0-1.5-0.4-2.6-1.2-3.6
				c-0.8-0.9-1.9-1.5-3.2-1.9C342.1,315.9,340.2,315.7,337.6,315.7z"/>
			<path class="st9" d="M359.3,311.6h19v4.7h-14.3v8.5h14.3v4.6h-14.3v11.8h14.3v4.6h-19V311.6z"/>
			<path class="st9" d="M381.7,311.6h20.9v4.7h-8.2v29.5h-4.6v-29.5h-8.1V311.6z"/>
			<path class="st9" d="M456.1,317.1l-3.5,3.4c-3.5-3.4-7.5-5.1-12.1-5.1c-4,0-7.4,1.3-10,3.9c-2.7,2.6-4,5.8-4,9.7
				c0,3.4,1.3,6.4,3.9,9.1c2.6,2.7,6.2,4.1,10.7,4.1c6.8,0,11.1-3,12.9-8.9h-9.2v-4.7h14.6c0,2.3-0.2,4.2-0.5,5.6
				c-0.3,1.4-1,2.9-1.9,4.6c-1,1.7-2.3,3.2-3.9,4.5s-3.4,2.3-5.3,2.9c-1.9,0.6-4.1,0.9-6.7,0.9c-5.9,0-10.6-1.9-14.1-5.6
				c-3.5-3.7-5.3-8-5.3-12.7c0-5,1.8-9.3,5.4-12.8c3.6-3.5,8-5.3,13.1-5.3c3,0,5.8,0.5,8.3,1.4C450.9,312.8,453.5,314.6,456.1,317.1
				z"/>
			<path class="st9" d="M478.2,310.3l16.2,35.5h-4.9l-4-8.8H471l-3.9,8.8h-4.9L478.2,310.3z M478.2,321l-5.5,12.2h11L478.2,321z"/>
			<path class="st9" d="M526.9,310.2l9.4,35.6h-4.6L526,324l-9.8,23.1l-9.8-23.3l-5.7,22h-4.6l9.4-35.6l10.7,25.5L526.9,310.2z"/>
			<path class="st9" d="M540.7,311.6h19v4.7h-14.3v8.5h14.3v4.6h-14.3v11.8h14.3v4.6h-19V311.6z"/>
		</g>
		<g class="st8">
			<path class="st9" d="M593.1,310.3l16.2,35.5h-4.9l-4-8.8h-14.5l-3.9,8.8h-4.9L593.1,310.3z M593.1,321l-5.5,12.2h11L593.1,321z"
				/>
		</g>
		<g class="st8">
			<path class="st9" d="M633.1,310.3l11,25.3l10.3-23.9h4.8l-15.2,35.2l-11-25.3l-11,25.3l-15.2-35.2h4.8l10.4,24.2L633.1,310.3z"/>
		</g>
		<g class="st8">
			<path class="st9" d="M673.1,310.3l16.2,35.5h-4.9l-4-8.8h-14.5l-3.9,8.8h-4.9L673.1,310.3z M673.1,321l-5.5,12.2h11L673.1,321z"
				/>
			<path class="st9" d="M694.3,311.6h7.4c3.7,0,6.7,0.9,9,2.8c2.3,1.8,3.5,4.2,3.5,7c0,2.3-0.8,4.3-2.3,6.1c-1.5,1.8-3.8,3-7,3.7
				l9.9,14.6h-5.4l-9.5-14.1h-1v14.1h-4.7V311.6z M699,315.7v11.9c6.9,0.1,10.3-1.9,10.3-6c0-1.5-0.4-2.6-1.2-3.6
				c-0.8-0.9-1.9-1.5-3.2-1.9C703.5,315.9,701.6,315.7,699,315.7z"/>
			<path class="st9" d="M721.1,311.6h8.3c6.6,0,11.5,1.7,14.7,5.2c3.2,3.5,4.8,7.4,4.8,11.9c0,4.5-1.7,8.5-5,11.9s-8.1,5.2-14.5,5.2
				h-8.4V311.6z M725.8,316.2v25h0.3c3.5,0,6.1-0.2,7.8-0.5s3.4-1,5-2.1c1.6-1.1,2.8-2.5,3.8-4.2c0.9-1.7,1.4-3.7,1.4-5.8
				c0-2.6-0.7-5-2.2-7.1s-3.3-3.6-5.3-4.3c-2.1-0.7-4.8-1.1-8.3-1.1H725.8z"/>
			<path class="st9" d="M775.2,315.4l-3.8,3c-1-1-1.9-1.8-2.7-2.3c-0.8-0.5-2-0.8-3.5-0.8c-1.7,0-3,0.4-4.1,1.1s-1.6,1.7-1.6,2.9
				c0,1,0.5,2,1.4,2.7c0.9,0.8,2.5,1.7,4.7,2.6c2.2,0.9,3.9,1.8,5.1,2.6c1.2,0.8,2.2,1.7,3,2.7c0.8,1,1.4,2,1.8,3.1
				c0.4,1.1,0.6,2.2,0.6,3.5c0,2.8-1,5.3-3.1,7.3c-2.1,2-4.6,3-7.5,3c-2.9,0-5.4-0.8-7.6-2.4s-3.9-3.9-5.1-7.1l4.7-1.3
				c1.7,3.9,4.3,5.8,7.8,5.8c1.7,0,3.1-0.5,4.2-1.5s1.7-2.3,1.7-3.9c0-0.9-0.3-1.9-0.9-2.8c-0.6-0.9-1.3-1.7-2.2-2.3
				c-0.9-0.6-2.3-1.3-4.2-2.1c-1.9-0.8-3.4-1.5-4.4-2.2s-1.9-1.4-2.7-2.3c-0.8-0.9-1.3-1.8-1.7-2.7c-0.4-0.9-0.5-1.9-0.5-2.9
				c0-2.5,1-4.5,3-6.3s4.4-2.6,7.2-2.6c1.9,0,3.8,0.4,5.7,1.2S773.9,313.8,775.2,315.4z"/>
		</g>
		<g class="st8">
			<path class="st9" d="M459.4,467.8h14.2v5h-25.4l19-20.2c1.4-1.6,2.1-3.3,2.1-5.1c0-2.2-0.8-4.1-2.2-5.7c-1.5-1.6-3.3-2.4-5.3-2.4
				c-1.7,0-3.2,0.5-4.7,1.6c-1.5,1.1-2.4,2.7-2.9,5h-4.9c0.5-3.7,1.9-6.5,4.3-8.5c2.4-2,5.2-3.1,8.5-3.1c3.3,0,6.1,1.3,8.5,3.8
				s3.6,5.6,3.6,9.1c0,1.7-0.3,3.2-0.9,4.7s-1.7,2.9-3.2,4.6L459.4,467.8z"/>
			<path class="st9" d="M494.7,434.2c4.1,0,7.4,1.8,10,5.5c2.6,3.7,3.8,8.4,3.8,14.3c0,6.1-1.4,10.9-4.1,14.5
				c-2.8,3.6-6.1,5.4-9.9,5.4c-4,0-7.3-1.8-10-5.5c-2.7-3.7-4-8.4-4-14.1c0-6.3,1.4-11.3,4.1-14.8c2.7-3.5,6-5.3,9.8-5.3H494.7z
				 M503.2,454c0-4.2-0.8-7.7-2.5-10.4c-1.7-2.7-3.7-4.1-6.3-4.1c-2.6,0-4.7,1.3-6.3,4c-1.6,2.7-2.5,6.2-2.5,10.6
				c0,4.3,0.8,7.8,2.5,10.5c1.7,2.6,3.8,4,6.4,4c2.5,0,4.6-1.3,6.2-4C502.4,461.9,503.2,458.3,503.2,454z"/>
			<path class="st9" d="M520.5,435.6h9.7v37.1h-5v-32.2h-6.3L520.5,435.6z"/>
			<path class="st9" d="M558.4,474.6l-4-2.8l8.2-11.9c-1.1,0.2-2,0.2-2.6,0.2c-3.7,0-6.8-1.2-9.3-3.7c-2.5-2.5-3.7-5.5-3.7-9.2
				c0-3.5,1.4-6.6,4.1-9.2c2.7-2.6,5.9-3.9,9.5-3.9c3.6,0,6.7,1.3,9.4,4c2.7,2.7,4,5.8,4,9.3c0,2.9-0.9,5.6-2.7,8.3L558.4,474.6z
				 M568.8,447.8c0-2.3-0.8-4.3-2.4-5.9s-3.5-2.5-5.8-2.5c-2.4,0-4.4,0.8-6,2.4s-2.4,3.6-2.4,6.1c0,2.2,0.8,4.1,2.5,5.7
				c1.7,1.6,3.7,2.4,6.1,2.4c2.2,0,4.1-0.8,5.6-2.4C568,452.1,568.8,450.1,568.8,447.8z"/>
		</g>
		<path class="st9" d="M234.8,481.7c2-20.5-7.1-38.3-7.1-38.3s-19.9,0.5-19.3,34.3c0.2,11.2,2.6,22.3,7.3,32.6
			c-10.6-6.5-20.6-13.8-30-22l-3.8-3.4c3-1.2,15.3-7.6,19-32.9c3-20.4-6.1-37.9-6.1-37.9l0,0c0,0-20.6,3-21.5,31.4
			c-0.7,21.1,4.6,33.6,6.9,38c-12-10.8-23.4-22.3-34-34.5c8.8-6.6,19.7-13.7,25.1-24.2c8.2-15.9,6.4-25.3,7.6-40
			c-10.5,3.1-21.8,6.1-29.8,28c-4.6,12.7-0.7,18.5-4.2,34.8c-8.5-9.8-16.3-20.2-23.3-31c9.8-4.4,21.3-7.2,29.9-20.8
			c9.6-15.2,7.6-15.3,16.3-40.2c-10.9,1-22.6,1.9-34.6,21.9c-6.9,11.6-6.1,21.8-12.7,37.5c-7.5-11.6-13.8-23.9-19-36.8
			c10.8-2.6,25.1-2.1,38.9-16.6c14.2-14.8,19.1-29.6,22.5-40.4c-10.9,1-27.7,0.5-40.9,17.9c-11.6,15.2-10.9,20-21.3,36.9
			c-1.4-3.7-2.7-7.4-3.9-11.2c-2.6-8.3-4.6-16.7-6-25.3c7.3-0.1,24.7-0.6,40.1-14.6c15.2-13.8,22.3-29.7,26.5-40.3
			c-10.9,0.1-26.8-3.2-43.5,15.5c-12.3,13.7-16.7,23.8-23.7,35.7c-2.3-15.1-3-30.4-2-45.7c6.4,0.2,26.4,1,44.5-12.1
			c16.6-12,24.7-28,30.1-38c-10.9-1.1-26.9-6.4-45.7,10.3c-14.3,12.8-19.9,25.6-28.8,37.6c0.4-5.8,1.1-11.6,1.9-17.3
			c1.8-11.5,4.5-22.8,8-33.8c6.5,1.3,21.8,3.7,41.5-3.4c21.2-7.7,33.1-29,36-34.2c-10.5-3.1-23.1-7-46.1,4.7
			c-13.7,7-23.3,17.4-28.7,24.5c4.3-12.7,9.2-25,14-36.9c6.1,1.7,21.4,5.6,42.1-0.3c21.7-6.1,35.1-26.6,38.4-31.5
			c-10.2-3.8-22.4-8.6-46.3,1.4c-14.7,6.2-25.2,16.4-31,23.2c6.9-15.4,15.3-30,25.1-43.7c4.3,2.1,13.6,6.9,35.6,4.8
			c28-2.6,39.6-20.4,39.6-20.4c-9.5-5.5-18.7-9-37.8-5.6c-12.4,2.2-24,7.7-33.7,15.8c8.3-11.5,16.9-22.8,26-33.8
			c4.6,2,16.6,6.8,39,4.7c28-2.6,42.6-21.3,42.6-21.3c-9.5-5.5-24.2-8.6-43.4-5.3c-11.9,2.2-23.1,7.4-32.6,15
			c6-7.1,12.2-14.1,18.6-20.8c3-3.2,6.3-6.3,9.7-9.3c6.6,0.1,30.7-0.2,43.6-7.7c16.8-9.8,33.4-31,34.7-37.2c0,0-26.5-11.6-51.2,9.6
			c-15.1,13-23.7,25.7-27.1,32c-3.3,2.9-6.4,5.9-9.4,9c-3.3,3.5-6.6,7-9.9,10.6c4.6-7.2,9.9-17.5,12-29.4c3.4-19.1,0-40-3.6-45.2
			c0,0-20.7,12.9-22.2,45.4c-1,22.3,3.3,34,5.3,38.6c-10.4,11.8-20.6,24.2-30,36.6c4.2-8,9.9-20.7,12.1-33.8
			c3.4-20.5-4.9-42.8-6.7-44.8c0,0-21.7,9.5-20.9,46.1c0.2,13.9,3.6,27.5,9.9,39.9c-0.8,1-1.5,2-2.2,3
			c-8.4,11.7-16.2,23.8-23.3,36.2c2.5-8,5.9-21.6,5.2-35.6c-1.6-30.6-22.4-43.6-22.9-43.6c0,0-20,18.1-8.5,56.9
			c5.8,19.8,18.5,27.2,22.4,29.1c-2.7,4.9-5.1,9.6-7.1,13.9c-4.8,10.4-8.7,19.4-12.1,28.4c1.1-8.6,1.8-20.2,0.4-31.5
			c-4.2-33.1-29.9-40.1-30.4-40c0,0-8.8,30.6,3.7,56.8c9.8,20.4,18.1,26,21.8,27.6c-2.3,7.4-4.5,15.1-6.5,24
			c-1.3,5.8-2.4,11.6-3.3,17.4c-0.4-9.9-1.9-25-6.3-37.6c-10.1-29.1-37.7-34.9-38.2-34.8c0,0-4.5,31.2,11.5,55.4
			c14,21.2,27.3,26.3,31.6,27.4c-1.6,16.3-1.5,32.7,0.4,49c-5.7-10.3-7.8-28.8-18.5-44.2c-17.5-25.4-46.4-23.6-46.8-23.3
			c0,0,3.1,31.6,25,50.8c17.9,15.7,34.3,19.9,40.8,21c1.2,9,2.9,18,5,26.9c0.4,1.5,0.8,3,1.2,4.5c-5.2-7-19.5-24.5-38.8-33.8
			c-23.9-11.5-41.3-1.7-41.7-1.3c0,0,12.2,22.4,34.8,33.1c26.1,12.4,42.4,7.4,46.7,5.6c3.7,12.1,8.8,23.8,15.1,34.9
			c-6.3-5.7-20.5-17.2-38.3-22.6c-31.5-9.7-46.4,9.3-46.8,9.8c0,0,12.9,16.3,39.9,23.4c30.5,8.1,44.2-2.6,47.8-6.1
			c9.6,15.8,20.7,30.6,33.2,44.1c-7.1-5.5-21.8-15.9-36.2-19.5c-34.6-8.7-46,11.5-46,11.5S69,466.2,96.7,473
			c28.5,7,42.7-6.8,45.5-9.9c10,10.7,20.6,20.8,31.2,30.3c-5.5-2.4-23.4-9.5-40.6-9.4c-35.6,0.3-37.8,19.2-37.8,19.2
			s12.9,9.3,41.4,8.9c29.4-0.4,37.1-14.4,38.4-17.4l2.1,1.9c11.6,10.1,24.3,18.9,37.7,26.4c-8.2-2.2-26.5-6.3-41.9-4.5
			c-32.4,3.8-35.4,24-35.4,24s13,8.1,40.9,5c28.4-3.1,38.2-18.3,40.3-22.3c22.2,12.3,46,21.8,68,29.7l3.8-10
			c-23.5-8.4-47.8-18.6-70.1-31.8C224.4,509.9,232.9,501.3,234.8,481.7z"/>
		<polygon class="st9" points="227.7,443.4 227.7,443.4 227.7,443.4 		"/>
		<path class="st9" d="M957.7,387.7c-17.8,5.5-32,17-38.3,22.7c6.3-11.1,11.3-22.8,15.1-34.9c4.3,1.8,20.7,6.8,46.8-5.6
			c22.5-10.7,34.8-33.1,34.8-33.1c-0.4-0.4-17.8-10.2-41.7,1.3c-19.3,9.3-33.6,26.8-38.8,33.8c0.4-1.5,0.8-3,1.2-4.6
			c2.1-8.9,3.8-17.8,5-26.9c6.5-1.1,22.8-5.4,40.8-21.1c21.9-19.1,25-50.8,25-50.8c-0.4-0.2-29.3-2.1-46.8,23.3
			c-10.6,15.4-12.7,33.9-18.5,44.2c1.8-16.3,2-32.7,0.4-49c4.3-1.1,17.7-6.2,31.7-27.4c16-24.3,11.5-55.4,11.5-55.4
			c-0.5-0.1-28.1,5.6-38.2,34.8c-4.4,12.7-5.8,27.9-6.3,37.8c-0.9-5.9-1.9-11.8-3.3-17.6c-2-8.9-4.1-16.6-6.5-23.9
			c3.7-1.5,12.1-7.2,21.9-27.6c12.5-26.2,3.7-56.8,3.7-56.8c-0.5-0.1-26.2,6.9-30.4,40c-1.5,11.4-0.7,23.1,0.4,31.7
			c-3.4-9.1-7.3-18.1-12.1-28.6c-2-4.3-4.4-9-7.1-13.9c3.9-1.9,16.5-9.4,22.4-29.2c11.5-38.9-8.5-56.9-8.5-56.9
			c-0.5,0-21.3,13-22.8,43.6c-0.7,14.1,2.7,27.7,5.2,35.7c-7.2-12.5-15-24.7-23.5-36.4c-0.7-1-1.5-2-2.2-3c6.3-12.4,9.7-26.1,9.9-40
			c0.8-36.5-20.9-46-20.9-46c-1.8,2-10.1,24.3-6.7,44.8c2.2,13.1,7.9,25.8,12.1,33.8c-9.5-12.4-19.6-24.7-30-36.5
			c2-4.6,6.3-16.3,5.3-38.7C846.8,18.9,826.1,6,826.1,6c-3.6,5.2-7.1,26-3.6,45.2c2.2,12,7.5,22.3,12.1,29.5
			c-3.3-3.6-6.7-7.2-10-10.7c-2.9-3.1-6.1-6-9.3-8.9c-3.4-6.2-12-19-27.2-32c-24.7-21.2-51.2-9.6-51.2-9.6
			c1.3,6.2,17.8,27.4,34.7,37.2c12.9,7.5,36.9,7.8,43.5,7.7c3.4,3,6.7,6.1,9.7,9.3c6.3,6.7,12.5,13.7,18.5,20.7
			c-9.4-7.6-20.6-12.8-32.5-15c-19.2-3.4-33.9-0.3-43.4,5.3c0,0,14.6,18.7,42.6,21.3c22.4,2.1,34.4-2.7,39-4.7
			c9.1,11,17.8,22.3,26,33.8c-9.6-8.2-21.3-13.7-33.7-15.9c-19.2-3.4-28.4,0.1-37.8,5.6c0,0,11.7,17.8,39.6,20.4
			c22.2,2,31.5-2.8,35.7-4.8c9.8,13.7,18.2,28.4,25.1,43.7c-5.8-6.7-16.3-16.9-31-23.1c-23.8-10-36.1-5.2-46.4-1.4
			c3.3,4.9,16.7,25.4,38.4,31.5c20.6,5.8,36,2,42.1,0.3c4.9,11.9,9.8,24.3,14.1,37c-5.4-7.1-15-17.6-28.7-24.6
			c-23.1-11.7-35.6-7.8-46.1-4.7c2.9,5.1,14.8,26.5,36,34.2c19.7,7.1,35,4.6,41.5,3.4c3.5,11.1,6.2,22.4,8,33.8
			c0.9,5.8,1.6,11.5,2,17.3c-8.9-12-14.5-24.9-28.8-37.7c-18.7-16.7-34.8-11.4-45.7-10.3c5.4,10.1,13.4,26,30.1,38
			c18.2,13.1,38.2,12.3,44.5,12.1c1,15.3,0.3,30.6-2,45.7c-6.9-11.9-11.4-22-23.7-35.6c-16.7-18.7-32.6-15.4-43.5-15.5
			c4.2,10.6,11.3,26.5,26.5,40.3c15.4,14,32.8,14.5,40.1,14.6c-1.4,8.5-3.5,17-6,25.3c-1.2,3.8-2.5,7.5-3.9,11.2
			c-10.5-16.8-9.7-21.6-21.4-36.9c-13.2-17.3-30-16.8-40.9-17.8c3.3,10.9,8.3,25.7,22.5,40.5c13.8,14.5,28.1,14,38.9,16.6
			c-5.2,12.8-11.5,25.1-19,36.8c-6.6-15.6-5.8-25.9-12.7-37.5c-11.9-20-23.7-20.9-34.5-21.9c8.7,24.9,6.7,25,16.3,40.2
			c8.6,13.7,20.1,16.4,29.9,20.8c-7.1,10.8-14.9,21.2-23.4,31c-3.5-16.4,0.4-22.1-4.2-34.8c-7.9-21.9-19.3-25-29.8-28
			c1.2,14.7-0.6,24,7.6,40c5.5,10.5,16.4,17.6,25.2,24.2c-10.6,12.2-22,23.7-34,34.5c2.3-4.3,7.6-16.9,6.9-38
			c-1-28.5-21.6-31.5-21.6-31.5l0,0c0,0-9.1,17.6-6.1,37.9c3.8,25.3,16.1,31.7,19,32.9l-3.8,3.4c-9.4,8.2-19.4,15.5-30,22
			c4.6-10.2,7.1-21.3,7.3-32.6c0.6-33.8-19.3-34.3-19.3-34.3l0,0c0,0-9.1,17.8-7.1,38.3c1.9,19.6,10.4,28.2,14.6,31.3
			c-22.3,13.2-46.7,23.4-70.1,31.8l3.8,10c22-7.9,45.8-17.4,68-29.7c2,3.9,11.8,19.2,40.3,22.3c27.9,3.1,41-5,41-5s-3-20.2-35.5-24
			c-15.4-1.8-33.9,2.4-42,4.5c13.4-7.5,26.1-16.4,37.7-26.4l2.1-1.9c1.3,3,9,17,38.4,17.4c28.5,0.4,41.4-8.9,41.4-8.9
			s-2.1-18.9-37.8-19.2c-17.1-0.1-35,7-40.5,9.4c10.7-9.5,21.3-19.6,31.3-30.3c2.7,3,17,16.9,45.5,10c27.7-6.8,40.6-22.2,40.6-22.2
			s-11.5-20.1-46-11.5c-14.5,3.6-29.4,14.2-36.4,19.7c12.6-13.6,23.8-28.4,33.4-44.3c3.5,3.5,17.2,14.2,47.8,6.1
			c27-7.1,39.9-23.4,39.9-23.4C1004.1,397,989.3,378,957.7,387.7z"/>
	</g>
</g>
</svg>
