<svg xmlns="http://www.w3.org/2000/svg" viewBox="0 0 406.55 95.89"><defs><style>.cls-1{fill:#eee;}</style></defs><title>patreon_text</title><g id="Layer_2" data-name="Layer 2"><g id="Layer_1-2" data-name="Layer 1"><path class="cls-1" d="M398,29.4h8.53V66.48H397.6L384.25,42.65V66.48h-8.58V29.4h8.95L398,53.56Zm-56.2-.95c12.29,0,19.6,9.32,19.6,19.49s-7.31,19.5-19.6,19.5-19.65-9.33-19.65-19.5S329.48,28.45,341.82,28.45Zm10.86,19.49c0-6.09-4.13-11.76-10.86-11.76S331,41.85,331,47.94,335,59.7,341.82,59.7,352.68,54,352.68,47.94ZM203.24,36.82V29.4h25.38v7.42h-8.43V66.48h-8.58V36.82Zm91,7.89h14v6.73h-14V59.6h14v6.88H285.62V29.4h22.61v6.89h-14ZM257.54,29.4a13.12,13.12,0,0,1,13.51,13.41,13,13,0,0,1-7.37,12l7.42,11.7h-10l-6.57-10.27h-4V66.48H242V29.4Zm4.82,13.41c0-3.45-2.33-6.41-5.93-6.41h-5.88V49.21h5.88C260,49.21,262.36,46.25,262.36,42.81ZM186.45,62H173.26l-1.43,4.5h-9.17L175.91,29.4h7.89l13.4,37.08h-9.32Zm-6.57-22-4.55,15.25h9ZM141.53,29.4A13.12,13.12,0,0,1,155,42.81a13.12,13.12,0,0,1-13.51,13.4h-6.94V66.48H126V29.4Zm4.87,13.41c0-3.45-2.33-6.41-5.93-6.41h-5.88V49.21h5.88C144.07,49.21,146.4,46.25,146.4,42.81Z"/><path class="cls-1" d="M64.1,0A35.95,35.95,0,1,0,100,36,36,36,0,0,0,64.1,0"/><polygon class="cls-1" points="0 95.89 17.58 95.89 17.58 0 0 0 0 95.89"/></g></g></svg>