<svg xmlns="http://www.w3.org/2000/svg" viewBox="0 0 658.59 101.27"><defs><style>.cls-1{fill:#fff;}</style></defs><title>Asset 1</title><g id="Layer_2" data-name="Layer 2"><g id="Layer_1-2" data-name="Layer 1"><path class="cls-1" d="M0,99.78V0H37.35C58.66,0,80.5,4.45,80.5,34S56.9,68,37.35,68H26.7V99.78ZM26.7,47.46H38.29c12.55,0,15.92-5.25,15.92-12.81S50.84,21.84,38.29,21.84H26.7Z"/><path class="cls-1" d="M93,99.78V0H170.7L157.78,22.38H120V38.56h31.56v21H120V78.07h46.52V99.78Z"/><path class="cls-1" d="M201.73,99.78V22.38H166.55L179.47,0h78V22.38H228.7v77.4Z"/><path class="cls-1" d="M303.54,99.78V0h37.35C362.2,0,384,4.45,384,34s-23.6,34-43.15,34H330.24V99.78Zm26.7-52.32h11.59c12.54,0,15.92-5.25,15.92-12.81s-3.38-12.81-15.92-12.81H330.24Z"/><path class="cls-1" d="M391.86,59.74V0h27V59.6c0,13.75,4.45,20,15.24,20s15.1-6.21,15.1-20V0H475.6V59.74c0,26.42-12.67,41.53-41.8,41.53S391.86,86.16,391.86,59.74Z"/><path class="cls-1" d="M513.9,99.78V22.38H485.18V0h89.07L561.33,22.38H540.87v77.4Z"/><path class="cls-1" d="M602.9,99.78V22.38H569.52L582.44,0h76.15V22.38H629.87v77.4Z"/></g></g></svg>