<svg xmlns="http://www.w3.org/2000/svg" viewBox="0 0 338.63 77.91"><defs><style>.cls-1{fill:#eee;}</style></defs><title>tw_text</title><g id="Layer_2" data-name="Layer 2"><g id="Layer_1-2" data-name="Layer 1"><path class="cls-1" d="M30.15,77.91c36.18,0,56-30,56-56,0-.85,0-1.7,0-2.54A40.11,40.11,0,0,0,95.87,9.22a39.33,39.33,0,0,1-11.3,3.1A19.73,19.73,0,0,0,93.22,1.44,39.42,39.42,0,0,1,80.73,6.21a19.68,19.68,0,0,0-34,13.46,20,20,0,0,0,.51,4.48A55.85,55.85,0,0,1,6.67,3.6a19.7,19.7,0,0,0,6.09,26.26A19.62,19.62,0,0,1,3.85,27.4v.25A19.67,19.67,0,0,0,19.63,46.93a19.7,19.7,0,0,1-5.19.69,19.48,19.48,0,0,1-3.69-.35A19.69,19.69,0,0,0,29.12,60.93,39.43,39.43,0,0,1,4.69,69.35,40.45,40.45,0,0,1,0,69.08a55.65,55.65,0,0,0,30.15,8.83"/><path class="cls-1" d="M134,30v7.83h-6.71v15a37.15,37.15,0,0,0,.19,5.3,2.19,2.19,0,0,0,.87,1.24,2.76,2.76,0,0,0,1.66.49,12.91,12.91,0,0,0,3.95-.94l.84,7.61A19.49,19.49,0,0,1,127,67.94a12.24,12.24,0,0,1-4.79-.89,6.88,6.88,0,0,1-3.12-2.31,8.88,8.88,0,0,1-1.38-3.82,47.29,47.29,0,0,1-.32-6.92V37.81h-4.51V30h4.51V22.61l9.86-5.73V30Z"/><path class="cls-1" d="M149.56,67.1,137.81,30h9.55l6.95,24.33L160.71,30h9.47l6.19,24.33L183.46,30h9.68L181.23,67.1h-9.44l-6.4-23.87L159.1,67.1Z"/><path class="cls-1" d="M200.18,25V15.86H210V25Zm0,42.15V30H210V67.1Z"/><path class="cls-1" d="M239,30v7.83h-6.71v15a37.15,37.15,0,0,0,.19,5.3,2.16,2.16,0,0,0,.88,1.24,2.72,2.72,0,0,0,1.66.49,13,13,0,0,0,3.95-.94l.84,7.61A19.56,19.56,0,0,1,232,67.94a12.17,12.17,0,0,1-4.79-.89,6.91,6.91,0,0,1-3.13-2.31,8.88,8.88,0,0,1-1.38-3.82,47.29,47.29,0,0,1-.32-6.92V37.81h-4.51V30h4.51V22.61l9.86-5.73V30Z"/><path class="cls-1" d="M264.65,30v7.83h-6.71v15a37.15,37.15,0,0,0,.19,5.3,2.16,2.16,0,0,0,.88,1.24,2.72,2.72,0,0,0,1.66.49,13,13,0,0,0,3.95-.94l.83,7.61a19.47,19.47,0,0,1-7.75,1.47,12.17,12.17,0,0,1-4.79-.89,6.85,6.85,0,0,1-3.13-2.31,8.88,8.88,0,0,1-1.38-3.82,47.29,47.29,0,0,1-.32-6.92V37.81h-4.51V30h4.51V22.61l9.86-5.73V30Z"/><path class="cls-1" d="M294.82,55.29l9.79,1.64a16.05,16.05,0,0,1-6,8.2,17.46,17.46,0,0,1-10.19,2.81q-9.68,0-14.33-6.32-3.66-5.07-3.67-12.8,0-9.23,4.83-14.45a15.89,15.89,0,0,1,12.19-5.23q8.29,0,13.08,5.47t4.58,16.77H280.53a9.9,9.9,0,0,0,2.38,6.79,7.42,7.42,0,0,0,5.66,2.43,6,6,0,0,0,3.88-1.26A7.68,7.68,0,0,0,294.82,55.29Zm.56-9.93q-.11-4.26-2.2-6.48a7.08,7.08,0,0,0-10.41.12,9.07,9.07,0,0,0-2.07,6.36Z"/><path class="cls-1" d="M324.4,67.1h-9.82V30h9.13v5.28a16,16,0,0,1,4.21-4.93,7.74,7.74,0,0,1,4.24-1.19A12.42,12.42,0,0,1,338.63,31l-3,8.56A8.65,8.65,0,0,0,331,38a5.42,5.42,0,0,0-3.49,1.14,7.71,7.71,0,0,0-2.25,4.11q-.83,3-.83,12.44Z"/></g></g></svg>